<svg xmlns="http://www.w3.org/2000/svg" width="40" height="41" viewBox="0 0 40 41" fill="none">
<g clip-path="url(#clip0_74_1607)">
<path fill-rule="evenodd" clip-rule="evenodd" d="M5 35.729C5 37.8003 6.67875 39.479 8.75 39.479H31.25C33.3212 39.479 35 37.8003 35 35.729C35 32.8115 35 28.0415 35 25.3153C35 23.5028 33.7038 21.9503 31.9213 21.6265C29.2788 21.1453 24.7225 20.3165 22.145 19.849C20.7263 19.5903 19.2737 19.5903 17.855 19.849C15.2775 20.3165 10.7212 21.1453 8.07875 21.6265C6.29625 21.9503 5 23.5028 5 25.3153V35.729ZM22.885 22.524L24.7612 29.6578C25.0075 30.594 24.6775 31.5878 23.92 32.1928C23.28 32.7028 22.2713 33.5078 21.5713 34.0678C20.6525 34.8003 19.3475 34.8003 18.4287 34.0678C17.7287 33.5078 16.72 32.7028 16.08 32.1928C15.3225 31.5878 14.9925 30.594 15.2388 29.6578L17.115 22.524L8.52625 24.0853C7.9325 24.194 7.5 24.7115 7.5 25.3153V35.729C7.5 36.419 8.06 36.979 8.75 36.979C13.98 36.979 26.02 36.979 31.25 36.979C31.94 36.979 32.5 36.419 32.5 35.729C32.5 32.8115 32.5 28.0415 32.5 25.3153C32.5 24.7115 32.0675 24.194 31.4738 24.0853L22.885 22.524ZM20.2038 22.1578C20.0675 22.154 19.9325 22.154 19.7962 22.1578L17.6663 30.2603L19.9887 32.1127C19.995 32.119 20.005 32.119 20.0113 32.1127L22.3337 30.2603L20.2038 22.1578ZM20 1.979C15.5163 1.979 11.875 5.62025 11.875 10.104C11.875 14.5878 15.5163 18.229 20 18.229C24.4837 18.229 28.125 14.5878 28.125 10.104C28.125 5.62025 24.4837 1.979 20 1.979ZM20 4.479C23.105 4.479 25.625 6.999 25.625 10.104C25.625 13.209 23.105 15.729 20 15.729C16.895 15.729 14.375 13.209 14.375 10.104C14.375 6.999 16.895 4.479 20 4.479Z" fill="#C1BBEB"/>
</g>
<defs>
<clipPath id="clip0_74_1607">
<rect width="40" height="40" fill="white" transform="translate(0 0.729004)"/>
</clipPath>
</defs>
</svg>