<svg xmlns="http://www.w3.org/2000/svg" width="40" height="41" viewBox="0 0 40 41" fill="none">
<path d="M26.1755 11.6039C26.1755 11.9477 26.1521 12.2914 26.1091 12.6313C26.1286 12.4946 26.1481 12.3539 26.1638 12.2172C26.07 12.8969 25.8903 13.5571 25.6286 14.1899C25.6794 14.0649 25.7341 13.9399 25.7849 13.8149C25.5231 14.4321 25.1872 15.0102 24.7771 15.5414C24.8591 15.436 24.9411 15.3305 25.0231 15.225C24.6169 15.7485 24.1442 16.2211 23.6208 16.6274C23.7263 16.5453 23.8317 16.4633 23.9372 16.3813C23.406 16.7875 22.8278 17.1274 22.2106 17.3891C22.3356 17.3383 22.4606 17.2836 22.5856 17.2328C21.9528 17.4946 21.2927 17.6742 20.613 17.768C20.7497 17.7485 20.8903 17.7289 21.0271 17.7133C20.3435 17.8032 19.656 17.8032 18.9724 17.7133C19.1091 17.7328 19.2497 17.7524 19.3864 17.768C18.7067 17.6742 18.0466 17.4946 17.4138 17.2328C17.5388 17.2836 17.6638 17.3383 17.7888 17.3891C17.1716 17.1274 16.5935 16.7914 16.0622 16.3813C16.1677 16.4633 16.2731 16.5453 16.3786 16.6274C15.8552 16.2211 15.3825 15.7485 14.9763 15.225C15.0583 15.3305 15.1403 15.436 15.2224 15.5414C14.8161 15.0102 14.4763 14.4321 14.2145 13.8149C14.2653 13.9399 14.32 14.0649 14.3708 14.1899C14.1091 13.5571 13.9294 12.8969 13.8356 12.2172C13.8552 12.3539 13.8747 12.4946 13.8903 12.6313C13.8005 11.9477 13.8005 11.2602 13.8903 10.5766C13.8708 10.7133 13.8513 10.8539 13.8356 10.9907C13.9294 10.311 14.1091 9.65081 14.3708 9.018C14.32 9.143 14.2653 9.268 14.2145 9.393C14.4763 8.77581 14.8122 8.19769 15.2224 7.66644C15.1403 7.7719 15.0583 7.87737 14.9763 7.98284C15.3825 7.4594 15.8552 6.98675 16.3786 6.5805C16.2731 6.66253 16.1677 6.74456 16.0622 6.82659C16.5935 6.42034 17.1716 6.0805 17.7888 5.81878C17.6638 5.86956 17.5388 5.92425 17.4138 5.97503C18.0466 5.71331 18.7067 5.53362 19.3864 5.43987C19.2497 5.4594 19.1091 5.47893 18.9724 5.49456C19.656 5.40472 20.3435 5.40472 21.0271 5.49456C20.8903 5.47503 20.7497 5.4555 20.613 5.43987C21.2927 5.53362 21.9528 5.71331 22.5856 5.97503C22.4606 5.92425 22.3356 5.86956 22.2106 5.81878C22.8278 6.0805 23.406 6.41644 23.9372 6.82659C23.8317 6.74456 23.7263 6.66253 23.6208 6.5805C24.1442 6.98675 24.6169 7.4594 25.0231 7.98284C24.9411 7.87737 24.8591 7.7719 24.7771 7.66644C25.1833 8.19769 25.5231 8.77581 25.7849 9.393C25.7341 9.268 25.6794 9.143 25.6286 9.018C25.8903 9.65081 26.07 10.311 26.1638 10.9907C26.1442 10.8539 26.1247 10.7133 26.1091 10.5766C26.1521 10.9164 26.1716 11.2602 26.1755 11.6039C26.1794 12.4203 26.8903 13.2055 27.738 13.1664C28.5817 13.1274 29.3044 12.4789 29.3005 11.6039C29.2927 9.73284 28.7302 7.81878 27.6286 6.29534C27.3317 5.88518 27.0153 5.48284 26.6638 5.11956C26.3083 4.75237 25.9177 4.43597 25.5114 4.12737C24.7731 3.56487 23.9489 3.15081 23.0739 2.8305C19.5466 1.53753 15.2927 2.68987 12.906 5.59612C12.5778 5.99456 12.2653 6.40862 11.9997 6.85394C11.7341 7.29534 11.527 7.76409 11.3356 8.24065C10.9763 9.12347 10.7927 10.061 10.7184 11.0102C10.5739 12.8696 11.0583 14.811 12.027 16.4047C12.9606 17.9438 14.3708 19.2641 16.0192 20.0102C16.5036 20.2289 16.9997 20.4321 17.5153 20.5766C18.0271 20.7172 18.5466 20.7953 19.0739 20.8578C20.0349 20.9711 21.0153 20.893 21.9646 20.7016C25.57 19.9672 28.5896 16.8617 29.1482 13.2172C29.2302 12.686 29.2927 12.1547 29.2927 11.6157C29.2966 10.7992 28.57 10.0141 27.7302 10.0532C26.8864 10.0805 26.1755 10.7289 26.1755 11.6039ZM31.3591 36.0297C30.5935 36.0297 29.8278 36.0297 29.0622 36.0297C27.238 36.0297 25.4177 36.0297 23.5935 36.0297C21.3981 36.0297 19.2028 36.0297 17.0036 36.0297C15.1091 36.0297 13.2145 36.0297 11.3161 36.0297C10.4294 36.0297 9.54267 36.0375 8.65595 36.0297C8.55829 36.0297 8.46063 36.0219 8.36688 36.0102C8.5036 36.0297 8.64423 36.0492 8.78095 36.0649C8.6247 36.0414 8.47626 35.9985 8.33173 35.9399C8.45673 35.9907 8.58173 36.0453 8.70673 36.0961C8.55048 36.0297 8.40595 35.9438 8.26923 35.8383C8.3747 35.9203 8.48017 36.0024 8.58564 36.0844C8.46845 35.9867 8.35907 35.8813 8.26532 35.7641C8.34735 35.8696 8.42938 35.975 8.51142 36.0805C8.40595 35.9438 8.32392 35.7992 8.2536 35.643C8.30438 35.768 8.35907 35.893 8.40985 36.018C8.35126 35.8735 8.3122 35.7211 8.28485 35.5688C8.30438 35.7055 8.32392 35.8461 8.33954 35.9828C8.27704 35.5102 8.32001 35.0102 8.32001 34.5336C8.32001 33.975 8.32001 33.4203 8.32001 32.8617C8.32001 32.4438 8.34345 32.0297 8.39813 31.6157C8.3786 31.7524 8.35907 31.893 8.34345 32.0297C8.45282 31.2289 8.66376 30.4438 8.98017 29.6977C8.92939 29.8227 8.8747 29.9477 8.82392 30.0727C9.1286 29.3617 9.51923 28.6938 9.99189 28.0805C9.90986 28.186 9.82782 28.2914 9.74579 28.3969C10.2184 27.7914 10.7614 27.2446 11.3708 26.7719C11.2653 26.8539 11.1599 26.936 11.0544 27.018C11.6677 26.5453 12.3356 26.1547 13.0466 25.85C12.9216 25.9008 12.7966 25.9555 12.6716 26.0063C13.4177 25.6938 14.1989 25.4789 15.0036 25.3696C14.8669 25.3891 14.7263 25.4086 14.5895 25.4242C15.1677 25.35 15.7419 25.3461 16.3239 25.3461C17.0388 25.3461 17.7536 25.3461 18.4685 25.3461C20.1364 25.3461 21.8044 25.3461 23.4724 25.3461C24.1169 25.3461 24.7575 25.3422 25.4021 25.4242C25.2653 25.4047 25.1247 25.3852 24.988 25.3696C25.7888 25.4789 26.5739 25.6899 27.32 26.0063C27.195 25.9555 27.07 25.9008 26.945 25.85C27.656 26.1547 28.3239 26.5453 28.9372 27.018C28.8317 26.936 28.7263 26.8539 28.6208 26.7719C29.2263 27.2446 29.7732 27.7875 30.2458 28.3969C30.1638 28.2914 30.0817 28.186 29.9997 28.0805C30.4724 28.6938 30.863 29.3617 31.1677 30.0727C31.1169 29.9477 31.0622 29.8227 31.0114 29.6977C31.3239 30.4438 31.5388 31.225 31.6482 32.0297C31.6286 31.893 31.6091 31.7524 31.5935 31.6157C31.6677 32.2055 31.6716 32.7914 31.6716 33.3852C31.6716 34.0297 31.6716 34.6742 31.6716 35.3188C31.6716 35.5414 31.6794 35.7641 31.6521 35.9828C31.6716 35.8461 31.6911 35.7055 31.7068 35.5688C31.6833 35.725 31.6403 35.8735 31.5817 36.018C31.6325 35.893 31.6872 35.768 31.738 35.643C31.6716 35.7992 31.5857 35.9438 31.4802 36.0805C31.5622 35.975 31.6443 35.8696 31.7263 35.7641C31.6286 35.8813 31.5232 35.9907 31.406 36.0844C31.5114 36.0024 31.6169 35.9203 31.7224 35.8383C31.5857 35.9438 31.4411 36.0258 31.2849 36.0961C31.4099 36.0453 31.5349 35.9907 31.6599 35.9399C31.5153 35.9985 31.363 36.0375 31.2107 36.0649C31.3474 36.0453 31.488 36.0258 31.6247 36.0102C31.5388 36.0219 31.4489 36.0258 31.3591 36.0297C30.9567 36.0336 30.5427 36.2016 30.2536 36.4867C29.9841 36.7563 29.7771 37.2016 29.7966 37.5922C29.8357 38.4282 30.4841 39.1664 31.3591 39.1547C32.8786 39.1313 34.2146 38.1391 34.6599 36.6821C34.8357 36.1039 34.7966 35.4828 34.7966 34.8891C34.7966 33.5297 34.8396 32.1821 34.6052 30.8344C34.2614 28.8617 33.2693 27.0063 31.9099 25.5492C30.5505 24.0922 28.7224 23.0219 26.7888 22.5453C25.6794 22.2719 24.5622 22.2289 23.4294 22.2289C22.2653 22.2289 21.1052 22.2289 19.9411 22.2289C18.7927 22.2289 17.6481 22.2289 16.4997 22.2289C15.3395 22.2289 14.1872 22.2836 13.0583 22.5844C11.1403 23.0922 9.33564 24.1742 8.0036 25.643C6.65985 27.1235 5.68719 28.9828 5.37079 30.9672C5.15985 32.2992 5.20282 33.6352 5.20282 34.9789C5.20282 35.5961 5.16766 36.2407 5.39032 36.8305C5.67938 37.5883 6.14032 38.186 6.8161 38.6352C7.34345 38.9828 8.01142 39.1508 8.63642 39.1586C8.9411 39.1625 9.24579 39.1586 9.55048 39.1586C10.3317 39.1586 11.1091 39.1586 11.8903 39.1586C12.9997 39.1586 14.1052 39.1586 15.2145 39.1586C16.5036 39.1586 17.7927 39.1586 19.0817 39.1586C20.406 39.1586 21.7263 39.1586 23.0505 39.1586C24.2614 39.1586 25.4685 39.1586 26.6794 39.1586C27.6286 39.1586 28.5778 39.1586 29.5232 39.1586C30.0661 39.1586 30.6091 39.1586 31.1521 39.1586C31.2224 39.1586 31.2927 39.1586 31.363 39.1586C32.1794 39.1586 32.9646 38.4399 32.9255 37.5961C32.8864 36.7446 32.238 36.0297 31.3591 36.0297Z" fill="#4D44B5"/>
</svg>