<svg xmlns="http://www.w3.org/2000/svg" width="40" height="41" viewBox="0 0 40 41" fill="none">
<path d="M33.3335 14.0623L23.3335 5.29568C22.4168 4.47576 21.23 4.02246 20.0002 4.02246C18.7703 4.02246 17.5835 4.47576 16.6668 5.29568L6.66682 14.0623C6.13744 14.5358 5.71499 15.1166 5.42761 15.7661C5.14023 16.4156 4.99451 17.1188 5.00016 17.829V32.3957C5.00016 33.7218 5.52694 34.9935 6.46462 35.9312C7.40231 36.8689 8.67408 37.3957 10.0002 37.3957H30.0002C31.3262 37.3957 32.598 36.8689 33.5357 35.9312C34.4734 34.9935 35.0002 33.7218 35.0002 32.3957V17.8123C35.0034 17.105 34.8566 16.4049 34.5693 15.7585C34.282 15.1121 33.8608 14.5339 33.3335 14.0623ZM23.3335 34.0623H16.6668V25.729C16.6668 25.287 16.8424 24.8631 17.155 24.5505C17.4675 24.2379 17.8915 24.0623 18.3335 24.0623H21.6668C22.1089 24.0623 22.5328 24.2379 22.8453 24.5505C23.1579 24.8631 23.3335 25.287 23.3335 25.729V34.0623ZM31.6668 32.3957C31.6668 32.8377 31.4912 33.2616 31.1787 33.5742C30.8661 33.8868 30.4422 34.0623 30.0002 34.0623H26.6668V25.729C26.6668 24.4029 26.14 23.1312 25.2024 22.1935C24.2647 21.2558 22.9929 20.729 21.6668 20.729H18.3335C17.0074 20.729 15.7356 21.2558 14.798 22.1935C13.8603 23.1312 13.3335 24.4029 13.3335 25.729V34.0623H10.0002C9.55813 34.0623 9.13421 33.8868 8.82165 33.5742C8.50909 33.2616 8.33349 32.8377 8.33349 32.3957V17.8123C8.33379 17.5757 8.38448 17.3418 8.48219 17.1263C8.57989 16.9108 8.72238 16.7185 8.90016 16.5623L18.9002 7.81235C19.2043 7.54515 19.5953 7.39779 20.0002 7.39779C20.405 7.39779 20.796 7.54515 21.1002 7.81235L31.1002 16.5623C31.2779 16.7185 31.4204 16.9108 31.5181 17.1263C31.6158 17.3418 31.6665 17.5757 31.6668 17.8123V32.3957Z" fill="#4D44B5"/>
</svg>