<svg xmlns="http://www.w3.org/2000/svg" width="40" height="41" viewBox="0 0 40 41" fill="none">
<g clip-path="url(#clip0_74_1633)">
<path d="M23.883 34.0622H23.533C22.8276 33.9922 22.1629 33.6992 21.6354 33.2256C21.1079 32.7521 20.7451 32.1227 20.5997 31.4289L16.133 10.7289L11.533 21.3956C11.4029 21.6937 11.1884 21.9472 10.9159 22.1249C10.6435 22.3026 10.325 22.3967 9.99967 22.3956H4.99967C4.55765 22.3956 4.13372 22.22 3.82116 21.9074C3.5086 21.5948 3.33301 21.1709 3.33301 20.7289C3.33301 20.2869 3.5086 19.8629 3.82116 19.5504C4.13372 19.2378 4.55765 19.0622 4.99967 19.0622H8.89967L13.083 9.41223C13.3646 8.76466 13.8446 8.22326 14.4537 7.86608C15.0629 7.50889 15.7697 7.35439 16.4724 7.42484C17.175 7.49528 17.8371 7.78704 18.3632 8.25805C18.8893 8.72906 19.2522 9.35498 19.3997 10.0456L23.8663 30.7289L28.4663 20.0956C28.5914 19.7912 28.8037 19.5306 29.0766 19.3468C29.3494 19.1629 29.6706 19.0639 29.9997 19.0622H34.9997C35.4417 19.0622 35.8656 19.2378 36.1782 19.5504C36.4907 19.8629 36.6663 20.2869 36.6663 20.7289C36.6663 21.1709 36.4907 21.5948 36.1782 21.9074C35.8656 22.22 35.4417 22.3956 34.9997 22.3956H31.0997L26.9163 32.0456C26.6609 32.6397 26.2381 33.1468 25.6995 33.5049C25.1609 33.8629 24.5298 34.0566 23.883 34.0622Z" fill="#C1BBEB"/>
</g>
<defs>
<clipPath id="clip0_74_1633">
<rect width="40" height="40" fill="white" transform="translate(0 0.729004)"/>
</clipPath>
</defs>
</svg>