<svg width="46" height="47" viewBox="0 0 46 47" fill="none" xmlns="http://www.w3.org/2000/svg">
<g id="Group 1">
<path id="Vector" d="M41.8483 46.2639H38.0439V41.3156C38.0409 39.1291 37.0379 37.0329 35.2549 35.4869C33.4719 33.9408 31.0546 33.071 28.533 33.0684H17.12C14.5984 33.071 12.1811 33.9408 10.3981 35.4869C8.61508 37.0329 7.61207 39.1291 7.60905 41.3156V46.2639H3.80469V41.3156C3.80872 38.2545 5.21286 35.3197 7.70909 33.1552C10.2053 30.9906 13.5898 29.773 17.12 29.7695H28.533C32.0632 29.773 35.4477 30.9906 37.9439 33.1552C40.4401 35.3197 41.8443 38.2545 41.8483 41.3156V46.2639Z" fill="white"/>
<path id="Vector_2" d="M1.90218 6.67676C1.39769 6.67676 0.913864 6.85054 0.557136 7.15987C0.200408 7.4692 0 7.88874 0 8.3262V23.1712H3.80436V8.3262C3.80436 7.88874 3.60395 7.4692 3.24723 7.15987C2.8905 6.85054 2.40667 6.67676 1.90218 6.67676Z" fill="white"/>
<path id="Vector_3" d="M0 0.0795898V3.37847H9.5109V14.9246C9.5109 17.9868 10.9138 20.9236 13.4109 23.0889C15.908 25.2542 19.2947 26.4706 22.8262 26.4706C26.3576 26.4706 29.7444 25.2542 32.2415 23.0889C34.7386 20.9236 36.1414 17.9868 36.1414 14.9246V3.37847H45.6523V0.0795898H0ZM13.3153 3.37847H32.3371V8.3268H13.3153V3.37847ZM22.8262 23.1718C20.3037 23.1718 17.8846 22.3029 16.1009 20.7562C14.3173 19.2096 13.3153 17.1119 13.3153 14.9246V11.6257H32.3371V14.9246C32.3371 17.1119 31.335 19.2096 29.5514 20.7562C27.7677 22.3029 25.3486 23.1718 22.8262 23.1718Z" fill="white"/>
</g>
</svg>
