<svg width="185" height="184" viewBox="0 0 185 184" fill="none" xmlns="http://www.w3.org/2000/svg">
<g id="Group">
<path id="Vector" fill-rule="evenodd" clip-rule="evenodd" d="M88.177 26.0401C88.5263 26.1468 90.0103 26.8161 90.2528 26.8161C90.3489 26.8012 90.4364 26.7524 90.4996 26.6786C90.5628 26.6047 90.5976 26.5107 90.5976 26.4136C90.5976 26.3164 90.5628 26.2224 90.4996 26.1486C90.4364 26.0748 90.3489 26.026 90.2528 26.011C90.1364 26.011 89.6709 25.7879 89.3605 25.6618C88.1771 25.1671 88.0509 25.1186 87.8278 25.3708C87.7754 25.4326 87.7425 25.5086 87.7335 25.5892C87.7245 25.6697 87.7397 25.7511 87.7772 25.823C87.8147 25.8949 87.8727 25.9539 87.944 25.9926C88.0152 26.0313 88.0964 26.0478 88.177 26.0401ZM98.6531 34.7701C98.0073 35.3907 97.2066 35.8262 96.3348 36.0311C96.3348 36.0311 95.4424 36.1863 96.0341 36.4385C96.4615 36.6334 96.9473 36.6577 97.3921 36.5064C98.4882 36.1863 99.0702 35.2745 98.9732 34.7798C98.8083 34.5276 98.8859 34.5276 98.6531 34.7701ZM109.915 163.188C110.207 164.101 110.604 164.977 111.098 165.798C113.659 170.551 115.832 173.664 115.725 173.664H116.055C116.113 172.627 110.613 163.082 109.915 163.188ZM117.432 161.278C117.17 161.278 116.879 160.88 117.743 162.655C118.936 165.09 121.526 169.755 123.32 171.773C124.765 172.879 118.945 163.334 117.432 161.278ZM139.529 166.613C139.209 166.7 139.18 166.613 139.296 166.923C140.388 170.061 141.826 173.067 143.583 175.886C144.389 176.856 141.905 170.415 139.529 166.613ZM156.678 161.763C156.281 161.675 156.193 161.539 157.163 163.703C158.133 165.866 160.927 170.861 161.325 170.851C161.402 170.851 161.441 170.803 161.47 170.716C160.176 167.579 158.571 164.579 156.678 161.763ZM145.669 30.7931C145.766 30.7931 176.903 29.3672 177.369 29.1344C177.892 28.7464 177.766 29.3284 177.912 16.3304C177.912 13.7114 178.057 4.38001 177.98 3.95321C177.766 3.26451 177.078 3.27421 176.214 3.24511C169.812 3.06081 146.552 4.60311 141.43 4.81651C141.178 4.81651 140.906 4.81651 140.906 5.17541C140.8 5.17541 142.846 30.2693 142.846 30.3954C143.108 31.0841 143.613 30.8901 145.669 30.7931ZM176.466 4.79711C176.466 5.87381 176.156 27.6697 176.146 27.6891C176.137 27.7085 144.204 29.3866 144.136 29.4836C144.136 29.2799 142.255 11.6065 141.595 5.46641C146.29 5.44701 172.228 4.57401 176.466 4.79711Z" fill="#03545A"/>
<path id="Vector_2" fill-rule="evenodd" clip-rule="evenodd" d="M159.21 18.2801C159.453 18.5808 160.248 17.863 161.567 16.9609C163.74 15.4768 167.649 12.7511 169.754 11.1409C171.219 8.67713 167.203 11.5871 166.747 11.9363C164.904 13.3719 159.957 17.3295 159.385 17.8242C158.415 16.9318 149.403 10.7723 149.306 10.6753C148.424 10.5007 148.181 11.0051 148.637 11.6453C151.353 13.498 159.055 18.0667 159.21 18.2801ZM168.192 54.1701C159.055 54.1701 152.672 58.9522 151.751 68.8753C151.004 76.9263 155.058 82.1643 160.267 84.308C164.914 86.248 170.249 86.7233 175.089 84.5796C177.929 83.2945 180.437 81.3767 182.422 78.973C188.863 70.7474 182.81 54.1701 168.192 54.1701ZM176.816 79.943C168.871 86.054 157.91 82.0479 155.592 74.7729C154.166 70.3109 155.476 63.2978 158.89 60.1453C162.304 56.9928 169.007 56.0034 173.372 57.6524C180.492 60.3393 186.205 72.7165 176.816 79.943ZM48.7852 22.1601C48.7173 20.5402 48.6494 19.124 48.5912 17.9503C49.0762 18.1043 49.507 18.3937 49.8328 18.7845C50.6088 20.3365 51.831 19.5799 51.831 18.5226C51.5885 17.2131 50.153 16.214 48.5137 15.9327C48.4652 14.4389 48.5136 14.7978 48.1062 14.565C47.6309 14.7784 47.7377 14.6911 47.631 15.8648C46.7119 15.8265 45.8055 16.0903 45.0505 16.6158C44.2956 17.1413 43.7335 17.8996 43.4502 18.7748C42.4803 21.5781 44.9149 22.3735 47.2235 23.2756C47.2235 24.8858 47.1363 26.7773 47.1266 29.018C46.645 29.0808 46.1554 29.0182 45.7051 28.8364C45.2548 28.6546 44.859 28.3596 44.556 27.9801C43.5181 26.1953 43.4114 26.7676 43.586 27.7279C43.9352 29.309 45.4678 30.0656 47.1362 30.1141C47.1362 31.7437 46.9519 32.5973 48.5427 32.4615C49.1829 32.0153 49.1829 32.1123 49.1053 29.8716C50.7058 29.406 52.0153 28.3196 52.1608 26.7288C52.3063 24.3523 50.5506 23.0428 48.7852 22.1601ZM47.2429 21.5199C46.4303 21.2805 45.6945 20.8323 45.1089 20.2201C44.9052 19.7836 45.3515 18.9882 45.6522 18.6293C45.8763 18.3631 46.1574 18.1508 46.4748 18.008C46.7922 17.8653 47.1376 17.7959 47.4854 17.8048C47.4175 18.736 47.3496 19.9582 47.2429 21.5199ZM48.9987 28.6494C48.9502 27.0004 48.8919 25.4581 48.8337 24.0322C49.6038 24.3635 50.2204 24.9732 50.5603 25.7394C51.1229 27.1459 50.3954 28.0674 49.0374 28.6494H48.9987ZM99.9527 26.5736C100.705 26.1638 101.512 25.8633 102.349 25.6812C102.453 25.6594 102.544 25.597 102.602 25.5079C102.66 25.4187 102.681 25.3101 102.659 25.2059C102.637 25.1017 102.575 25.0105 102.486 24.9523C102.397 24.8941 102.288 24.8737 102.184 24.8955C102.184 24.8955 99.1476 25.6424 99.2737 26.3602C99.2884 26.4313 99.3218 26.4971 99.3705 26.551C99.4192 26.6048 99.4813 26.6446 99.5506 26.6664C99.6198 26.6882 99.6936 26.691 99.7643 26.6747C99.835 26.6584 99.9 26.6235 99.9527 26.5736Z" fill="#03545A"/>
<path id="Vector_3" fill-rule="evenodd" clip-rule="evenodd" d="M169.686 61.8038C168.628 61.2509 169.899 64.0541 168.987 70.3785C160.257 70.3785 161.703 69.9614 160.859 70.3785C160.044 71.2806 160.51 72.1827 161.712 72.2409C162.527 72.2409 169.24 72.241 169.957 71.9402C170.675 71.6395 170.598 70.6502 170.617 69.8063C170.596 67.533 170.414 65.264 170.074 63.0163C169.957 62.2403 169.928 61.9784 169.686 61.8038ZM167.62 158.697C166.63 158.09 165.571 157.602 164.467 157.242C162.533 156.56 160.511 156.161 158.463 156.059C148.375 155.661 144.766 163.188 134.717 161.529C128.897 160.559 123.368 157.291 119.876 156.379C114.502 154.963 109.895 156.98 104.89 159.531C102.639 160.676 98.4199 164.284 98.1774 163.411C97.1201 161.529 96.8679 151.277 97.0037 137.687C102.31 138.172 113.135 136.503 121.71 132.284C125.957 130.136 129.427 126.714 131.633 122.497C132.394 121.165 132.996 119.749 133.427 118.277C136.822 106.453 136.066 101.263 136.25 95.7829C142.846 88.0811 143.04 65.3055 131.972 50.736C129.479 47.3798 123.077 43.3156 120.963 42.5299C121.267 42.3269 121.515 42.0509 121.684 41.7272C121.854 41.4035 121.939 41.0425 121.933 40.6772C122.039 38.9894 121.7 38.485 123.281 37.5732C123.892 37.2863 124.439 36.8807 124.891 36.3801C125.341 35.7236 125.706 35.0132 125.978 34.2654C127.219 30.24 123.242 30.2982 124.309 23.6731C124.475 22.7386 124.521 21.7867 124.445 20.8407C124.414 20.0313 124.125 19.2531 123.62 18.6194C123.043 17.9629 122.551 17.2361 122.156 16.4563C121.448 14.1574 121.7 12.1301 120.74 10.1998C120.079 8.92823 119.278 7.73424 118.353 6.63985C115.899 3.82685 113.067 4.49615 109.74 2.94415C108.579 2.3295 107.377 1.7979 106.141 1.35335C103.486 0.762268 100.747 0.644057 98.0513 1.00415C94.9958 1.50855 89.9227 4.40885 87.0127 8.27915C86.3913 9.08295 85.8365 9.93615 85.354 10.8303C83.9923 13.5516 83.0723 16.4722 82.6283 19.4827C82.4149 21.0929 82.9484 20.9086 82.4052 22.4994C81.3382 22.6061 81.3091 22.6546 81.2703 22.8583C81.3912 23.3565 81.5635 23.8409 81.7844 24.3036C81.474 25.225 81.1636 26.1466 81.0763 26.4667C80.7174 28.4067 81.8329 30.3467 80.9017 31.9181C80.1354 33.1985 78.1275 33.8581 77.7104 35.4683C77.1478 37.5926 78.3118 39.6199 79.8444 41.23C79.979 41.4091 80.1555 41.5523 80.3585 41.6472C74.7325 43.7812 71.3375 48.2334 71.3666 48.5147L66.0122 47.8164C65.6727 47.8164 66.1092 47.3314 65.5951 55.4697C65.4137 55.2999 65.1742 55.2061 64.9258 55.2078C63.1701 55.2078 62.5687 59.146 62.4135 60.892C62.1807 63.414 62.171 65.742 64.2662 67.2163C64.4327 67.3328 64.6116 67.4304 64.7997 67.5073C64.5281 71.4746 64.2371 75.9173 63.9364 80.6605C59.7436 79.6237 55.4417 79.0929 51.1227 79.0795C47.3658 79.0178 43.6319 79.6763 40.1229 81.0194C31.3929 84.104 24.7581 89.1578 19.5007 98.6152C19.4425 98.7122 16.3482 104.435 15.4655 106.569C14.1754 109.654 13.7001 112.894 16.9496 113.66C17.8531 113.845 18.7903 113.775 19.6559 113.456C18.3852 119.16 14.6119 141.344 14.6022 141.47C13.0696 140.956 2.53537 137.735 1.07067 138.356C0.914824 138.425 0.791467 138.551 0.726388 138.708C0.661309 138.865 0.659546 139.042 0.721467 139.2C1.44897 141.47 14.7768 149.734 17.8711 151.17C19.2291 151.791 19.2097 151.509 19.6656 150.733C23.6135 144.079 29.7536 128.656 34.0216 121.769C32.7315 135.97 37.63 155.719 41.7816 169.406C39.8416 170.609 33.4396 173.684 31.2765 175.847C31.1892 175.944 28.2113 178.078 30.1901 178.97C30.84 179.329 33.3329 179.203 36.2817 178.892C37.5427 178.747 49.5513 177.36 50.1527 176.39C50.6183 175.779 49.9781 172.781 49.7938 171.792C49.2479 168.374 49.0238 164.912 49.1245 161.452C49.4058 148.958 54.9445 134.748 59.0379 129.005C60.1819 130.282 61.0299 131.796 61.5211 133.438C61.2495 148.425 61.5987 161.2 63.1701 167.262C64.1807 171.725 66.8868 175.621 70.7167 178.126C80.8338 184.819 99.2832 184.014 110.487 180.697C114.997 179.358 120.526 176.904 125.56 177.35C129.392 177.68 131.914 179.61 138.452 180.813C147.89 182.54 151.062 179.3 156.445 176.933C162.265 174.401 166.349 173.121 172.334 175.313C174.407 176.174 176.397 177.223 178.28 178.446C179.318 179.164 179.25 179.348 179.638 179.329C179.714 179.321 179.785 179.29 179.843 179.239C179.9 179.189 179.94 179.122 179.958 179.048C179.958 178.776 180.763 180.27 167.62 158.697ZM34.0798 121.1C30.5005 126.512 25.2819 138.017 21.6735 145.35C19.5601 144.156 17.439 142.976 15.3103 141.809C15.6207 140.364 19.9081 114.31 20.0827 113.34C23.2934 112.137 26.6205 109.179 31.3541 112.525C32.6248 113.427 33.8858 114.814 35.2341 115.998C34.8252 116.803 34.5563 117.672 34.4387 118.568C34.2932 119.364 34.1671 120.198 34.0701 121.061L34.0798 121.1ZM48.6298 168.533C46.5982 168.615 44.5785 168.885 42.5964 169.338C39.2014 157.32 31.9749 133.38 34.914 118.423C35.0692 117.608 35.205 117.094 35.302 116.754C35.5251 116.066 35.5251 116.221 35.9228 116.521C40.152 119.752 42.6255 117.608 46.4667 118.985C47.5989 119.406 48.6566 120.006 49.5998 120.76C50.8161 121.849 51.7202 123.242 52.2188 124.796C52.4356 125.445 52.8408 126.016 53.3828 126.435C55.5071 128.297 57.1658 127.453 58.8633 128.831C58.7081 128.86 46.6316 146.562 48.5813 168.504L48.6298 168.533ZM124.057 130.092C120.352 132.73 111.36 136.329 101.223 137.182C98.8758 137.386 97.5469 137.357 97.0522 137.464C97.0522 135.97 97.0522 134.437 97.1201 132.876C98.3326 132.779 101.398 132.294 101.854 132.216C107.266 131.246 115.278 129.306 119.314 125.552C120.284 126.406 120.284 126.464 120.546 126.396C121.776 125.32 122.868 124.095 123.795 122.749C127.112 118.073 129.44 112.205 129.925 103.562C129.925 103.485 130.032 101.263 130.013 100.487C132.295 99.538 134.327 98.074 135.949 96.2096C135.29 108.344 134.543 122.545 124.008 130.063L124.057 130.092ZM96.897 67.7111C95.7499 67.306 94.6453 66.7894 93.599 66.1688C93.4924 66.0708 93.4233 65.9386 93.4038 65.7952C93.3844 65.6517 93.4156 65.5059 93.4923 65.383C94.2392 64.6458 96.0628 65.1793 97.0328 65.5867C97.1977 65.6546 97.4596 65.771 97.5954 65.4413C97.7312 65.1115 97.5954 65.1309 96.6254 64.5294C96.315 64.3354 95.539 63.8407 95.0055 63.443C94.6566 63.2351 94.3818 62.923 94.2198 62.5507C94.1519 62.2305 94.4526 61.7747 95.1898 61.8038C96.5514 62.0639 97.8237 62.6683 98.8855 63.5595C98.9191 63.5968 98.9603 63.6267 99.0062 63.6472C99.0522 63.6677 99.1019 63.6782 99.1522 63.6782C99.2025 63.6782 99.2523 63.6677 99.2982 63.6472C99.3442 63.6267 99.3853 63.5968 99.419 63.5595C99.6615 63.22 99.5936 61.1927 100.292 59.7959C100.428 59.5922 100.534 59.34 100.748 59.3302C101.621 59.3302 101.66 61.5806 101.64 62.4051C101.64 64.9174 101.165 64.6749 101.815 65.383C102.577 66.1136 103.412 66.7637 104.308 67.3231C104.007 67.7207 104.832 66.6731 100.234 72.3476C99.71 71.8238 99.0213 70.1069 98.4975 70.2815C97.0522 71.009 92.9685 69.6413 93.1237 68.458C93.2304 67.6141 95.0637 67.9438 95.9755 68.0796C96.8873 68.2154 96.8 68.2251 96.9455 68.0796C96.9695 68.0504 96.9871 68.0165 96.9973 67.98C97.0074 67.9435 97.0098 67.9054 97.0043 67.8679C96.9989 67.8305 96.9856 67.7946 96.9655 67.7626C96.9453 67.7305 96.9187 67.7031 96.8873 67.682L96.897 67.7111ZM92.4738 33.3537C93.1508 33.7117 93.8869 33.945 94.6466 34.0424C94.8503 33.8484 94.8406 33.9259 94.6466 33.7222C93.9776 33.5012 93.3487 33.1737 92.7842 32.7522C92.8715 32.1896 94.2489 28.5619 94.5787 27.4561C94.7824 26.7771 94.8406 26.6025 95.0055 25.9817C95.503 25.9527 96.0018 25.9527 96.4993 25.9817C96.5063 26.9523 96.6566 27.9165 96.9455 28.8432C97.7797 30.2303 101.563 30.3176 103.173 30.2497C104.783 30.1818 105.433 30.1042 106.083 29.1827C105.317 32.0333 104.88 34.9625 104.783 37.9127C104.323 38.7676 103.685 39.5138 102.912 40.1012C102.139 40.6885 101.249 41.1032 100.302 41.3174C95.5196 42.074 92.9976 41.0264 90.2816 37.2434C88.91 35.325 88.0276 33.1007 87.7111 30.7638C89.4588 30.8494 91.2048 30.5617 92.8327 29.9199C91.7948 32.7038 91.9209 33.0142 92.4738 33.3537ZM97.3238 22.9553C98.4878 22.7322 104.579 23.0135 107.897 23.0814C107.518 24.0514 107.014 25.6519 106.51 27.4852C106.229 28.2463 105.823 28.9546 105.307 29.5804C104.589 29.9878 99.9622 29.9005 98.158 28.9208C97.2947 28.4649 97.2947 28.397 97.2947 22.9553H97.3238ZM101.999 41.5599L101.912 41.686C101.051 43.1248 100.078 44.4935 99.0019 45.7794C98.643 45.2458 97.0619 42.8694 96.6836 42.1904C97.9089 42.3116 99.1447 42.2725 100.36 42.074C100.93 41.9894 101.483 41.8159 101.999 41.5599ZM90.3592 43.4222C90.5919 46.044 91.0528 48.6405 91.7366 51.1822C90.4996 50.8756 89.2463 50.6392 87.9827 50.4741C88.4677 49.2132 90.1846 43.8103 90.3398 43.4029L90.3592 43.4222ZM91.0188 41.9382C91.7003 41.6538 92.3504 41.2995 92.9588 40.8809C93.9457 41.5525 95.0743 41.9873 96.2568 42.1516C96.8126 43.5527 97.5012 44.8974 98.3132 46.1674C93.0849 51.095 92.8521 51.4053 93.3565 51.3278C94.3265 51.1241 98.0222 47.5448 98.7012 46.8852C99.5257 47.7194 103.027 52.259 103.697 53.0156C104.036 53.2872 104.24 52.9476 104.57 52.6372C105.957 51.3374 106.616 50.7651 106.966 50.4935C98.8661 73.2206 103.541 62.8029 101.795 59.437C101.698 59.1686 101.504 58.9466 101.25 58.8154C100.997 58.6842 100.703 58.6533 100.428 58.7288C100.191 58.8533 99.9831 59.0252 99.8162 59.2338C99.6493 59.4425 99.5272 59.6833 99.4578 59.9413C99.6033 55.8479 99.6809 53.1514 99.6324 52.3851C99.6324 52.1911 100.234 52.2589 92.047 51.2016C92.0567 51.0853 91.0188 42.0158 90.9994 41.9188L91.0188 41.9382ZM100.059 72.6677C99.7003 73.1527 99.3802 73.6377 99.0892 73.987C99.0892 73.0751 99.1862 72.2604 99.2347 71.562C99.4374 71.9684 99.7099 72.3361 100.04 72.6484L100.059 72.6677ZM98.9728 76.7224C104.327 92.3878 111.786 105.822 127.646 101.292C128.335 101.098 129.004 100.875 129.673 100.613C129.673 109.567 126.967 119.625 120.419 125.736C113.47 119.24 105.881 113.462 97.77 108.49C97.9834 98.3922 98.5169 85.0644 98.9534 76.7029L98.9728 76.7224ZM113.523 43.1216C114.786 43.2938 116.03 43.5861 117.238 43.9945C117.7 44.1724 118.211 44.1724 118.673 43.9945C119.222 43.7926 119.739 43.5116 120.206 43.1604C121.904 43.3156 127.665 47.2537 130.197 49.7467C133.107 52.6567 136.415 58.6221 138.364 65.451C140.983 74.9958 141.633 90.7971 133.417 97.4609C128.868 101.147 121.583 102.311 116.763 100.555C107.247 97.1893 102.552 84.754 99.3026 75.2092C99.5839 74.084 105.239 67.294 105.937 66.4792C112.592 66.3046 125.396 75.9561 127.035 79.5742L127.326 79.4384C125.871 76.1986 115.987 68.1961 108.838 66.2755C109.061 64.3937 109.449 59.0392 109.449 58.9422C111.719 58.7773 114.202 59.1072 114.299 58.4669C114.357 57.3321 112.359 45.5368 111.951 43.4126C112.434 43.2001 112.957 43.0942 113.484 43.1021L113.523 43.1216ZM110.157 44.1789C110.662 44.0004 111.157 43.7964 111.641 43.5677C111.641 43.6647 113.435 57.9916 113.445 58.1178C108.391 58.3117 108.692 57.788 108.644 59.728C108.644 59.8153 108.508 65.4121 108.488 66.2463C108.013 66.1299 105.937 65.7225 105.578 65.9845C105.423 66.1396 105.103 66.4986 104.676 66.9545C104.25 66.6344 103.309 65.9845 102.668 65.3928C103.367 63.8699 101.65 67.8177 110.118 44.1595L110.157 44.1789ZM107.247 49.9212C106.134 50.6179 105.073 51.3961 104.075 52.2493C103.26 51.1435 100.728 47.8163 99.5063 46.5069C100.624 45.3102 101.509 43.9154 102.116 42.3941C102.265 42.089 102.364 41.7612 102.407 41.4241C103.358 40.8908 104.19 40.1678 104.851 39.2998C105.093 42.3358 106.257 44.5863 109.235 44.3923C108.75 45.4981 108.12 47.244 107.179 49.9018L107.247 49.9212ZM86.8769 18.8813C87.488 19.9192 87.4589 20.0938 88.0506 20.4042C88.7229 20.7197 89.4621 20.8662 90.204 20.831C91.562 20.6564 92.435 19.3275 93.7251 19.1723C93.9773 19.1723 96.897 21.1705 98.5751 20.637C100.253 20.1035 101.116 18.8037 102.329 19.3954C103.541 19.9871 104.085 21.6167 106.704 20.7534C107.528 20.395 108.312 19.9495 109.041 19.4245C108.859 20.4425 108.586 21.4423 108.227 22.4121C105.957 22.2569 99.4966 22.0241 97.7021 22.1502C96.8388 22.2084 96.4023 22.1502 96.4702 24.3521C95.7034 24.29 94.9321 24.3161 94.1713 24.4297C94.1811 24.0214 94.1617 23.6129 94.1131 23.2075C93.9967 22.4121 93.793 22.3248 93.2983 22.2375C92.8036 22.1502 89.7287 22.2375 86.7508 22.286C86.5865 21.143 86.5996 19.9815 86.7896 18.8425L86.8769 18.8813ZM93.3177 23.0717C93.4928 25.0343 93.4014 27.0117 93.0461 28.9499C91.9597 30.2788 86.0039 30.7541 85.2085 30.0557C84.2967 28.8335 82.6089 24.4491 82.2015 23.2657C83.9766 23.2075 93.2304 22.7613 93.2304 23.0329L93.3177 23.0717ZM80.7174 41.7927C83.6515 42.7847 86.7915 43.0052 89.8354 42.4329C89.2049 44.1692 88.0603 48.2529 87.1873 50.3092C87.1388 50.4451 72.4918 48.4857 72.2978 48.3693C79.0781 41.2107 79.5437 42.7918 80.7174 41.7927ZM64.3729 66.9545C62.6366 65.7031 62.6075 63.5788 62.8403 61.4449C62.9134 60.3981 63.0922 59.3614 63.3738 58.3505C63.547 57.5352 63.9018 56.7693 64.4117 56.1099C64.6639 55.8286 65.0422 55.7122 65.2265 55.9935C65.2265 56.0905 65.469 56.0614 65.4884 57.2156C65.4884 59.5437 64.887 60.3682 65.4884 60.4555C65.5951 60.4555 69.8146 58.7482 70.5906 60.1256C70.9398 60.8823 69.9213 61.1927 68.7961 61.5613C66.7009 62.25 66.439 62.0948 66.4875 62.5313C66.536 62.9678 67.0695 62.5312 68.9222 62.7446C69.7079 62.8319 70.9301 63.2782 70.4936 63.9475C70.2608 64.4228 68.2432 64.6167 67.5836 64.6943C66.6136 64.8107 66.3711 64.7428 66.3517 65.1017C66.3323 65.4606 66.7979 65.4218 67.6903 65.5188C70.0668 65.7807 70.0571 66.2851 70.0959 66.3821C70.3287 67.7498 65.8376 68.0215 64.3729 66.9545ZM100.505 181.861C95.332 182.603 90.0819 182.642 84.8981 181.977C74.5385 180.784 66.5554 177.03 63.8491 167.058C59.6975 151.8 63.9946 87.8094 65.2168 67.6529C66.8076 68.167 69.2617 68.1378 70.2511 67.2842C70.4248 67.1523 70.5489 66.9657 70.6035 66.7545C70.6581 66.5433 70.6398 66.3198 70.5518 66.1202C70.4046 65.892 70.2111 65.6973 69.9838 65.5486C69.7566 65.3998 69.5006 65.3005 69.2326 65.257C68.5827 65.0824 68.9998 65.257 70.2026 64.9369C71.6964 64.5294 71.774 62.7253 69.6982 62.2209C69.1647 62.0948 69.1259 62.2208 69.4751 62.0559C70.2996 61.7649 71.3472 61.3964 71.4151 60.5137C71.4301 60.2803 71.3834 60.0471 71.2795 59.8376C71.1756 59.6281 71.0182 59.4498 70.8234 59.3205C69.6982 58.4863 67.2926 59.1362 65.9734 59.5921C65.9734 59.1944 66.4002 57.0798 65.9734 55.9352C66.2062 51.7934 66.3129 49.0289 66.245 48.1753C100.583 52.8604 99.4287 52.6276 99.225 52.6276C99.225 54.8391 99.0698 58.3118 98.8952 62.7059C97.7312 61.9299 95.5293 60.6591 94.278 61.2896C94.0615 61.3922 93.877 61.5517 93.7443 61.7511C93.6115 61.9505 93.5356 62.1823 93.5247 62.4216C93.5137 62.6609 93.5681 62.8986 93.682 63.1093C93.7959 63.32 93.9651 63.4958 94.1713 63.6176C95.1413 64.51 95.5002 64.4034 94.9376 64.3646C93.2595 64.2482 92.5999 65.16 92.8424 66.0233C92.9393 66.2477 93.0815 66.4497 93.2601 66.6166C93.4387 66.7835 93.6498 66.9118 93.8803 66.9932C95.1607 67.6432 94.9667 67.2843 93.8803 67.4201C92.5223 67.585 92.1343 68.8266 93.599 69.7578C94.3373 70.2107 95.1589 70.511 96.0153 70.641C96.8716 70.7709 97.7453 70.7279 98.5848 70.5144C98.5848 70.6114 97.2753 90.4285 96.8 116.871C96.0822 140.335 95.83 161.491 97.6148 163.916C98.4296 169.901 104.405 178.466 111.04 179.717C107.602 180.755 104.075 181.472 100.505 181.861ZM177.824 177.263C173.828 174.838 170.481 173.266 165.544 173.383C155.436 173.732 151.673 182.113 139.14 180.066C129.838 178.572 128.082 175.1 119.43 177.049C116.578 177.69 114.502 178.582 111.728 179.465C105.908 178.427 99.5645 170.23 98.061 164.207C98.061 164.207 106.529 159.434 108.867 158.387C118.644 154.225 120.943 158.193 130.517 161.2C138.762 163.799 141.468 162.373 148.637 159.114C152.74 157.242 155.921 156.262 160.442 156.97C162.728 157.317 164.941 158.041 166.989 159.114C179.095 179.038 178.338 177.583 177.824 177.263ZM35.6027 17.2032C33.7403 21.2481 33.362 27.3591 35.4475 30.9869C36.2721 32.3809 37.3322 33.6215 38.5806 34.6535C40.4837 36.0328 42.6638 36.9822 44.9701 37.4361C47.2763 37.8899 49.6535 37.8374 51.9375 37.2822C54.8316 36.4572 57.4383 34.8415 59.4647 32.6164C60.6483 31.3807 61.5276 29.886 62.0328 28.251C62.5379 26.616 62.655 24.8858 62.3747 23.1978C61.5793 16.9898 56.6226 10.3744 48.0769 10.3453C42.8777 10.3259 37.8531 12.4599 35.6027 17.2032ZM58.2037 32.956C54.1297 36.642 49.6095 37.9902 44.032 36.4964C42.6646 36.1733 41.3557 35.6399 40.152 34.9154C38.1752 33.6974 36.6025 31.9223 35.6318 29.8132C33.6142 25.2639 34.7782 18.1732 37.9598 14.6715C45.3803 6.50405 61.104 11.1407 61.8994 23.2463C62.2292 28.0381 60.6093 30.7929 58.2037 32.956Z" fill="#03545A"/>
<path id="Vector_4" fill-rule="evenodd" clip-rule="evenodd" d="M37.4655 11.1989C34.982 13.0794 33.2159 15.7524 32.4603 18.7746C29.7152 27.7374 33.2266 35.0027 39.4928 37.9903C43.9344 40.1424 49.0276 40.5273 53.7421 39.067C57.4572 37.7575 61.6379 34.6535 63.4421 31.307C66.2745 25.9817 65.547 17.4166 59.0771 11.6063C54.4405 7.50316 44.8472 5.90266 37.4655 11.1989ZM59.9113 34.4013C55.2068 38.6111 49.7942 40.2213 43.3049 38.4947C41.0502 37.9593 38.9428 36.9288 37.1357 35.478C29.3757 28.9499 30.1711 11.2959 44.8957 8.89026C58.4757 6.64956 64.5964 17.7658 64.2957 25.6131C64.2298 27.305 63.8048 28.9636 63.0489 30.4788C62.293 31.9939 61.2234 33.331 59.9113 34.4013Z" fill="#03545A"/>
</g>
</svg>
