<svg width="186" height="140" viewBox="0 0 186 140" fill="none" xmlns="http://www.w3.org/2000/svg">
<g id="Group">
<path id="Vector" fill-rule="evenodd" clip-rule="evenodd" d="M163.84 50.0957C163.996 50.4158 164.587 50.5128 164.975 50.5807C168.138 51.1433 181.844 51.4343 183.163 50.2994C184.317 49.3294 183.677 33.4796 182.552 32.8394C181.097 31.9761 165.228 31.8112 164.122 32.6939C163.317 33.3632 162.812 47.855 163.84 50.0957ZM164.364 32.8976C165.247 32.1604 180.748 32.7133 182.144 33.3923C182.891 35.3905 183.376 47.9423 182.649 49.7271C181.465 50.5419 166.964 50.5128 164.432 49.7271C163.443 47.3506 163.811 33.3632 164.364 32.8976ZM125.264 31.2001C124.879 31.8582 124.36 32.4274 123.739 32.8705C123.119 33.3135 122.412 33.6203 121.665 33.7706C121.642 33.7648 121.618 33.7642 121.595 33.769C121.572 33.7738 121.55 33.7839 121.531 33.7984C121.513 33.8129 121.497 33.8315 121.487 33.8527C121.477 33.874 121.471 33.8973 121.471 33.921C121.471 33.9447 121.477 33.968 121.487 33.9893C121.497 34.0105 121.513 34.0291 121.531 34.0436C121.55 34.0581 121.572 34.0681 121.595 34.073C121.618 34.0778 121.642 34.0772 121.665 34.0713C123.372 34.5175 125.593 32.9655 125.593 31.2583C125.601 31.2146 125.591 31.1696 125.566 31.1332C125.54 31.0968 125.501 31.0721 125.458 31.0643C125.414 31.0566 125.369 31.0666 125.332 31.0921C125.296 31.1175 125.271 31.1564 125.264 31.2001ZM117.339 22.5186V23.4886C117.339 23.6173 117.39 23.7406 117.481 23.8316C117.572 23.9225 117.695 23.9736 117.824 23.9736C117.952 23.9712 118.073 23.9193 118.164 23.8288C118.254 23.7384 118.306 23.6165 118.309 23.4886V22.5186C118.309 22.39 118.258 22.2667 118.167 22.1757C118.076 22.0847 117.952 22.0336 117.824 22.0336C117.695 22.0336 117.572 22.0847 117.481 22.1757C117.39 22.2667 117.339 22.39 117.339 22.5186ZM127.01 23.4401C127.01 23.5688 127.061 23.6921 127.152 23.7831C127.243 23.874 127.366 23.9251 127.495 23.9251C127.623 23.9251 127.747 23.874 127.838 23.7831C127.928 23.6921 127.98 23.5688 127.98 23.4401V22.2373C127.98 22.1087 127.928 21.9854 127.838 21.8944C127.747 21.8034 127.623 21.7523 127.495 21.7523C127.366 21.7523 127.243 21.8034 127.152 21.8944C127.061 21.9854 127.01 22.1087 127.01 22.2373C126.971 22.6544 127.01 23.1394 127.01 23.4401Z" fill="#03545A"/>
<path id="Vector_2" fill-rule="evenodd" clip-rule="evenodd" d="M183.25 93.6099C183.186 93.5017 183.096 93.4116 182.988 93.348C182.154 92.9406 177.614 93.1443 176.673 93.1831C176.838 67.74 163.433 51.8708 143.975 47.3215C140.405 46.4873 140.395 46.4291 140.298 46.4873L139.639 44.6734C141.501 44.6152 143.024 43.1796 144.731 43.4706C146.021 43.684 146.671 44.8286 147.942 45.3136C150.095 46.1284 153.927 44.8771 155.101 42.8304C155.702 41.7634 155.169 40.6576 155.547 39.9204C156.226 39.3287 158.156 38.3781 158.709 37.6894C159.844 36.2732 159.892 33.1013 159.378 31.3844C158.45 29.4415 157.186 27.6781 155.644 26.1755C153.966 24.559 152.479 22.756 151.211 20.8017C149.649 17.688 149.591 13.3812 148.301 10.1317C146.879 7.19768 144.678 4.71115 141.938 2.94399C139.262 1.05371 136.035 0.10215 132.762 0.237685C129.706 0.431685 128.513 1.73149 127.087 2.17769C125.661 2.62389 125.36 2.17768 123.042 3.19618C122.122 3.75704 121.302 4.46858 120.617 5.30108C120.326 5.61148 120.346 5.63089 119.851 5.65029C119.318 5.61022 118.783 5.61022 118.25 5.65029C117.342 5.85185 116.473 6.20257 115.68 6.68818C110.277 9.92799 111.732 16.4464 109.695 21.2382C108.308 24.4974 104.447 27.6305 104.117 31.0352C104.001 32.6007 104.337 34.1666 105.087 35.5457C107.445 39.6876 110.83 36.4381 112.586 38.9698C113.138 39.7652 113.556 40.5412 114.584 40.6964C115.893 40.871 117.678 39.8331 118.745 39.0668C118.969 39.3282 119.223 39.5626 119.502 39.7652C120.447 40.4026 121.463 40.9299 122.528 41.3366L120.064 44.7801C115.447 44.2563 108.356 45.7501 103.788 47.1566C103.623 45.9926 102.187 36.3799 101.101 35.9143C99.5973 35.2547 83.8154 37.088 82.8551 38.1259C82.147 38.8825 83.4177 53.287 84.7951 55.4404C84.9988 55.7702 85.6972 55.7799 86.0852 55.7896C83.8154 57.3416 81.6232 58.913 80.8375 59.4853C80.2264 57.3707 77.0157 46.1866 75.8323 44.3533C75.4928 43.8198 75.1824 43.8295 73.6207 44.3533C72.7305 39.9119 71.6037 35.5212 70.2451 31.2001C70.7545 30.3626 71.1616 29.4671 71.4576 28.5326C71.8191 27.0525 71.8719 25.5138 71.6128 24.0124C72.7962 24.4101 79.8675 26.3501 81.0121 25.7875C81.3195 25.5681 81.5476 25.255 81.662 24.8951C82.9133 22.1597 85.057 12.8186 85.2219 9.86008C85.2898 9.48126 85.2247 9.0906 85.0376 8.75429C83.9027 7.57089 68.6349 3.17678 67.3448 3.75878C66.5591 4.11768 64.4348 11.092 64.2117 11.9165C62.359 18.1342 63.2999 16.7665 62.2717 17.1254C61.0883 17.5425 60.0698 20.0354 59.6527 21.1897C59.2356 22.344 58.7991 23.896 59.2938 24.8078C59.0929 25.1786 59.0121 25.6027 59.0624 26.0214C59.1128 26.4401 59.2919 26.8329 59.5751 27.1455C59.2666 27.4893 59.0655 27.9159 58.9966 28.3727C58.9276 28.8295 58.9938 29.2964 59.1871 29.716C59.4684 30.5987 61.2241 31.1807 62.0971 31.4329C61.4078 33.2903 60.8344 35.1887 60.3802 37.1171C59.6064 40.1095 58.988 43.14 58.5275 46.1963C58.2405 47.6815 58.146 49.1974 58.2462 50.7068L56.6554 51.4246C56.5942 51.4526 56.5424 51.4978 56.5063 51.5546C56.4701 51.6113 56.4512 51.6774 56.4517 51.7447C56.4517 51.7447 56.7524 63.5011 60.6227 73.269C65.2981 85.0933 72.9902 89.0509 84.6981 84.6277C84.8036 85.5559 85.032 86.4659 85.3771 87.334C85.5517 87.6444 86.1434 87.7026 86.5411 87.7414C89.9846 87.8542 93.4319 87.7472 96.8619 87.4213L99.7719 105.851C98.9862 108.121 90.0719 133.981 90.198 136.387C90.198 136.639 90.295 136.833 90.7121 137.027C93.2826 138.22 117.639 141.402 118.561 138.744C118.794 138.094 119.356 133.952 119.463 133.166L133.169 131.653L146.235 132.517C146.376 133.825 146.609 135.121 146.933 136.397C147.05 136.688 147.185 136.843 147.525 136.814C148.815 136.688 155.692 135.446 157.594 135.087C164.888 133.71 164.723 133.593 164.51 132.875C163.996 131.178 159.223 117.937 157.361 111.759C160.085 112.049 162.833 112.049 165.557 111.759C165.587 111.864 165.642 111.96 165.718 112.038C165.795 112.115 165.889 112.173 165.994 112.205C167.769 112.855 183.628 111.953 184.928 110.653C186.102 109.615 184.133 95.0843 183.25 93.6099ZM67.3642 4.17588C67.4709 4.01098 67.4321 3.94308 68.2857 4.06918C71.8456 4.57358 83.4856 8.32749 84.4944 9.21019C84.6884 11.4315 81.8075 23.6244 80.6726 25.0988C79.8481 25.3801 74.3773 23.9833 73.5334 23.7602C67.112 22.0821 67.3642 21.8202 65.8995 21.4807C65.1429 21.2188 65.0653 21.2091 65.0847 21.1024C65.0871 21.0784 65.0984 21.0561 65.1163 21.04C65.1342 21.0238 65.1575 21.015 65.1817 21.0151C66.0547 21.0151 68.3924 20.9472 68.9647 20.2682C69.091 20.1301 69.1853 19.9658 69.2407 19.7871C69.2962 19.6084 69.3115 19.4196 69.2856 19.2342C69.2596 19.0489 69.1931 18.8716 69.0906 18.715C68.9882 18.5583 68.8525 18.4263 68.6931 18.3282C67.4464 17.8287 66.1434 17.4834 64.8131 17.3C64.4154 17.2224 63.9304 17.0866 63.4454 17.0284C64.1147 14.002 66.3263 5.78608 67.3642 4.17588ZM59.0319 50.3867V48.8832C59.1192 47.0402 60.0019 42.1999 60.2638 40.871C60.6906 38.7176 60.7876 38.2326 62.0292 33.5572C62.0292 33.4311 62.7761 31.3456 62.7761 31.3456C62.7895 31.3094 62.795 31.2707 62.7922 31.2322C62.7895 31.1937 62.7786 31.1562 62.7603 31.1223C62.7419 31.0883 62.7165 31.0586 62.6858 31.0353C62.6551 31.0119 62.6197 30.9953 62.5821 30.9867C62.4754 30.9867 59.9534 30.3659 59.6721 29.5608C59.3908 28.7557 59.3326 27.7857 60.0407 27.3589C60.0667 27.34 60.0879 27.3152 60.1025 27.2865C60.1172 27.2579 60.1248 27.2262 60.1248 27.194C60.1248 27.1618 60.1172 27.1301 60.1025 27.1014C60.0879 27.0728 60.0667 27.048 60.0407 27.0291C59.7307 26.7746 59.5221 26.4175 59.4527 26.0224C59.3833 25.6274 59.4577 25.2206 59.6624 24.8757C59.8855 24.4198 58.6924 24.6429 60.1086 21.374C60.4675 20.5689 61.68 18.0954 62.5045 17.8238C63.2345 17.7526 63.9714 17.8352 64.6676 18.0663C65.8834 18.2578 67.0785 18.563 68.2372 18.9781C68.3109 19.0177 68.3744 19.0738 68.4229 19.142C68.4713 19.2102 68.5034 19.2886 68.5165 19.3712C68.5297 19.4539 68.5235 19.5384 68.4986 19.6183C68.4737 19.6981 68.4307 19.7712 68.373 19.8317C67.9468 20.0732 67.4799 20.2343 66.9956 20.307C63.9401 20.9084 64.4833 20.2391 64.0856 21.277C62.9183 21.2085 61.7515 21.418 60.6809 21.8881C60.2638 21.9754 60.4384 22.247 60.7391 22.1985C62.0387 21.7726 63.4286 21.7022 64.7646 21.9948C65.5397 22.1364 66.2974 22.3608 67.0247 22.6641C67.6842 22.932 68.2697 23.3545 68.7319 23.896C68.8144 24.1012 68.8452 24.3235 68.8215 24.5434C68.7978 24.7634 68.7204 24.9741 68.5961 25.157C68.3633 25.5159 67.2381 25.2734 66.8113 25.157C66.2293 24.9824 65.6182 24.8369 65.0459 24.6526C64.2408 24.4004 64.3281 24.3325 64.0759 24.3519C63.1862 24.4779 62.316 24.7158 61.486 25.06C61.4625 25.0627 61.4399 25.0707 61.42 25.0834C61.4001 25.0961 61.3834 25.1133 61.3711 25.1334C61.3588 25.1536 61.3512 25.1763 61.3491 25.1999C61.3469 25.2234 61.3501 25.2471 61.3585 25.2692C61.3669 25.2913 61.3802 25.3112 61.3974 25.3274C61.4147 25.3435 61.4354 25.3556 61.458 25.3625C61.4805 25.3695 61.5044 25.3712 61.5278 25.3675C61.5511 25.3638 61.5733 25.3548 61.5927 25.3413C62.3356 25.1318 63.0949 24.9858 63.8625 24.9048C64.299 24.9048 64.0177 24.9048 65.1138 25.3413C65.6085 25.5256 66.0838 25.6711 66.6076 25.8457C66.9445 25.9612 67.2922 26.0424 67.6455 26.0882C68.2663 26.6702 68.7125 28.0282 67.8783 28.2707C67.5505 28.3272 67.2134 28.2867 66.9083 28.1543C64.687 27.4268 66.1905 26.903 61.3696 27.8924C61.3301 27.8973 61.294 27.9171 61.2688 27.9478C61.2435 27.9784 61.231 28.0176 61.2338 28.0573C61.2338 28.3095 61.3987 28.1543 64.0662 28.0573C64.3887 28.0249 64.7136 28.0249 65.0362 28.0573C65.8704 28.4841 67.112 29.2116 68.0723 28.9303C69.246 28.552 69.2072 27.2522 68.4506 26.3016C68.179 25.9718 68.1499 26.0688 68.3827 26.03C68.5529 26.0115 68.7175 25.958 68.866 25.8729C69.0146 25.7878 69.144 25.6728 69.246 25.5353C69.4757 25.2184 69.6042 24.8394 69.6145 24.4482C69.6249 24.057 69.5167 23.6717 69.3042 23.3431L70.9338 23.8281C71.2564 25.3305 71.2299 26.8869 70.8562 28.3774C70.7522 28.7413 70.6158 29.0951 70.4488 29.4347C69.7407 30.9285 69.4788 30.977 69.5661 31.2583C70.914 35.6411 72.0246 40.0934 72.8932 44.5958C69.2363 45.8762 62.5336 48.825 59.0319 50.3867ZM135.788 117.792C139.94 117.967 148.864 118.287 152.957 118.161C152.676 119.383 152.501 120.159 152.453 120.333C150.503 120.333 137.903 118.151 135.788 117.792ZM154.528 117.297C151.929 117.908 118.182 116.589 115.292 115.357C115.593 113.184 118.425 100.972 118.997 98.4793C121.543 99.2586 124.192 99.651 126.854 99.6433C127.824 100.148 129.425 101.021 130.385 101.477C130.278 102.301 130.016 104.251 130.598 104.833C131.18 105.415 144.576 110.333 156.323 111.71C155.849 113.61 155.25 115.477 154.528 117.297ZM118.687 93.9494C118.24 93.8138 117.827 93.5858 117.474 93.2801C117.222 93.0085 117.309 92.184 117.474 91.796C117.565 91.6074 117.725 91.4613 117.921 91.3886C118.157 91.2856 118.41 91.2233 118.667 91.2043C118.745 91.2025 118.819 91.1772 118.881 91.1318C118.944 91.0865 118.991 91.0231 119.016 90.9504C119.041 90.8776 119.044 90.7988 119.023 90.7246C119.002 90.6503 118.96 90.5842 118.9 90.535C118.333 90.057 117.938 89.4062 117.775 88.6823C117.775 88.1488 117.979 87.5959 118.832 87.1109C119.802 87.1885 122.712 89.5941 124.061 88.207C125.409 86.8199 123.818 83.5704 125.322 83.2988C126.825 83.0272 127.582 87.5474 127.844 88.0421C128.717 89.7396 131.064 90.9521 132.403 92.3489C131.594 95.2402 130.947 98.1741 130.463 101.137C128.523 100.099 127.087 99.1971 126.942 99.1971C124.914 99.1292 119.473 98.5666 118.056 97.1213C117.805 96.9267 117.632 96.6471 117.571 96.3347C117.511 96.0223 117.566 95.6985 117.727 95.4238C117.83 95.2415 117.969 95.0821 118.136 94.9553C118.302 94.8286 118.493 94.7372 118.697 94.6866C118.78 94.6663 118.853 94.6184 118.906 94.5507C118.958 94.4831 118.986 94.3997 118.985 94.3141C118.984 94.2286 118.954 94.1459 118.9 94.0797C118.846 94.0134 118.77 93.9675 118.687 93.9494ZM129.493 61.6484C127.691 61.476 125.88 61.4047 124.07 61.435C123.838 61.435 123.644 61.5514 123.576 61.7745C123.411 62.3953 120.666 82.5713 120.53 83.5607C119.948 73.8607 119.346 63.6466 118.9 56.1582C122.276 61.5417 122.567 62.0752 123.1 61.6969C124.899 60.2177 126.6 58.6235 128.193 56.9245C128.484 58.0012 128.949 59.7569 129.493 61.6484ZM138.368 58.2437C137.709 57.2737 137.059 56.3037 136.816 55.9448L139.949 48.0587L138.368 58.2437ZM140.628 47.1081C144.297 47.8646 147.874 49.0126 151.298 50.5322C151.153 50.9881 149.281 56.7111 147.04 63.5399C146.012 63.4138 140.124 62.696 138.31 62.502L140.628 47.1081ZM136.661 57.0215L138.194 59.3301L137.709 62.4341L136.205 62.2401C136.428 60.1352 136.583 58.137 136.661 57.0215ZM163.443 67.255C163.431 68.5179 163.307 69.7773 163.074 71.0186C159.747 70.165 130.725 63.0258 127.776 64.7039C126.301 65.5575 121.451 85.4619 120.986 87.2564L120.637 87.0818C122.169 76.3051 124.206 62.1722 124.206 62.1334C127.514 61.7551 159.378 65.3635 163.443 67.255ZM146.516 87.5377C144.343 87.3922 135.72 86.9654 133.906 88.1682C133.625 88.3622 133.508 88.401 132.509 91.99C131.219 90.6223 129.056 89.3322 128.329 87.8093C127.999 87.14 127.465 82.2512 125.205 82.6295C122.159 83.1436 126.049 89.4195 121.548 87.4795C121.839 86.2476 126.612 65.703 127.941 64.9464C130.754 63.3459 161.435 71.1544 165.315 72.2505C165.092 74.6173 162.24 87.2467 161.716 89.5553C156.693 88.59 151.617 87.9164 146.516 87.5377ZM131.578 19.6862C132.121 20.0548 132.102 20.9375 132.005 21.5777C131.326 25.9136 126.98 28.5423 123.964 24.3907C123.275 23.4207 122.741 20.3361 123.207 19.6571C123.517 19.2594 126.02 19.24 126.524 19.24C127.456 19.2497 131.093 19.3952 131.539 19.6862H131.578ZM120.025 20.3846C120.025 22.2082 119.414 25.2346 117.794 26.1076C115.185 27.4656 112.537 25.3122 112.469 22.5089C112.37 21.4855 112.419 20.4531 112.615 19.4437L112.712 19.3952C112.556 19.1236 119.376 19.0363 119.987 19.6474C120.007 19.8927 120.007 20.1393 119.987 20.3846H120.025ZM123.401 41.5015C125.079 41.9865 127.785 41.7537 129.085 40.4248C129.113 40.396 129.128 40.3578 129.128 40.3181C129.128 40.2784 129.113 40.2402 129.085 40.2114C128.862 39.9398 129.085 40.4636 126.563 40.8419C124.041 41.2202 122.518 40.8419 119.967 39.1832C118.795 38.1059 117.917 36.747 117.416 35.2353C116.372 32.6768 115.718 29.9759 115.476 27.2231C116.389 27.3726 117.326 27.2193 118.144 26.7866C118.937 26.3224 119.552 25.6051 119.89 24.7496C119.562 25.7746 119.294 26.8174 119.085 27.873C119.039 28.0081 119.032 28.1533 119.065 28.2921C119.097 28.4309 119.168 28.5578 119.269 28.6587C119.94 29.0686 120.729 29.2396 121.51 29.1437C121.532 29.1496 121.556 29.1501 121.58 29.1453C121.603 29.1405 121.625 29.1304 121.643 29.1159C121.662 29.1014 121.677 29.0828 121.687 29.0616C121.698 29.0403 121.703 29.017 121.703 28.9933C121.703 28.9697 121.698 28.9463 121.687 28.9251C121.677 28.9038 121.662 28.8852 121.643 28.8707C121.625 28.8562 121.603 28.8462 121.58 28.8414C121.556 28.8366 121.532 28.8371 121.51 28.843C120.934 28.7789 120.379 28.5938 119.88 28.2998C119.657 28.1446 119.754 28.2416 119.822 27.9215C119.89 27.6014 121.151 22.9745 121.219 22.6835C121.519 22.6835 122.664 22.5283 122.664 22.247C122.664 21.9657 121.752 21.8881 121.413 21.9075C121.413 21.7814 121.471 21.6747 121.5 21.5777C121.515 21.5391 121.515 21.496 121.498 21.4578C121.482 21.4196 121.451 21.3894 121.413 21.374C121.374 21.3585 121.331 21.3591 121.293 21.3754C121.254 21.3918 121.224 21.4227 121.209 21.4613C120.869 22.1209 121.102 21.8784 120.646 21.9948C120.821 21.0979 120.821 20.1757 120.646 19.2788C120.093 18.4252 116.766 18.6192 115.68 18.6871C116.233 15.4376 118.386 13.8371 119.705 11.2375C120.075 10.6341 120.567 10.1152 121.151 9.71458C121.442 9.63698 122.014 10.3645 122.363 10.5391C122.712 10.7137 123.042 11.674 123.333 12.0038C124.248 13.0456 125.302 13.9563 126.466 14.7101C127.436 15.3988 128.949 15.5055 129.609 16.3882C129.888 17.1388 130.023 17.9351 130.007 18.7356C128.755 18.658 123.537 18.5804 122.916 19.4728C122.353 20.1906 122.596 23.4692 123.42 24.7302C125.496 27.873 128.688 28.067 131.18 25.2346C131.449 24.9002 131.676 24.5356 131.859 24.1482C133.722 27.0582 135.187 28.7945 135.254 32.2089C135.332 36.5351 134.11 43.7034 138.795 44.6055L139.6 46.8268C135.72 56.585 135.924 55.9739 135.924 56.0709C135.924 56.1679 135.739 58.9809 135.4 62.2013C133.538 62.0073 131.801 61.8424 130.259 61.7163C130.143 61.3186 128.697 56.1776 128.726 56.0709C128.872 55.5859 128.144 54.6353 127.582 53.7914C125.472 50.7368 123.168 47.8209 120.685 45.0614L123.401 41.5015ZM119.987 45.3233C120.152 45.5755 127.136 53.2579 127.989 56.0806C126.42 57.8201 124.724 59.4412 122.916 60.9306C122.266 60.077 120.51 57.264 118.842 54.6353C118.541 49.5622 118.338 46.0314 118.289 45.2942C118.832 45.2554 119.443 45.2845 119.948 45.3233H119.987ZM85.348 55.0233C84.2422 53.0833 82.7096 40.4733 83.0685 38.5333C83.0685 38.3587 83.0685 38.3005 83.8833 38.0774C87.3559 37.1753 99.5391 36.1374 100.819 36.5739C101.789 38.4654 103.914 50.8135 103.409 52.7147C102.42 53.5101 88.1998 55.518 85.3092 55.0233H85.348ZM86.027 86.9363C84.9115 84.7441 84.087 70.6888 84.6399 70.1553C85.4644 69.3599 100.946 68.6809 102.41 69.2532C103.38 71.2902 104.758 83.8032 104.185 85.5007C102.866 86.4901 88.3162 87.4601 85.9882 86.9363H86.027ZM108.172 70.6791C108.87 70.4948 113.74 69.2532 114.322 68.904C114.739 68.6615 115.214 69.4472 107.057 47.0596C108.027 46.1672 116.504 45.0226 117.843 45.4397C117.843 45.9732 119.114 68.613 120.113 86.7811C119.637 86.5483 118.949 86.1894 118.512 86.4319C116.689 87.4019 116.572 89.0121 117.921 90.5835C117.669 90.6452 117.435 90.7651 117.238 90.9336C117.041 91.102 116.886 91.3144 116.786 91.5535C116.63 91.9176 116.564 92.3136 116.593 92.7084C116.621 93.1032 116.744 93.4855 116.951 93.8233C117.177 94.0398 117.435 94.2198 117.717 94.3568C117.427 94.551 117.198 94.8234 117.057 95.1425C116.93 95.4174 116.854 95.7133 116.834 96.0155L108.172 70.6791ZM132.315 131.042L119.647 132.449C119.705 131.983 121.131 120.741 121.587 116.929C124.226 117.161 127.407 117.365 130.812 117.549C131.374 124.543 132.364 129.374 132.277 131.042H132.315ZM132.985 130.965C133.12 128.753 131.297 117.666 131.287 117.569L132.257 117.617C135.555 118.228 144.052 119.732 144.974 119.887C145.284 123.011 146.06 130.286 146.245 131.779C131.782 130.848 133.344 130.926 132.936 130.965H132.985ZM184.453 110.207C183.483 110.983 169.234 112.282 166.294 111.642C165.16 109.44 164.354 95.3947 164.907 94.8612C165.742 94.0561 181.223 93.3965 182.668 93.9591C183.58 95.9864 184.986 108.548 184.414 110.207H184.453Z" fill="#03545A"/>
<path id="Vector_3" fill-rule="evenodd" clip-rule="evenodd" d="M86.0466 103.077C85.969 102.728 85.8623 102.224 85.581 102.107C84.611 101.525 78.2187 101.409 77.0838 101.389C76.8316 96.7624 76.3854 91.4177 75.6579 89.9821C75.1826 89.0121 43.8322 88.9151 42.7555 88.9054C42.8331 83.6868 42.8428 75.7328 42.7555 70.4754C44.1232 70.4754 50.952 70.4754 51.8929 69.6994C53.0957 68.7294 52.2906 55.7799 51.7474 53.2094C51.6698 52.8602 51.5534 52.3558 51.2818 52.2394C49.8656 51.3955 33.977 51.1918 32.8518 52.0939C32.2601 52.5886 32.037 58.6511 32.0079 59.4174C29.7866 59.4174 16.0514 59.1361 11.1432 59.2525V51.3276C12.4139 51.3276 19.8732 51.5313 20.8432 50.7165C22.0169 49.7465 21.6289 33.8967 20.5134 33.2565C19.3979 32.6163 12.4333 32.4126 11.2305 32.3835C11.2305 31.0061 11.1238 27.5335 11.1141 27.4462C15.6052 27.2813 27.4392 27.6596 32.3183 27.6596C32.3183 29.1825 32.231 34.6048 32.8712 35.9919C33.0264 36.3217 33.6181 36.4187 34.0061 36.4866C37.0907 37.0298 50.8453 37.3499 52.1936 36.2053C53.5419 35.0607 52.601 20.5592 51.8153 18.9975C51.7632 18.8853 51.683 18.7884 51.5825 18.7162C50.1178 17.8529 34.2486 17.7462 33.1525 18.5707C32.522 19.1042 32.3086 26.0494 32.2892 26.8836C27.3325 26.8836 15.6731 26.5053 11.0559 26.6702C11.0559 24.7981 10.9589 22.9066 10.9589 21.0442C12.3363 21.0442 20.6589 20.9181 21.6968 20.0063C22.7347 19.0945 21.6968 4.39904 20.8626 2.80824C20.8107 2.6955 20.7263 2.6009 20.6201 2.53664C19.1457 1.71214 3.27649 1.96434 2.19009 2.87614C1.36559 3.59394 1.22009 18.0954 2.32589 20.3361C2.40207 20.4613 2.51829 20.557 2.65569 20.6077C3.76149 21.0733 8.92189 21.083 10.1344 21.083C10.1344 25.4189 10.3284 28.94 10.3672 32.4029C9.39719 32.4029 2.78179 32.2574 2.04459 32.8491C1.30739 33.4408 0.414991 47.9326 1.44319 50.3091C1.58869 50.6292 2.18039 50.7456 2.56839 50.8135C5.13913 51.1848 7.73123 51.3889 10.3284 51.4246V65.7418C9.40689 65.7418 3.09219 65.6254 2.38409 66.1977C1.67599 66.77 0.744791 81.2812 1.77299 83.6577C1.91849 83.9875 2.51019 84.0942 2.89819 84.1718C6.04099 84.7732 19.7374 85.297 21.0857 84.1718C22.434 83.0466 21.7356 68.5063 20.9984 66.964C20.9459 66.8494 20.866 66.7494 20.7656 66.673C19.7083 66.0328 12.3557 65.8194 11.0656 65.7903V60.1837C16.0902 60.0576 29.2628 60.3389 31.9206 60.3486C31.9206 61.9879 31.7654 68.1668 32.4638 69.6703C32.5272 69.8006 32.6384 69.9013 32.7742 69.9516C34.0255 70.5239 40.5342 70.6403 41.8631 70.65C41.9892 75.9268 41.9795 83.9002 41.8631 89.08C28.8263 89.0121 15.3045 89.1479 12.5788 89.7008C12.2878 89.759 11.8125 89.856 11.7931 90.2634C11.7931 90.2634 11.2693 98.6442 11.0268 101.525C10.1635 101.525 4.48899 101.525 3.82939 102.107C3.16979 102.689 2.44229 117.22 3.50929 119.567C3.65479 119.887 4.24649 119.994 4.63449 120.062C7.72879 120.605 21.4737 120.925 22.822 119.781C24.1703 118.636 23.2197 104.105 22.4437 102.573C22.4826 102.48 22.4951 102.378 22.4797 102.279C22.4642 102.18 22.4216 102.087 22.3564 102.01C21.2409 101.341 13.2772 101.283 11.958 101.273C12.1908 98.3629 12.6952 90.2634 12.6952 90.2634C16.0126 89.2934 71.1959 89.4098 75.0565 90.3895C75.6482 91.8057 76.0265 96.6654 76.3369 101.312C75.3669 101.312 67.9949 101.254 67.2286 101.894C66.4623 102.534 65.8803 117.094 66.9085 119.354C66.9766 119.484 67.0907 119.584 67.2286 119.635C68.9455 120.411 84.8244 120.76 86.2212 119.567C86.4613 119.276 86.6008 118.916 86.6189 118.539C87.0748 115.59 86.6771 105.987 86.0466 103.077ZM33.3562 18.6871C34.2195 17.9693 49.7007 18.4834 51.1363 19.1818C51.4965 20.7128 51.7045 22.2756 51.7571 23.8475C45.5394 23.217 37.1392 23.702 32.8518 23.8475C32.8712 23.2655 33.0264 18.9199 33.3562 18.658V18.6871ZM32.8421 24.381C39.9037 24.6041 48.2845 24.2355 51.7862 24.2743C51.8929 25.9912 52.2712 34.0325 51.6407 35.5166C50.9229 36.0113 45.2678 36.0986 44.4045 36.1083C42.319 36.1083 35.4417 36.1083 33.4241 35.5263C32.7257 33.8288 32.7936 26.2919 32.8421 24.3519V24.381ZM2.44229 2.95374C3.30559 2.19714 18.8159 2.34264 20.2321 2.95374C20.5504 4.03491 20.752 5.14704 20.8335 6.27114C14.5675 6.08638 8.29686 6.41078 2.08339 7.24114C2.09309 6.89194 2.16099 3.20594 2.44229 2.95374ZM2.95639 19.7832C2.17069 18.0275 2.06399 9.86014 2.08339 7.57094C2.89819 7.47394 20.5134 6.60094 20.8723 6.60094C21.0857 8.54094 21.8423 17.591 21.1633 19.2885C19.8635 20.2294 5.26499 20.4137 2.95639 19.7832ZM2.28709 32.9073C3.16979 32.1992 18.6413 32.9655 20.0672 33.6833C20.3845 35.1308 20.5599 36.6057 20.591 38.0871C20.688 38.0871 6.87519 37.5439 1.72449 37.7088C1.75359 37.1365 1.98639 33.1401 2.28709 32.9073ZM20.5716 83.3473C19.5046 84.0457 5.19709 83.9584 2.36469 83.0563C1.66629 81.32 1.87969 73.3563 1.97669 71.329C2.07369 71.329 15.3336 72.3572 20.882 71.7073C20.979 73.4824 21.2409 81.8341 20.5716 83.3376V83.3473ZM20.3388 66.9931C20.6546 68.4443 20.8332 69.922 20.8723 71.4066C20.9693 71.4066 7.18559 70.8634 1.99609 71.0186C2.03932 69.4593 2.20473 67.9058 2.49079 66.3723C2.55869 66.1783 2.49079 66.1395 3.36379 66.0425C6.83639 65.6545 19.0972 66.3626 20.3388 66.9834V66.9931ZM2.08339 49.7368C1.39469 48.0005 1.60809 40.095 1.70509 38.0192C1.82149 38.0192 15.0426 39.0474 20.6104 38.3975C20.7074 40.1823 20.979 48.4855 20.3 50.0375C18.9905 50.8911 4.42109 50.4837 2.08339 49.7368ZM22.5698 107.597C22.6862 109.402 23.0548 117.423 22.4243 118.946C21.3961 119.664 7.03039 119.81 4.20769 118.946C3.50929 117.259 3.57719 109.663 3.62569 107.636C9.88219 107.879 15.5664 107.597 22.5698 107.597ZM21.9199 102.612C22.2787 104.14 22.4899 105.699 22.5504 107.268C16.3812 106.647 7.68999 107.141 3.63539 107.326C3.63539 106.715 3.81969 102.379 4.13979 102.117C5.01279 101.399 20.4843 101.913 21.9199 102.612ZM33.0264 52.22C33.9188 51.4731 49.4 52.0357 50.8065 52.7147C51.1754 54.307 51.3898 55.9312 51.4467 57.5647C47.2369 57.3416 36.7609 56.6723 32.5317 57.1961C32.5802 56.6432 32.7451 52.4819 33.0264 52.22ZM33.1234 69.0301C32.4153 67.3326 32.4929 59.5726 32.5511 57.5453C33.9188 57.4095 43.8128 58.0303 48.4106 57.9915C49.5843 57.9915 50.6416 57.943 51.4952 57.9139C51.6019 59.6405 51.9608 67.5266 51.34 69.0204C50.0693 69.9225 35.4805 69.777 33.1234 69.0301ZM67.3935 102.117C68.2665 101.399 83.738 101.913 85.1833 102.612C85.5388 104.143 85.7467 105.706 85.8041 107.277C79.6931 106.656 70.8467 107.151 66.8988 107.277C66.9085 106.763 67.0734 102.408 67.3935 102.146V102.117ZM85.6877 118.946C84.6304 119.664 70.2647 119.81 67.4711 118.946C66.763 117.268 66.8309 109.644 66.8891 107.626C73.4172 107.879 78.3157 107.626 85.8235 107.626C85.9399 109.411 86.3085 117.462 85.6877 118.975V118.946Z" fill="#03545A"/>
</g>
</svg>
