<svg width="187" height="118" viewBox="0 0 187 118" fill="none" xmlns="http://www.w3.org/2000/svg">
<g id="Group">
<path id="Vector" d="M102.533 25.5997C101.728 26.013 103.055 27.4942 103.361 26.3418C103.41 25.9877 102.895 25.4135 102.533 25.5997Z" fill="#03545A"/>
<path id="Vector_2" d="M107.204 24.305C107.252 23.951 106.738 23.3796 106.375 23.5639C105.572 23.983 106.897 25.4574 107.204 24.305Z" fill="#03545A"/>
<path id="Vector_3" d="M61.1656 83.6551C61.0403 83.6845 60.9318 83.7624 60.864 83.8717C60.7961 83.981 60.7745 84.1128 60.8038 84.2381C60.8331 84.3634 60.911 84.4719 61.0203 84.5398C61.1297 84.6076 61.2615 84.6292 61.3868 84.5999C68.6176 82.9201 76.1185 82.7603 83.4143 84.1309C90.7101 85.5014 97.6417 88.3723 103.77 92.5617C103.873 92.5618 103.974 92.5288 104.058 92.4675C104.141 92.4062 104.203 92.3198 104.234 92.2209C104.264 92.122 104.263 92.0159 104.229 91.918C104.195 91.8202 104.131 91.7357 104.045 91.677C97.8474 87.4346 90.8334 84.5301 83.4506 83.1489C76.0677 81.7678 68.4781 81.9402 61.1656 83.6551Z" fill="#03545A"/>
<path id="Vector_4" d="M106.97 88.6237C95.8521 81.6707 83.4264 76.9973 70.2431 78.9363C70.1192 78.957 70.0082 79.0249 69.9333 79.1258C69.8585 79.2267 69.8257 79.3527 69.8419 79.4773C69.8582 79.6019 69.9221 79.7153 70.0203 79.7937C70.1184 79.8721 70.2432 79.9093 70.3683 79.8976C78.496 78.832 86.761 79.9018 94.3496 83.0016C98.5349 84.8567 102.581 87.0108 106.457 89.4472C106.566 89.5153 106.698 89.5371 106.823 89.508C106.949 89.4789 107.057 89.4012 107.125 89.292C107.193 89.1828 107.215 89.0511 107.186 88.9257C107.157 88.8004 107.079 88.6917 106.97 88.6237Z" fill="#03545A"/>
<path id="Vector_5" d="M78.9229 75.3997C78.7943 75.4043 78.6728 75.4599 78.5851 75.5541C78.4974 75.6483 78.4508 75.7735 78.4554 75.9022C78.46 76.0308 78.5156 76.1523 78.6098 76.24C78.704 76.3277 78.8292 76.3743 78.9579 76.3697C90.1415 75.9729 101.086 79.6671 109.742 86.7604C110.214 87.1639 110.855 86.4053 110.358 86.0105C101.502 78.7985 90.3379 75.0301 78.9229 75.3997Z" fill="#03545A"/>
<path id="Vector_6" d="M76.2556 71.8683C76.1269 71.8777 76.0073 71.9378 75.923 72.0354C75.8387 72.133 75.7966 72.2601 75.806 72.3887C75.8154 72.5173 75.8755 72.637 75.9731 72.7213C76.0707 72.8056 76.1978 72.8477 76.3264 72.8383C89.8377 71.8377 103.214 76.087 113.671 84.7014C114.14 85.1059 114.787 84.3473 114.286 83.9526C103.63 75.1932 90.0135 70.8666 76.2556 71.8683Z" fill="#03545A"/>
<path id="Vector_7" d="M80.971 69.691C87.5079 68.7924 94.1635 69.3913 100.435 71.4426C106.706 73.4939 112.429 76.9439 117.171 81.5318C117.608 81.9732 118.311 81.2699 117.846 80.8353C112.991 76.1541 107.139 72.6332 100.73 70.5367C94.32 68.4403 87.5187 67.8229 80.8362 68.7307C80.7113 68.7513 80.5994 68.82 80.5244 68.922C80.4494 69.024 80.4173 69.1513 80.4349 69.2767C80.4525 69.4021 80.5184 69.5156 80.6186 69.593C80.7188 69.6704 80.8453 69.7056 80.971 69.691Z" fill="#03545A"/>
<path id="Vector_8" d="M31.2615 71.9157C28.6279 72.552 28.4271 76.2419 31.4021 76.2807C35.4169 76.303 35.5052 70.8894 31.2615 71.9157ZM33.2985 74.4319C33.0131 74.7758 32.6376 75.0333 32.2141 75.1757C31.7906 75.3181 31.3357 75.3396 30.9006 75.2379C29.5775 74.7529 30.1925 73.1845 31.5583 72.8391C32.6195 72.3289 34.0337 73.3629 33.2975 74.4319H33.2985Z" fill="#03545A"/>
<path id="Vector_9" d="M144.987 84.3297C144.445 84.3297 144.199 84.3297 142.79 93.2654C142.111 97.5489 141.476 102.074 141.365 102.906C141.424 103.905 143.364 103.436 144.056 103.585C160.177 103.387 160.567 85.5296 144.987 84.3297ZM153.46 99.0126C150.662 102.105 145.998 102.86 142.394 102.54C142.964 98.3685 144.645 87.0777 145.254 85.3104C152.819 85.6877 158.892 93.0073 153.46 99.0126Z" fill="#03545A"/>
<path id="Vector_10" d="M185.44 15.6856C183.642 14.3344 181.512 15.4819 179.899 14.0473C179.737 13.8907 179.545 13.7698 179.334 13.6924C179.123 13.6149 178.898 13.5826 178.674 13.5976C178.45 13.6126 178.231 13.6745 178.032 13.7794C177.834 13.8843 177.659 14.0297 177.52 14.2064C176.965 14.8906 176.644 15.7341 176.602 16.6139C170.888 22.5008 164.119 27.0492 153.516 29.6167C155.735 27.3415 157.547 24.7031 158.874 21.816C162.075 14.0085 149.103 8.042 143.451 6.62386C143.201 5.56559 143.967 3.87585 144.278 2.79139C144.632 1.36258 143.599 0.657389 142.843 1.04539C140.979 1.66037 140.085 3.71483 139.003 5.13006C136.89 7.94306 138.484 8.79181 140.967 10.0615C140.893 10.1576 140.86 10.2789 140.875 10.3992C140.89 10.5194 140.952 10.6289 141.047 10.7037C142.329 11.9783 148.613 16.9738 146.161 18.875C144.834 19.9003 140.858 22.9722 138.549 24.9365C134.046 24.7192 132.08 24.7085 129.171 25.21C129.136 25.2163 129.104 25.2341 129.081 25.2605C129.057 25.287 129.043 25.3206 129.04 25.3561C129.037 25.3916 129.047 25.4269 129.067 25.4565C129.086 25.4861 129.115 25.5082 129.149 25.5195C137.729 29.6575 139.271 40.7417 136.498 48.654C138.402 48.522 141.741 48.7354 143.322 47.9992C149.297 47.4065 157.744 45.7682 162.192 43.2394C166.745 40.7599 170.691 37.3007 173.745 33.1113C176.799 28.922 178.885 24.1069 179.852 19.0137C181.587 18.3669 183.368 17.8481 185.179 17.4617C186.019 17.3298 186.634 16.1076 185.44 15.6856ZM147.264 8.93731C152.49 10.983 160.337 16.0067 157.99 21.4135C156.483 24.6981 154.327 27.6439 151.651 30.0736C150.702 30.3045 149.45 30.5509 148.48 30.7662C151.309 27.9481 153.883 24.8844 156.17 21.6113C156.812 20.7876 157.218 19.8054 157.346 18.7692C156.849 15.3791 153.66 14.412 151.025 12.6097C149.661 11.8506 148.349 11.0047 147.094 10.0771C147.207 9.70775 147.265 9.32357 147.264 8.93731ZM141.941 9.49603L139.859 8.35531C139.333 8.07207 138.792 7.6249 139.059 6.97597C139.685 5.82923 140.398 4.73247 141.193 3.69543C141.657 2.87082 142.406 2.2436 143.299 1.931C143.369 1.96592 143.418 2.24528 143.358 2.50039C142.871 3.79224 142.534 5.13578 142.354 6.50455C142.297 6.786 142.312 7.07715 142.396 7.35146C142.481 7.62576 142.633 7.8745 142.839 8.07498C142.719 8.64047 142.4 9.14444 141.941 9.49603ZM143.241 11.3672C142.904 11.0577 142.584 10.7376 142.259 10.4592C142.726 10.1736 143.116 9.77783 143.395 9.30657C143.674 8.83532 143.833 8.3029 143.859 7.75585C144.624 7.98768 145.429 8.25637 146.235 8.54931C146.637 10.3341 144.928 12.2246 143.241 11.3672ZM137.393 25.826C137.921 25.7785 138.546 26.0821 139.022 25.8124C141.284 23.8724 145.402 20.6908 146.728 19.6655C149.414 17.5044 146.104 14.3373 144.35 12.5108C144.842 12.4903 145.319 12.3394 145.733 12.0737C146.147 11.808 146.483 11.4369 146.707 10.9986C149.355 13.3479 155.567 15.1453 156.379 18.7178C156.26 19.5685 155.917 20.3722 155.384 21.0458C153.019 24.4349 150.344 27.5968 147.394 30.4907C146.915 29.9087 145.753 28.5051 145.129 29.3752C145.104 29.4339 145.09 29.4969 145.09 29.5607C145.089 29.6245 145.101 29.6878 145.125 29.747C145.148 29.8062 145.184 29.8601 145.228 29.9057C145.273 29.9512 145.326 29.9875 145.385 30.0125C145.971 30.2897 146.458 30.74 146.78 31.3026C147.107 32.518 149.222 31.4859 150.09 31.4151C160.341 29.3704 169.579 25.1402 175.082 19.3871C175.717 19.5342 176.293 19.8727 176.731 20.3571C171.21 34.1554 159.675 42.1928 145.039 42.5032C145.535 36.1167 143.525 28.9377 137.393 25.826ZM172.473 33.295C166.049 42.3926 155.904 45.7023 144.457 46.8992C144.762 45.7828 144.933 44.634 144.967 43.4771C159.894 43.1938 171.684 35.0885 177.435 21.1554C179.164 23.3399 174.108 30.9825 172.473 33.295ZM178.57 20.4182C178.527 20.5909 178.473 20.7606 178.427 20.9323C177.85 19.8834 176.934 19.061 175.829 18.5995C176.28 18.1513 176.906 17.1833 177.556 17.4297C177.844 17.5289 178.106 17.6927 178.32 17.9086C178.535 18.1245 178.698 18.3868 178.796 18.6753C178.894 18.9638 178.924 19.2709 178.885 19.573C178.846 19.8751 178.738 20.1643 178.57 20.4182ZM179.631 18.0252C179.19 17.3735 178.583 16.8514 177.872 16.513C177.209 16.5276 178.054 15.0328 178.266 14.8184C178.911 13.6874 180.759 16.806 184.086 16.7381C182.579 17.0852 181.091 17.5149 179.631 18.0252Z" fill="#03545A"/>
<path id="Vector_11" d="M105.536 22.9831C105.993 22.8561 106.514 22.5321 106.926 22.7523C107.046 22.8 107.179 22.7983 107.297 22.7475C107.416 22.6968 107.509 22.6011 107.557 22.4816C107.604 22.3621 107.603 22.2286 107.552 22.1103C107.501 21.9921 107.406 21.8989 107.286 21.8511C106.712 21.5718 104.78 21.7066 105.12 22.7484C105.163 22.8201 105.224 22.8794 105.297 22.9206C105.37 22.9617 105.452 22.9832 105.536 22.9831Z" fill="#03545A"/>
<path id="Vector_12" d="M101.983 25.56C102.086 25.2018 102.298 24.8845 102.589 24.6521C102.692 24.5749 102.76 24.46 102.778 24.3326C102.796 24.2053 102.763 24.076 102.686 23.9731C102.609 23.8701 102.494 23.8021 102.367 23.7839C102.239 23.7657 102.11 23.7989 102.007 23.8761C101.539 24.243 101.201 24.7507 101.043 25.3243C101.018 25.4466 101.041 25.5739 101.108 25.6796C101.174 25.7853 101.279 25.8612 101.4 25.8916C101.521 25.9219 101.65 25.9044 101.758 25.8427C101.867 25.7809 101.947 25.6796 101.983 25.56Z" fill="#03545A"/>
<path id="Vector_13" d="M106.861 28.0432C106.41 28.4816 107.108 29.18 107.547 28.729C107.741 28.535 107.905 28.3487 108.072 28.1576C107.827 28.5835 107.554 29.1548 108.284 29.2634C109.236 28.9909 109.254 27.5727 108.663 26.9063C107.912 26.2632 107.397 27.6736 106.861 28.0432Z" fill="#03545A"/>
<path id="Vector_14" d="M104.9 27.7904C105.473 28.06 106.698 27.1308 105.998 26.542C105.686 26.2966 105.319 26.639 105.179 26.8582C104.908 26.5546 105.537 24.4536 104.636 24.4895C104.508 24.4895 104.384 24.5406 104.293 24.6315C104.202 24.7225 104.151 24.8458 104.151 24.9745C104.214 25.7563 103.841 27.545 104.9 27.7904Z" fill="#03545A"/>
<path id="Vector_15" d="M165.316 86.3376C162.138 79.9027 154.161 76.0906 144.817 74.5483C148.69 71.0611 150.233 69.6177 150.328 69.4276C150.725 67.8553 150.451 62.4174 151.219 60.9702C151.259 60.867 151.265 60.754 151.236 60.6474C151.207 60.5407 151.145 60.4459 151.059 60.3765C145.717 56.7327 139.874 53.8839 133.713 51.9191C139.12 43.3948 136.826 28.094 125.618 25.2102C127.731 22.1944 125.527 17.5869 121.826 17.8906C119.382 17.9272 116.945 18.1663 114.541 18.6054C115.153 18.0894 114.832 16.9564 114.393 16.5413C116.36 15.4345 113.866 11.9493 111.968 12.1239C112.065 10.6301 111.023 7.90052 109.273 9.08974C108.76 8.33455 108.111 7.68158 107.359 7.16429C106.379 6.58229 105.121 6.44746 104.58 7.50282C103.771 6.98405 102.86 6.64438 101.909 6.50663C100.676 6.48917 99.5814 7.28263 99.7307 8.3894C98.4193 8.0984 96.9759 8.23711 96.262 9.5534C95.9177 10.3439 96.6975 10.7931 95.4705 10.7349C93.7507 10.891 92.6575 13.2345 94.4035 14.3345C92.4975 14.7701 91.0085 18.2223 93.6042 18.7665C92.6866 20.0275 92.058 21.9073 93.1047 23.1771C79.6265 25.4333 68.8838 27.3122 58.7259 29.322C53.8226 31.5317 50.1531 34.4417 45.4534 36.888C45.3433 36.9452 45.2593 37.0425 45.2187 37.1598C45.1781 37.277 45.184 37.4054 45.2352 37.5185C45.951 39.0938 59.0208 40.2345 61.633 40.4508C73.6442 38.7106 85.5529 36.3251 97.3077 33.3048C93.1968 36.5931 87.3235 39.6661 86.8133 45.5317C73.9549 44.0699 61.9609 45.9323 51.805 52.4041C34.6214 62.6037 16.8084 72.8294 0.894531 85.4578C1.34364 88.4154 2.34953 91.3991 2.49988 94.1811C2.50941 94.2887 2.55465 94.3902 2.62841 94.4692C2.70217 94.5482 2.80022 94.6004 2.90699 94.6173C3.01376 94.6342 3.12313 94.615 3.21774 94.5627C3.31234 94.5104 3.38674 94.4279 3.42914 94.3285C14.9236 90.9675 27.9168 90.8821 39.8177 93.5185C49.5012 95.218 46.3061 99.7644 49.2422 100.406C49.4178 100.449 52.6887 100.855 52.7342 100.801C53.3483 100.749 53.6247 100.05 53.6072 99.5694C53.9564 95.1074 56.589 95.0017 60.8454 95.2044C80.6906 96.4926 87.8356 99.7537 104.287 110.239C104.348 110.28 104.419 110.305 104.492 110.313C104.565 110.321 104.639 110.311 104.708 110.285C104.777 110.259 104.839 110.217 104.888 110.163C104.938 110.109 104.974 110.044 104.994 109.973C114.774 101.243 129.162 88.557 135.564 82.8127C133.102 92.9123 130.851 103.129 128.311 115.724C128.298 115.789 128.298 115.856 128.312 115.921C128.326 115.986 128.354 116.048 128.392 116.102C128.431 116.156 128.48 116.201 128.538 116.235C128.595 116.269 128.658 116.291 128.724 116.3C138.801 117.588 151.832 117.905 159.801 111.492C167.396 105.788 170.033 94.6263 165.316 86.3376ZM121.849 18.8605C125.284 18.8353 126.448 22.6309 124.581 24.9512C123.255 24.6394 121.899 24.4767 120.537 24.4662C120.76 23.4816 120.71 22.4547 120.392 21.4965C120.074 20.5383 119.501 19.6852 118.733 19.0293C119.757 18.9323 120.798 18.8693 121.849 18.8605ZM119.064 38.18C118.792 36.9404 119.887 36.7551 120.158 38.0035C120.674 41.8041 120.255 45.6732 118.94 49.2759C114.067 48.6319 109.11 49.1983 104.508 50.9249C102.983 50.0825 101.396 49.3574 99.7608 48.756C102.229 46.977 105.371 44.4792 107.791 42.8486C110.28 45.8431 113.732 47.8798 117.556 48.6105C117.666 48.6067 117.771 48.5675 117.857 48.4988C117.942 48.43 118.003 48.3355 118.03 48.2292C119.141 45.0032 119.495 41.5647 119.064 38.18ZM114.106 24.1073C114.486 23.4274 114.676 22.6578 114.655 21.8794C114.635 21.1009 114.405 20.3423 113.991 19.6831C115.02 19.5211 116.152 19.2825 117.289 19.1981C118.216 19.6942 118.944 20.4945 119.35 21.4644C119.757 22.4343 119.816 23.5146 119.52 24.5234C117.843 24.6621 114.538 24.9919 113.409 25.1054C112.982 24.796 114.017 24.5748 114.106 24.1073ZM101.454 22.3506C102.887 22.9559 104.233 21.6891 104.786 20.3621C105.29 20.5664 105.849 20.5953 106.371 20.4442C106.894 20.2931 107.35 19.9707 107.667 19.5289C107.844 19.6868 108.062 19.7909 108.296 19.8288C108.53 19.8668 108.77 19.8371 108.987 19.7432C109.269 20.2127 109.918 21.0683 110.416 21.7123C110.384 22.1089 110.456 22.5071 110.627 22.8667C110.737 23.0861 110.915 23.2643 111.134 23.375C111.353 23.4858 111.602 23.5233 111.845 23.4821C112.087 23.4408 112.309 23.323 112.479 23.1458C112.65 22.9687 112.758 22.7416 112.79 22.4981C112.782 22.3671 113.158 22.3739 113.285 22.1033C113.497 21.8331 113.601 21.4934 113.576 21.1507C113.798 22.08 113.717 23.8085 112.601 24.0743C112.222 24.0956 111.864 24.5593 112.09 24.9114C112.929 26.338 113.972 27.6344 115.187 28.7594C115.52 31.5549 111.21 35.1381 109.441 31.7043C110.09 31.1175 110.323 31.877 110.834 32.3125C111.125 32.6035 111.619 32.1185 111.325 31.8217C110.949 31.51 110.618 31.1465 110.344 30.7421C110.247 30.5481 110.053 30.5481 109.853 30.6451C108.784 31.4436 107.447 31.7956 106.124 31.6267C105.375 31.4415 104.671 31.1061 104.055 30.6407C103.439 30.1753 102.924 29.5897 102.542 28.9195C102.464 28.4509 102.333 27.6691 101.704 27.3675C100.966 26.8369 100.765 25.6137 100.389 24.7746C100.907 24.0483 101.27 23.2231 101.454 22.3506ZM106.519 32.3251C104.15 33.7646 100.602 31.684 100.435 29.0126C100.451 28.7993 100.547 28.6001 100.705 28.4558C100.863 28.3115 101.07 28.233 101.284 28.2366C101.517 28.3937 101.56 29.0009 101.623 29.2774C101.789 29.9399 102.586 30.9982 103.192 30.7498C104.068 31.6676 105.253 32.2287 106.519 32.3251ZM50.3801 38.1451C49.1085 37.9734 47.851 37.7098 46.6174 37.3565C47.9259 36.9413 49.2277 35.0285 50.5469 36.0422C50.7913 36.4049 50.1996 36.5747 50.1977 36.9103C50.1152 37.469 50.8233 37.3584 51.0261 37.7173C50.9606 37.8359 50.8678 37.9372 50.7555 38.0129C50.6432 38.0886 50.5145 38.1366 50.3801 38.1529V38.1451ZM61.535 39.4604C58.2312 39.1869 54.6548 38.7814 51.771 38.3624C51.862 38.2379 51.9257 38.0956 51.9582 37.9449C51.9907 37.7941 51.9912 37.6382 51.9597 37.4873C51.9281 37.3363 51.8652 37.1937 51.7751 37.0686C51.685 36.9435 51.5696 36.8386 51.4364 36.7609C51.519 36.5953 51.5645 36.4136 51.5698 36.2285C51.575 36.0434 51.5399 35.8594 51.4667 35.6894C51.3936 35.5193 51.2843 35.3672 51.1463 35.2437C51.0084 35.1201 50.8452 35.0282 50.6681 34.9742C53.3441 33.2214 56.1306 31.6435 59.0101 30.2503C60.0724 30.2957 61.0927 30.6774 61.924 31.3403C62.7553 32.0031 63.3545 32.9129 63.6353 33.9384C63.9161 34.9638 63.8639 36.052 63.4862 37.0459C63.1086 38.0397 62.425 38.888 61.5341 39.4682L61.535 39.4604ZM63.2811 39.2257C63.9032 38.5238 64.3516 37.6854 64.5901 36.7783C64.8285 35.8711 64.8502 34.9206 64.6536 34.0035C64.4569 33.0864 64.0473 32.2283 63.4579 31.4987C62.8685 30.769 62.1158 30.1882 61.2605 29.8031C71.2612 27.8874 82.0137 25.9881 95.4589 23.7639C95.4928 24.7029 96.2804 25.8901 97.3135 25.3848C97.6045 25.1908 97.6103 24.926 97.8819 25.3431C97.9967 25.4859 98.1403 25.6031 98.3033 25.6868C98.4663 25.7705 98.6451 25.819 98.8281 25.8291C99.0111 25.8391 99.1942 25.8106 99.3654 25.7452C99.5366 25.6799 99.6922 25.5792 99.8219 25.4498C100.07 26.1052 100.364 26.7427 100.7 27.3577C99.109 27.8748 99.2787 29.8196 100.071 31.004C99.6966 31.2542 99.3444 31.5366 99.0188 31.8479C87.2481 34.9498 75.3189 37.4152 63.283 39.2335L63.2811 39.2257ZM49.1928 99.1911C49.132 99.2102 49.0681 99.2172 49.0046 99.2116C48.9412 99.206 48.8795 99.1879 48.823 99.1585C48.7665 99.129 48.7164 99.0887 48.6755 99.0399C48.6346 98.9911 48.6037 98.9347 48.5846 98.8739C47.8958 96.6763 46.5398 94.7476 44.7049 93.3558C42.87 91.964 40.6472 91.178 38.3453 91.1071C38.2166 91.1071 38.0933 91.056 38.0023 90.9651C37.9114 90.8741 37.8603 90.7508 37.8603 90.6221C37.8603 90.4935 37.9114 90.3701 38.0023 90.2792C38.0933 90.1882 38.2166 90.1371 38.3453 90.1371C40.8549 90.2036 43.2807 91.0543 45.2822 92.5697C47.2837 94.0852 48.7604 96.1893 49.5051 98.5868C49.5427 98.7084 49.5311 98.8398 49.4726 98.9529C49.4142 99.0659 49.3137 99.1515 49.1928 99.1911ZM49.4518 94.9231C42.8121 84.5441 15.3213 83.0746 3.89086 84.321C18.3526 73.2843 34.2519 63.9006 49.6438 54.8097C60.4865 47.4814 72.9238 44.7722 86.7997 46.5075C87.0247 49.3903 89.2683 49.6668 91.898 49.7638C95.9235 49.7638 100.661 45.2678 102.427 41.1463C103.677 38.7829 104.688 36.3006 105.445 33.7365C105.938 33.6674 106.414 33.5086 106.85 33.268C104.368 38.4274 103.442 44.9283 98.5832 48.4048C98.1351 48.7298 98.5153 49.2555 98.883 49.4485C100.57 50.1052 102.011 50.7095 103.433 51.4302C101.545 52.2402 99.5862 53.7582 97.75 54.3781C87.5524 48.0517 73.4311 48.1051 61.5962 50.2071C50.7778 55.3413 41.6326 62.4174 31.1779 68.2151C24.5208 72.0748 17.6377 76.0653 11.0592 80.3857C10.9703 80.4442 10.9031 80.5303 10.868 80.6308C10.8329 80.7313 10.8318 80.8405 10.8649 80.9416C10.898 81.0428 10.9634 81.1302 11.0511 81.1905C11.1388 81.2508 11.2439 81.2805 11.3502 81.2752C20.6112 80.662 29.9053 81.7869 38.7527 84.5916C42.6579 85.8061 47.4448 87.7247 49.8485 91.8113C49.5345 92.8166 49.4002 93.8693 49.4518 94.9212V94.9231ZM55.8411 66.9813C46.2071 69.3403 47.5874 65.9463 49.5759 58.1271C55.2262 55.0154 59.7279 50.533 66.71 50.3671C77.25 49.5911 88.1887 49.6241 96.9003 55.0066C92.7768 57.3453 88.6553 59.8198 84.5716 62.4271C83.8354 62.7463 83.1457 63.6745 82.359 63.532C73.4244 63.7625 64.5377 64.9178 55.8411 66.9793V66.9813ZM81.2551 64.5476C78.1618 66.5632 74.9754 68.7438 71.5484 71.1901C70.4513 71.0456 68.1592 71.8895 67.4472 71.0689C66.5024 69.7341 66.7682 67.5351 66.6431 65.9414C71.4849 65.2174 76.3619 64.7515 81.2532 64.5456L81.2551 64.5476ZM39.0505 83.6682C30.6667 81.0238 21.8874 79.8557 13.1039 80.216C24.774 72.7896 36.8505 66.248 48.4119 58.8478C45.8317 67.5575 46.9569 70.3055 56.0866 67.9202C59.2792 67.1947 62.4837 66.5803 65.7002 66.0772C65.6675 67.282 65.7357 68.4874 65.9039 69.6808C66.1726 72.1543 67.8905 72.7276 70.0381 72.2678C64.799 76.1193 59.7994 80.2864 55.0671 84.7459C53.0816 86.3766 51.4539 88.3995 50.286 90.6881C47.568 86.6994 42.6123 84.7876 39.0485 83.6663L39.0505 83.6682ZM74.2275 95.0114C74.1907 95.1346 74.1064 95.2381 73.9933 95.2993C73.8802 95.3604 73.7474 95.3741 73.6242 95.3373C73.7464 95.1869 50.3189 89.3844 52.3938 99.2173C52.4075 99.2795 52.4089 99.3438 52.3978 99.4066C52.3867 99.4694 52.3633 99.5293 52.3291 99.583C52.2948 99.6368 52.2503 99.6832 52.198 99.7197C52.1458 99.7563 52.0869 99.7821 52.0247 99.7959C51.9625 99.8097 51.8981 99.811 51.8354 99.7999C51.7726 99.7888 51.7127 99.7655 51.6589 99.7312C51.6052 99.6969 51.5588 99.6524 51.5222 99.6002C51.4857 99.5479 51.4598 99.489 51.4461 99.4268C50.4266 95.3092 54.4531 92.3681 59.5805 92.5282C64.417 92.5005 69.2346 93.132 73.9006 94.4051C73.9616 94.4234 74.0185 94.4536 74.0678 94.4939C74.1172 94.5342 74.1581 94.5838 74.1883 94.6399C74.2185 94.6961 74.2373 94.7576 74.2437 94.821C74.2501 94.8844 74.2439 94.9484 74.2256 95.0094L74.2275 95.0114ZM88.4807 94.1772C88.4398 94.2991 88.3521 94.3998 88.2369 94.4571C88.1218 94.5144 87.9886 94.5236 87.8667 94.4827C87.7697 94.4488 77.8669 91.1401 70.5813 90.1245C62.8387 89.0459 54.9061 90.7065 52.5218 93.9017C52.1658 94.4129 51.352 93.8212 51.7458 93.3197C54.7295 89.3175 63.7418 88.1894 70.7171 89.1613C78.0891 90.1895 88.0801 93.5263 88.1771 93.5603C88.2985 93.6019 88.3985 93.6901 88.455 93.8054C88.5116 93.9207 88.5201 94.0537 88.4787 94.1752L88.4807 94.1772ZM103.322 96.9485C100.113 94.2719 96.4234 92.2309 92.4509 90.9345C85.2854 88.3668 77.7201 87.0947 70.1089 87.1777C64.7196 87.458 53.0282 87.9537 50.4024 94.0908C50.5721 90.6173 52.9981 87.9003 55.7286 85.4578C68.5705 73.1485 88.1431 60.6258 103.507 52.4681C107.236 50.4796 112.319 49.7065 118.606 50.1663C118.243 50.7008 117.918 52.4769 117.283 52.247C113.83 51.7827 110.336 51.7156 106.868 52.0472C106.804 52.0526 106.742 52.0706 106.686 52.1C106.629 52.1295 106.578 52.1698 106.537 52.2187C106.496 52.2676 106.465 52.3242 106.446 52.3851C106.426 52.446 106.419 52.5102 106.425 52.5739C106.436 52.7025 106.497 52.8215 106.596 52.9046C106.645 52.9458 106.702 52.9769 106.763 52.9962C106.824 53.0155 106.888 53.0226 106.951 53.0172C110.314 52.6963 113.703 52.7574 117.052 53.1995C116.455 54.1724 115.782 55.097 115.04 55.965C114.969 55.8711 114.865 55.8071 114.749 55.7855C111.202 55.1906 107.59 55.0898 104.015 55.4858C103.952 55.4928 103.89 55.5122 103.834 55.543C103.777 55.5737 103.728 55.6153 103.688 55.6652C103.648 55.7152 103.618 55.7725 103.6 55.834C103.582 55.8955 103.576 55.96 103.583 56.0237C103.59 56.0874 103.609 56.1491 103.64 56.2052C103.671 56.2614 103.713 56.311 103.763 56.3511C103.812 56.3913 103.87 56.4212 103.931 56.4391C103.993 56.4571 104.057 56.4628 104.121 56.4558C107.563 56.0752 111.041 56.1669 114.458 56.7284C113.688 57.5325 112.729 59.0709 111.645 59.2339C111.362 59.0806 100.566 56.7555 103.442 58.9099C105.931 59.078 108.402 59.4553 110.828 60.038C109.712 60.9964 107.894 60.7296 106.793 61.624C106.235 61.8519 105.874 62.5067 106.184 62.9131C105.117 62.7424 97.3494 61.2641 97.2999 62.5484C97.2999 62.677 97.351 62.8004 97.442 62.8913C97.5329 62.9823 97.6563 63.0334 97.7849 63.0334C99.0323 63.1721 107.118 63.0266 105.429 64.5359C105.009 65.1344 104.867 66.4817 105.833 66.5661C106.072 66.4749 105.853 67.2228 106.096 67.475C99.7189 65.0264 92.863 64.082 86.0615 64.7154C85.9329 64.7275 85.8143 64.7901 85.7319 64.8896C85.6495 64.9892 85.61 65.1173 85.6221 65.246C85.6342 65.3746 85.6969 65.4931 85.7964 65.5755C85.8959 65.6579 86.0241 65.6975 86.1527 65.6854C99.6512 64.2934 112.784 69.7836 122.122 79.2314C122.217 79.2316 122.31 79.2041 122.389 79.1521C122.468 79.1002 122.531 79.0261 122.568 78.9391C122.606 78.8521 122.617 78.756 122.601 78.6626C122.585 78.5692 122.541 78.4827 122.476 78.4137C118.162 73.8507 112.922 70.2635 107.108 67.8931C107.357 67.7726 107.564 67.5804 107.703 67.3412C107.71 67.5047 107.764 67.6628 107.859 67.7963C107.954 67.9298 108.085 68.033 108.238 68.0935C108.39 68.154 108.556 68.1692 108.717 68.1372C108.877 68.1053 109.025 68.0276 109.143 67.9135C109.918 67.03 110.794 66.2408 111.754 65.5622C116.656 67.4881 121.079 70.46 124.715 74.2708C124.758 74.3194 124.811 74.3588 124.869 74.3866C124.928 74.4145 124.992 74.4303 125.057 74.433C125.122 74.4358 125.187 74.4254 125.248 74.4026C125.308 74.3798 125.364 74.345 125.411 74.3003C125.458 74.2555 125.496 74.2017 125.522 74.1422C125.548 74.0826 125.562 74.0184 125.562 73.9534C125.563 73.8884 125.551 73.8239 125.526 73.7638C125.501 73.7037 125.465 73.6492 125.418 73.6035C122.001 70.0262 117.903 67.1679 113.365 65.1965C115.708 65.0098 118.001 64.4191 120.142 63.4505C123.899 65.3442 127.362 67.771 130.424 70.6556C130.47 70.7016 130.525 70.7378 130.585 70.7622C130.645 70.7867 130.71 70.7988 130.774 70.7978C130.839 70.7969 130.903 70.783 130.963 70.7569C131.022 70.7307 131.076 70.693 131.12 70.6458C131.165 70.5985 131.199 70.5429 131.222 70.4821C131.245 70.4212 131.255 70.3565 131.252 70.2917C131.249 70.2268 131.233 70.1632 131.206 70.1046C131.178 70.046 131.138 69.9936 131.09 69.9505C128.149 67.1832 124.847 64.827 121.274 62.9461C122.879 62.2095 124.419 61.3389 125.878 60.3436C129.517 62.1289 132.868 64.4472 135.822 67.2218C136.271 67.6603 136.954 66.9405 136.487 66.5157C133.59 63.798 130.32 61.5077 126.775 59.714C127.932 58.8555 129.015 57.9033 130.015 56.8671C133.39 58.3719 136.572 60.2777 139.491 62.5435C139.542 62.5822 139.6 62.6104 139.662 62.6267C139.724 62.6429 139.788 62.6468 139.852 62.6381C139.915 62.6294 139.976 62.6083 140.031 62.576C140.086 62.5437 140.135 62.5009 140.173 62.4499C140.212 62.399 140.24 62.3409 140.257 62.279C140.273 62.2172 140.277 62.1527 140.268 62.0893C140.259 62.026 140.238 61.9649 140.206 61.9097C140.174 61.8545 140.131 61.8062 140.08 61.7675C137.191 59.5272 134.051 57.6292 130.725 56.1115C131.651 55.0767 132.487 53.9649 133.225 52.7882C139.062 54.6264 144.612 57.273 149.715 60.6511C146.965 62.1749 134.68 72.0971 129.862 75.6094C127.896 77.0509 103.423 96.8398 103.322 96.9465V96.9485ZM109.605 64.1566C108.683 63.5601 107.247 66.0132 106.945 66.6563C107.218 65.5766 107.828 64.6117 108.685 63.9006C108.779 63.8211 108.839 63.7093 108.855 63.5873C108.87 63.4653 108.839 63.342 108.768 63.2418C108.696 63.1416 108.59 63.0717 108.47 63.046C108.35 63.0204 108.224 63.0408 108.118 63.1032C108.383 62.9438 108.661 62.8081 108.95 62.6978C109.047 62.66 109.13 62.5916 109.186 62.5029C109.241 62.4142 109.267 62.3098 109.258 62.2054C109.249 62.1011 109.207 62.0023 109.138 61.9239C109.068 61.8455 108.976 61.7917 108.873 61.7704C110.582 60.9838 111.977 62.6434 112.243 64.1537C110.865 64.8361 109.656 65.8165 108.704 67.024C108.836 66.2148 109.162 65.4495 109.653 64.793C109.723 64.6986 109.757 64.5818 109.748 64.4643C109.739 64.3469 109.687 64.2368 109.602 64.1547L109.605 64.1566ZM104.962 108.721L104.613 103.757C107.302 101.33 110.193 99.1364 113.254 97.1997C113.363 97.1306 113.44 97.0212 113.468 96.8956C113.496 96.77 113.472 96.6385 113.403 96.5299C113.334 96.4214 113.225 96.3447 113.099 96.3167C112.974 96.2888 112.842 96.3119 112.734 96.381C109.841 98.2152 107.097 100.274 104.527 102.538L104.4 100.729L128.12 81.3664C128.169 81.3261 128.21 81.2764 128.24 81.2203C128.27 81.1642 128.289 81.1026 128.296 81.0392C128.302 80.9758 128.296 80.9118 128.277 80.8507C128.259 80.7897 128.229 80.7329 128.189 80.6835C128.148 80.6341 128.099 80.5932 128.042 80.563C127.986 80.5329 127.925 80.514 127.861 80.5076C127.798 80.5013 127.734 80.5074 127.673 80.5258C127.612 80.5441 127.555 80.5743 127.506 80.6146L104.317 99.5461L104.185 97.6692C116.652 88.0254 117.208 86.1126 138.996 69.8961C141.562 67.9008 147.274 63.2468 150.036 61.5541C149.75 63.2054 149.601 64.8776 149.593 66.5535L137.222 76.5862C137.145 76.6494 137.088 76.7351 137.061 76.8315C137.034 76.9279 137.038 77.0303 137.071 77.1247C137.105 77.2191 137.166 77.3008 137.248 77.3586C137.33 77.4164 137.428 77.4475 137.528 77.4476C137.788 77.4476 136.857 78.1266 149.556 67.8368C149.536 68.3936 149.518 68.8505 149.501 68.932C148.579 70.0669 113.667 100.992 104.962 108.719V108.721ZM163.411 96.7836L166.666 96.9543C166.361 101.051 164.738 104.939 162.038 108.035C161.326 107.447 159.419 105.125 158.709 105.95C158.64 106.059 158.617 106.19 158.645 106.316C158.673 106.441 158.75 106.55 158.858 106.619C159.782 107.225 160.628 107.94 161.38 108.749C158.689 111.508 155.319 113.511 151.609 114.557L150.754 111.478C150.716 111.357 150.634 111.256 150.523 111.196C150.412 111.135 150.282 111.12 150.16 111.154C150.039 111.188 149.935 111.268 149.871 111.377C149.808 111.486 149.789 111.616 149.82 111.738L150.683 114.842C147.029 115.799 143.252 116.201 139.478 116.036L139.97 112.754C139.983 112.629 139.948 112.505 139.871 112.406C139.795 112.307 139.683 112.242 139.56 112.223C139.436 112.205 139.31 112.235 139.208 112.307C139.106 112.379 139.036 112.487 139.012 112.61L138.5 116.024C135.449 115.979 132.402 115.773 129.373 115.407C131.974 102.539 134.275 92.1499 136.822 81.7864C139.635 79.0345 142.297 76.8927 144.142 75.1526C144.385 75.6764 145.177 75.5076 145.647 75.6783C145.53 76.4339 144.595 79.2431 145.674 79.408C145.802 79.408 145.926 79.3569 146.017 79.2659C146.108 79.1749 146.159 79.0516 146.159 78.923C146.166 77.8879 146.316 76.8589 146.603 75.8645C149.453 76.4163 152.232 77.2816 154.892 78.4447L153.208 81.2228C153.175 81.2774 153.153 81.3378 153.143 81.4008C153.134 81.4638 153.137 81.5281 153.152 81.59C153.167 81.6518 153.194 81.7101 153.232 81.7615C153.27 81.8128 153.317 81.8562 153.372 81.8892C153.426 81.9222 153.487 81.9441 153.55 81.9538C153.613 81.9634 153.677 81.9605 153.739 81.9453C153.801 81.93 153.859 81.9028 153.91 81.865C153.962 81.8273 154.005 81.7798 154.038 81.7253L155.775 78.8599C159.445 80.7107 162.143 82.8738 164.009 85.9952L161.551 87.2232C161.492 87.2505 161.439 87.2893 161.395 87.3374C161.352 87.3854 161.318 87.4418 161.296 87.5031C161.275 87.5644 161.266 87.6294 161.27 87.6942C161.274 87.759 161.291 87.8223 161.32 87.8804C161.349 87.9385 161.39 87.9902 161.439 88.0324C161.489 88.0746 161.546 88.1064 161.608 88.126C161.67 88.1456 161.735 88.1525 161.8 88.1464C161.864 88.1403 161.927 88.1213 161.984 88.0904L164.488 86.8401C165.998 89.6455 166.758 92.7931 166.696 95.9785L163.463 95.8087C163.334 95.8019 163.207 95.8466 163.111 95.933C163.015 96.0194 162.957 96.1404 162.951 96.2695C162.944 96.3985 162.988 96.5249 163.075 96.621C163.161 96.717 163.282 96.7748 163.411 96.7816V96.7836Z" fill="#03545A"/>
</g>
</svg>
