<svg xmlns="http://www.w3.org/2000/svg" width="40" height="41" viewBox="0 0 40 41" fill="none">
<path d="M30 9.479H27.5V8.229C27.5 7.89748 27.3683 7.57954 27.1339 7.34512C26.8995 7.1107 26.5815 6.979 26.25 6.979C25.9185 6.979 25.6005 7.1107 25.3661 7.34512C25.1317 7.57954 25 7.89748 25 8.229V9.479H21.25V8.229C21.25 7.89748 21.1183 7.57954 20.8839 7.34512C20.6495 7.1107 20.3315 6.979 20 6.979C19.6685 6.979 19.3505 7.1107 19.1161 7.34512C18.8817 7.57954 18.75 7.89748 18.75 8.229V9.479H15V8.229C15 7.89748 14.8683 7.57954 14.6339 7.34512C14.3995 7.1107 14.0815 6.979 13.75 6.979C13.4185 6.979 13.1005 7.1107 12.8661 7.34512C12.6317 7.57954 12.5 7.89748 12.5 8.229V9.479H10C9.00544 9.479 8.05161 9.87409 7.34835 10.5774C6.64509 11.2806 6.25 12.2344 6.25 13.229V30.729C6.25 31.7236 6.64509 32.6774 7.34835 33.3807C8.05161 34.0839 9.00544 34.479 10 34.479H30C30.9946 34.479 31.9484 34.0839 32.6517 33.3807C33.3549 32.6774 33.75 31.7236 33.75 30.729V13.229C33.75 12.2344 33.3549 11.2806 32.6517 10.5774C31.9484 9.87409 30.9946 9.479 30 9.479ZM8.75 13.229C8.75 12.8975 8.8817 12.5795 9.11612 12.3451C9.35054 12.1107 9.66848 11.979 10 11.979H12.5V13.229C12.5 13.5605 12.6317 13.8785 12.8661 14.1129C13.1005 14.3473 13.4185 14.479 13.75 14.479C14.0815 14.479 14.3995 14.3473 14.6339 14.1129C14.8683 13.8785 15 13.5605 15 13.229V11.979H18.75V13.229C18.75 13.5605 18.8817 13.8785 19.1161 14.1129C19.3505 14.3473 19.6685 14.479 20 14.479C20.3315 14.479 20.6495 14.3473 20.8839 14.1129C21.1183 13.8785 21.25 13.5605 21.25 13.229V11.979H25V13.229C25 13.5605 25.1317 13.8785 25.3661 14.1129C25.6005 14.3473 25.9185 14.479 26.25 14.479C26.5815 14.479 26.8995 14.3473 27.1339 14.1129C27.3683 13.8785 27.5 13.5605 27.5 13.229V11.979H30C30.3315 11.979 30.6495 12.1107 30.8839 12.3451C31.1183 12.5795 31.25 12.8975 31.25 13.229V16.979H8.75V13.229ZM31.25 30.729C31.25 31.0605 31.1183 31.3785 30.8839 31.6129C30.6495 31.8473 30.3315 31.979 30 31.979H10C9.66848 31.979 9.35054 31.8473 9.11612 31.6129C8.8817 31.3785 8.75 31.0605 8.75 30.729V19.479H31.25V30.729Z" fill="#018183"/>
</svg>
