<svg xmlns="http://www.w3.org/2000/svg" width="40" height="40" viewBox="0 0 40 40" fill="none">
  <path d="M1.66699 36.6666H38.3337M32.967 36.6833V29.25M3.50028 36.6666V10.05C3.50028 6.70003 5.16704 5.01666 8.4837 5.01666H18.867C22.1837 5.01666 23.8336 6.70003 23.8336 10.05V36.6666M9.66697 13.75H17.917M9.66697 20H17.917M13.7503 36.6666V30.4166M33.0003 18.15C30.967 18.15 29.3336 19.7834 29.3336 21.8167V25.6C29.3336 27.6333 30.967 29.2666 33.0003 29.2666C35.0336 29.2666 36.667 27.6333 36.667 25.6V21.8167C36.667 19.7834 35.0336 18.15 33.0003 18.15Z" stroke="white" stroke-width="3" stroke-miterlimit="10" stroke-linecap="round" stroke-linejoin="round"/>
</svg>