<svg xmlns="http://www.w3.org/2000/svg" width="40" height="41" viewBox="0 0 40 41" fill="none">
<g clip-path="url(#clip0_74_1602)">
<path fill-rule="evenodd" clip-rule="evenodd" d="M17.9288 39.479H8.75C6.67875 39.479 5 37.8003 5 35.729V25.3153C5 23.5028 6.29625 21.9503 8.07875 21.6265C10.7212 21.1453 15.2775 20.3165 17.855 19.849C19.2737 19.5903 20.7263 19.5903 22.145 19.849C24.7225 20.3165 29.2788 21.1453 31.9213 21.6265C33.7038 21.9503 35 23.5028 35 25.3153C35 28.0415 35 32.8115 35 35.729C35 37.8003 33.3212 39.479 31.25 39.479H17.9288ZM29.785 23.779L29.79 23.7853C30.0088 24.1128 30.06 24.524 29.9287 24.8952L29.0462 27.3952C28.9312 27.7215 28.685 27.9865 28.3675 28.1253L26.7075 28.849L27.3675 30.1702C27.5525 30.539 27.5425 30.9752 27.3425 31.3365L24.2075 36.979H31.25C31.94 36.979 32.5 36.419 32.5 35.729C32.5 32.8115 32.5 28.0415 32.5 25.3153C32.5 24.7115 32.0675 24.194 31.4738 24.0853L29.785 23.779ZM26.3663 23.1565L21.6975 22.3078C20.575 22.104 19.425 22.104 18.3025 22.3078L13.6337 23.1565L12.6363 24.6528L13.13 26.0503L15.5 27.0827C15.8138 27.2202 16.0575 27.4802 16.175 27.8027C16.2925 28.1252 16.2712 28.4815 16.1175 28.7878L15.1625 30.6978L18.6525 36.979H21.3475L24.8375 30.6978L23.8825 28.7878C23.7288 28.4815 23.7075 28.1252 23.825 27.8027C23.9425 27.4802 24.1862 27.2202 24.5 27.0827L26.87 26.0503L27.3638 24.6528L26.3663 23.1565ZM10.215 23.779L8.52625 24.0853C7.9325 24.194 7.5 24.7115 7.5 25.3153V35.729C7.5 36.419 8.06 36.979 8.75 36.979H15.7925L12.6575 31.3365C12.4575 30.9752 12.4475 30.539 12.6325 30.1702L13.2925 28.849L11.6325 28.1253C11.315 27.9865 11.0688 27.7215 10.9538 27.3952L10.0712 24.8952C9.94 24.524 9.99125 24.1128 10.21 23.7853L10.215 23.779ZM28.75 30.729V33.229C28.75 33.919 29.31 34.479 30 34.479C30.69 34.479 31.25 33.919 31.25 33.229V30.729C31.25 30.039 30.69 29.479 30 29.479C29.31 29.479 28.75 30.039 28.75 30.729ZM20 1.979C15.5163 1.979 11.875 5.62025 11.875 10.104C11.875 14.5878 15.5163 18.229 20 18.229C24.4837 18.229 28.125 14.5878 28.125 10.104C28.125 5.62025 24.4837 1.979 20 1.979ZM20 4.479C23.105 4.479 25.625 6.999 25.625 10.104C25.625 13.209 23.105 15.729 20 15.729C16.895 15.729 14.375 13.209 14.375 10.104C14.375 6.999 16.895 4.479 20 4.479Z" fill="#018183"/>
</g>
<defs>
<clipPath id="clip0_74_1602">
<rect width="40" height="40" fill="white" transform="translate(0 0.729004)"/>
</clipPath>
</defs>
</svg>