<svg xmlns="http://www.w3.org/2000/svg" width="20" height="27" viewBox="0 0 20 27" fill="none">
  <path d="M14.5419 10.5357C17.7817 11.968 20 14.886 20 18.2529C20 23.0359 15.5227 26.9136 9.99971 26.9136C4.47677 26.9136 0 23.0359 0 18.2529C0 14.9651 2.11533 12.1051 5.23221 10.6381C6.64901 9.97171 8.27315 9.5927 9.99971 9.5927C11.6351 9.5927 13.1792 9.93269 14.5419 10.5357Z" fill="#FFAD67"/>
  <path d="M9.99963 26.5596C7.43789 26.5596 5.02948 25.6956 3.21821 24.1267C1.40678 22.5579 0.40918 20.472 0.40918 18.2535C0.40918 15.2055 2.33225 12.407 5.42762 10.9502C6.82174 10.2944 8.40286 9.9477 9.99963 9.9477C11.5341 9.9477 12.9996 10.2519 14.3555 10.852C15.9062 11.5375 17.2143 12.5767 18.1386 13.8573C19.0885 15.1733 19.5905 16.6934 19.5905 18.2535C19.5905 20.472 18.5929 22.5579 16.7815 24.1267C14.9699 25.6956 12.5614 26.5596 9.99963 26.5596Z" fill="#F69C62"/>
  <path d="M9.99989 25.5459C7.75053 25.5459 5.63593 24.7872 4.04545 23.4097C2.45497 22.0322 1.5791 20.2007 1.5791 18.2526C1.5791 15.5763 3.26747 13.1193 5.98549 11.8401C7.20959 11.2641 8.59786 10.9597 9.99989 10.9597C11.3473 10.9597 12.6341 11.2269 13.8247 11.7538C15.1861 12.3557 16.3347 13.2682 17.1464 14.3927C17.9804 15.5481 18.4213 16.8828 18.4213 18.2526C18.4213 20.2007 17.5452 22.0321 15.9548 23.4097C14.3641 24.7872 12.2492 25.5459 9.99989 25.5459Z" stroke="#BC7546" stroke-width="2.61099" stroke-miterlimit="10"/>
  <path d="M9.99915 23.1987C8.47378 23.1987 7.04 22.6844 5.96149 21.7504C4.88297 20.8162 4.28906 19.5744 4.28906 18.2533C4.28906 16.4387 5.43401 14.7725 7.27689 13.9051C8.1071 13.5146 9.04837 13.3083 9.99915 13.3083C10.9128 13.3083 11.7853 13.4893 12.5926 13.8466C13.5158 14.2549 14.2946 14.8735 14.8451 15.636C15.4106 16.4195 15.7095 17.3246 15.7095 18.2533C15.7095 19.5744 15.1155 20.8162 14.037 21.7504C12.9584 22.6844 11.5244 23.1987 9.99915 23.1987V23.1987Z" stroke="#F69C62" stroke-width="1.865" stroke-miterlimit="10"/>
  <path d="M9.99994 24.2749C8.14257 24.2749 6.39655 23.6485 5.08334 22.5111C3.77013 21.3736 3.04688 19.8615 3.04688 18.253C3.04688 16.0433 4.441 14.0145 6.68523 12.9582C7.696 12.4827 8.84212 12.2315 9.99994 12.2315C11.1124 12.2315 12.1748 12.4521 13.1578 12.887C14.2821 13.3841 15.2304 14.1376 15.9005 15.0659C16.5892 16.02 16.9531 17.122 16.9531 18.253C16.9531 19.8614 16.2299 21.3736 14.9165 22.5111C13.6032 23.6485 11.8572 24.2749 9.99994 24.2749V24.2749Z" stroke="#BC7546" stroke-width="2.61099" stroke-miterlimit="10"/>
  <path d="M13.053 9.21704V8.89695C13.053 8.80432 12.9662 8.72917 12.8591 8.72917H6.78132C6.67436 8.72917 6.5876 8.80432 6.5876 8.89695V9.21704C6.5876 9.31018 6.67436 9.38532 6.78132 9.38532H12.8591C12.9662 9.38532 13.053 9.31018 13.053 9.21704ZM14.0551 8.97754C14.3097 9.46921 14.4511 9.99864 14.4736 10.5358C13.1109 9.93274 11.5668 9.59263 9.93156 9.59263C8.20485 9.59263 6.58087 9.97177 5.16406 10.6382C5.17138 10.0659 5.31506 9.50051 5.58546 8.97754L5.71159 8.73399C5.85234 8.46129 6.14527 8.27058 6.48722 8.22914L6.8596 8.18378C8.82349 7.94567 10.8171 7.94567 12.7814 8.18378L13.1532 8.22914C13.4952 8.27058 13.7881 8.46129 13.929 8.73399L14.0551 8.97754Z" fill="#F69C62"/>
  <path d="M16.1683 0.466954L12.701 8.85254H10.7744L14.2316 0.473798V0.466954H16.1683Z" fill="#FF545F"/>
  <path d="M14.2316 0.466954V0.473798L10.7744 8.85254H8.87207L12.3291 0.473798V0.466954H14.2316Z" fill="#62DADC"/>
  <path d="M12.3293 0.466954V0.473798L8.87226 8.85254H6.92871L10.396 0.466954H12.3293Z" fill="#AC748C"/>
  <path d="M19.3345 18.2536C19.3345 20.9847 16.7779 23.1987 13.6243 23.1987C10.4707 23.1987 7.91406 20.9847 7.91406 18.2536C7.91406 15.5223 10.4707 13.3083 13.6243 13.3083C16.7779 13.3083 19.3345 15.5223 19.3345 18.2536Z" fill="#F9C8A9"/>
  <path d="M3.46094 0.466954L6.92825 8.85254H8.85483L5.39761 0.473798V0.466954H3.46094Z" fill="#AC748C"/>
  <path d="M5.39648 0.466954V0.473798L8.8537 8.85254H10.756L7.29892 0.473798V0.466954H5.39648Z" fill="#62DADC"/>
  <path d="M7.2998 0.466954V0.473798L10.7569 8.85254H12.7004L9.23311 0.466954H7.2998Z" fill="#FF545F"/>
  <path d="M18.9627 18.2533C18.9627 20.8065 16.5727 22.8765 13.6244 22.8765C10.6761 22.8765 8.28613 20.8065 8.28613 18.2533C8.28613 15.6999 10.6761 13.63 13.6244 13.63C16.5727 13.63 18.9627 15.6999 18.9627 18.2533Z" fill="#FFAD67"/>
  <path d="M17.6896 18.2531C17.6896 20.1973 15.8696 21.7734 13.6246 21.7734C11.3795 21.7734 9.55957 20.1973 9.55957 18.2531C9.55957 16.3087 11.3795 14.7326 13.6246 14.7326C15.8696 14.7326 17.6896 16.3087 17.6896 18.2531Z" fill="#BC7546"/>
  <path d="M8.82725 16.7127C8.82725 16.713 8.82739 16.7133 8.82739 16.7137C8.8271 16.7351 8.82564 17.0425 8.91445 17.2467C9.00649 17.4584 8.92821 17.7871 8.92821 17.7871C8.92821 17.7871 8.67771 17.5399 8.66 17.3591C8.6382 17.1415 8.82139 16.7256 8.82725 16.7127Z" fill="#BC7546"/>
  <path d="M8.88772 16.8921C8.95854 17.026 9.03141 17.1334 9.09257 17.2932C9.12827 17.3864 9.07545 17.6253 8.99498 17.7241C8.96864 17.7694 8.92899 17.7871 8.92899 17.7871C8.92899 17.7871 9.00727 17.4584 8.91523 17.2467C8.82642 17.0425 8.82788 16.7351 8.82817 16.7137C8.83081 16.7253 8.85085 16.8221 8.88772 16.8921Z" fill="#F9C8A9"/>
  <path d="M9.66307 17.0109C9.66278 17.0111 9.66278 17.0114 9.66249 17.0116C9.64595 17.0275 9.41053 17.2576 9.32142 17.4618C9.22924 17.6734 8.91992 17.8755 8.91992 17.8755C8.91992 17.8755 8.92021 17.5467 9.04473 17.4007C9.19427 17.2248 9.64888 17.0171 9.66307 17.0109Z" fill="#BC7546"/>
  <path d="M9.57119 17.1788C9.52232 17.32 9.49525 17.4421 9.41931 17.5972C9.37497 17.6877 9.1533 17.8369 9.01737 17.8651C8.96323 17.884 8.91992 17.8746 8.91992 17.8746C8.91992 17.8746 9.22924 17.6725 9.32142 17.4609C9.41053 17.2567 9.64595 17.0266 9.66249 17.0108C9.65547 17.021 9.59679 17.1052 9.57119 17.1788Z" fill="#F9C8A9"/>
  <path d="M8.60635 17.4661C8.60635 17.4664 8.6065 17.4666 8.60664 17.4669C8.60986 17.4882 8.66049 17.7924 8.78267 17.9833C8.90967 18.1811 8.88787 18.5161 8.88787 18.5161C8.88787 18.5161 8.59816 18.3034 8.55016 18.1267C8.49178 17.9142 8.60255 17.4796 8.60635 17.4661Z" fill="#BC7546"/>
  <path d="M8.69638 17.6359C8.78915 17.7595 8.87928 17.8564 8.96678 18.0067C9.01799 18.0945 9.00614 18.3374 8.94308 18.4454C8.92479 18.4934 8.88865 18.5161 8.88865 18.5161C8.88865 18.5161 8.91045 18.1811 8.78344 17.9833C8.66127 17.7924 8.61064 17.4882 8.60742 17.4669C8.61196 17.4783 8.6481 17.5716 8.69638 17.6359Z" fill="#F9C8A9"/>
  <path d="M9.48347 17.6545C9.48317 17.6548 9.48317 17.655 9.48288 17.6553C9.46927 17.6731 9.27526 17.9305 9.2217 18.1438C9.16625 18.3649 8.89439 18.604 8.89439 18.604C8.89439 18.604 8.83908 18.2787 8.93755 18.1185C9.05578 17.9256 9.4703 17.6625 9.48347 17.6545Z" fill="#BC7546"/>
  <path d="M9.42113 17.833C9.3967 17.9787 9.39055 18.1031 9.34154 18.2661C9.31315 18.3611 9.11898 18.5369 8.98935 18.582C8.93901 18.6076 8.89453 18.6038 8.89453 18.6038C8.89453 18.6038 9.16639 18.3647 9.22185 18.1436C9.2754 17.9303 9.46942 17.6729 9.48302 17.6551C9.4779 17.6662 9.43401 17.7569 9.42113 17.833Z" fill="#F9C8A9"/>
  <path d="M8.51562 18.2831C8.51577 18.2833 8.51592 18.2835 8.51606 18.2838C8.52499 18.3039 8.6555 18.5896 8.82553 18.7508C9.00184 18.9177 9.07032 19.248 9.07032 19.248C9.07032 19.248 8.73159 19.0992 8.63765 18.937C8.52411 18.7419 8.51562 18.2969 8.51562 18.2831Z" fill="#BC7546"/>
  <path d="M8.64746 18.4303C8.7708 18.532 8.88449 18.6081 9.00974 18.7369C9.0829 18.8119 9.13645 19.0506 9.10397 19.1683C9.099 19.2188 9.06988 19.248 9.06988 19.248C9.06988 19.248 9.0014 18.9177 8.82509 18.7508C8.65507 18.5896 8.52455 18.3039 8.51562 18.2838C8.52309 18.2939 8.58322 18.3774 8.64746 18.4303Z" fill="#F9C8A9"/>
  <path d="M9.41883 18.291C9.41868 18.2914 9.41868 18.2916 9.41854 18.2919C9.41005 18.312 9.29022 18.6013 9.29505 18.8195C9.30017 19.0457 9.09971 19.333 9.09971 19.333C9.09971 19.333 8.95895 19.0275 9.01192 18.852C9.07542 18.6405 9.4083 18.3015 9.41883 18.291Z" fill="#BC7546"/>
  <path d="M9.40571 18.4774C9.42092 18.6241 9.44829 18.7463 9.44419 18.9147C9.442 19.0129 9.30006 19.2228 9.18608 19.2927C9.14394 19.3277 9.09961 19.333 9.09961 19.333C9.09961 19.333 9.30007 19.0457 9.29495 18.8195C9.29012 18.6013 9.40995 18.312 9.41844 18.2919C9.41639 18.3038 9.39795 18.4009 9.40571 18.4774Z" fill="#F9C8A9"/>
  <path d="M8.62109 19.0506C8.62124 19.051 8.62153 19.051 8.62168 19.0514C8.63294 19.0704 8.79902 19.3421 8.9885 19.486C9.18486 19.6352 9.29474 19.957 9.29474 19.957C9.29474 19.957 8.93934 19.8412 8.82535 19.689C8.68767 19.5059 8.62285 19.0644 8.62109 19.0506Z" fill="#BC7546"/>
  <path d="M8.77273 19.1846C8.90808 19.2738 9.03069 19.3386 9.1716 19.4546C9.25383 19.5223 9.33723 19.7545 9.31996 19.8745C9.32143 19.9251 9.29611 19.957 9.29611 19.957C9.29611 19.957 9.18623 19.6352 8.98987 19.486C8.80039 19.3421 8.63431 19.0704 8.62305 19.0514C8.63168 19.0606 8.70206 19.1379 8.77273 19.1846Z" fill="#F9C8A9"/>
  <path d="M9.5204 18.9715C9.52025 18.9719 9.5204 18.9721 9.52025 18.9725C9.51425 18.9933 9.43187 19.2922 9.46436 19.5087C9.49816 19.733 9.3353 20.0376 9.3353 20.0376C9.3353 20.0376 9.15665 19.7474 9.18708 19.5678C9.22337 19.3517 9.51118 18.9829 9.5204 18.9715Z" fill="#BC7546"/>
  <path d="M9.53171 19.158C9.56537 19.3025 9.60809 19.4212 9.6255 19.589C9.6356 19.6868 9.52132 19.909 9.41671 19.9893C9.37925 20.0281 9.33594 20.0376 9.33594 20.0376C9.33594 20.0376 9.49879 19.733 9.46499 19.5087C9.43251 19.2922 9.51489 18.9933 9.52089 18.9725C9.5203 18.9844 9.5143 19.0826 9.53171 19.158Z" fill="#F9C8A9"/>
  <path d="M8.85742 19.802C8.85771 19.8024 8.85801 19.8024 8.85815 19.8026C8.87337 19.8196 9.09475 20.0599 9.31174 20.1709C9.53663 20.2859 9.71353 20.5845 9.71353 20.5845C9.71353 20.5845 9.3394 20.5278 9.19483 20.3966C9.02042 20.2388 8.86225 19.8153 8.85742 19.802Z" fill="#BC7546"/>
  <path d="M9.033 19.9095C9.18518 19.9755 9.3195 20.0194 9.48279 20.111C9.57819 20.1642 9.70988 20.3789 9.71865 20.4997C9.7308 20.5491 9.7128 20.5845 9.7128 20.5845C9.7128 20.5845 9.5359 20.2859 9.31101 20.1709C9.09402 20.0599 8.87264 19.8196 8.85742 19.8026C8.8681 19.8104 8.9537 19.875 9.033 19.9095Z" fill="#F9C8A9"/>
  <path d="M9.72358 19.5801C9.72358 19.5805 9.72372 19.5806 9.72372 19.581C9.72226 19.6024 9.70529 19.9095 9.78357 20.1169C9.86492 20.3319 9.77011 20.6572 9.77011 20.6572C9.77011 20.6572 9.53234 20.4007 9.52385 20.2196C9.51303 20.0012 9.71714 19.5928 9.72358 19.5801Z" fill="#BC7546"/>
  <path d="M9.77373 19.7616C9.83767 19.8981 9.90497 20.008 9.95794 20.17C9.98896 20.2645 9.92414 20.5011 9.83869 20.5969C9.81016 20.641 9.76963 20.6572 9.76963 20.6572C9.76963 20.6572 9.86444 20.3319 9.78309 20.1169C9.70481 19.9095 9.72178 19.6024 9.72324 19.581C9.72529 19.5928 9.74036 19.6904 9.77373 19.7616Z" fill="#F9C8A9"/>
  <path d="M9.22363 20.4917C9.22393 20.492 9.22422 20.492 9.22451 20.4923C9.24295 20.5066 9.50939 20.7097 9.7454 20.786C9.99019 20.8652 10.2247 21.1323 10.2247 21.1323C10.2247 21.1323 9.8449 21.1334 9.67605 21.0259C9.47237 20.897 9.23095 20.5042 9.22363 20.4917Z" fill="#BC7546"/>
  <path d="M9.41907 20.5708C9.58207 20.6127 9.72341 20.6357 9.90265 20.7008C10.0073 20.7389 10.1802 20.9303 10.2134 21.0479C10.2354 21.0948 10.2248 21.1323 10.2248 21.1323C10.2248 21.1323 9.99029 20.8652 9.7455 20.786C9.50949 20.7097 9.24305 20.5066 9.22461 20.4923C9.23646 20.4983 9.33391 20.5489 9.41907 20.5708Z" fill="#F9C8A9"/>
  <path d="M10.031 20.1424C10.031 20.1427 10.0313 20.1429 10.0313 20.1432C10.0343 20.1645 10.0796 20.4694 10.1987 20.6616C10.3222 20.8611 10.2946 21.1958 10.2946 21.1958C10.2946 21.1958 10.0087 20.9793 9.96359 20.8022C9.90901 20.5889 10.0272 20.1558 10.031 20.1424Z" fill="#BC7546"/>
  <path d="M10.1174 20.3133C10.208 20.438 10.2965 20.5361 10.3814 20.6875C10.4311 20.7759 10.415 21.0187 10.3502 21.126C10.3312 21.1737 10.2945 21.1958 10.2945 21.1958C10.2945 21.1958 10.3221 20.8611 10.1986 20.6616C10.0795 20.4694 10.0342 20.1645 10.0312 20.1432C10.0356 20.1545 10.0702 20.2483 10.1174 20.3133Z" fill="#F9C8A9"/>
  <path d="M9.82422 21.1799C9.82466 21.1801 9.82495 21.1801 9.82524 21.1802C9.84705 21.1902 10.1628 21.3308 10.4132 21.3552C10.6729 21.3803 10.9755 21.5899 10.9755 21.5899C10.9755 21.5899 10.6073 21.6709 10.4133 21.6024C10.1795 21.5204 9.8349 21.1903 9.82422 21.1799Z" fill="#BC7546"/>
  <path d="M10.0349 21.2157C10.2049 21.2219 10.3483 21.2145 10.5404 21.2398C10.6527 21.2546 10.8743 21.4038 10.9396 21.5109C10.9741 21.5515 10.9744 21.5903 10.9744 21.5903C10.9744 21.5903 10.6718 21.3808 10.4121 21.3556C10.1618 21.3313 9.84602 21.1907 9.82422 21.1806C9.83753 21.1839 9.94625 21.2124 10.0349 21.2157Z" fill="#F9C8A9"/>
  <path d="M10.5088 20.6706C10.5089 20.6709 10.5092 20.671 10.5094 20.6714C10.5182 20.6914 10.6479 20.9775 10.8175 21.1389C10.9934 21.3063 11.061 21.6367 11.061 21.6367C11.061 21.6367 10.7227 21.4871 10.6292 21.3248C10.5161 21.1295 10.5089 20.6844 10.5088 20.6706Z" fill="#BC7546"/>
  <path d="M10.6412 20.8182C10.7642 20.92 10.8776 20.9964 11.0026 21.1254C11.0756 21.2006 11.1284 21.4394 11.0958 21.5572C11.0906 21.6075 11.0614 21.6367 11.0614 21.6367C11.0614 21.6367 10.9938 21.3063 10.8179 21.1389C10.6483 20.9775 10.5185 20.6914 10.5098 20.6714C10.5172 20.6815 10.5771 20.765 10.6412 20.8182Z" fill="#F9C8A9"/>
  <path d="M10.4775 21.6729C10.478 21.6731 10.4783 21.673 10.4786 21.6732C10.5008 21.6825 10.8221 21.8132 11.0735 21.8295C11.3339 21.8463 11.6452 22.0463 11.6452 22.0463C11.6452 22.0463 11.2808 22.1389 11.084 22.0766C10.8468 22.0019 10.4887 21.683 10.4775 21.6729Z" fill="#BC7546"/>
  <path d="M10.6905 21.7017C10.8607 21.7025 11.0037 21.6905 11.1968 21.7098C11.3095 21.7211 11.5374 21.8631 11.6069 21.9681C11.6432 22.0077 11.6451 22.0464 11.6451 22.0464C11.6451 22.0464 11.3339 21.8464 11.0734 21.8296C10.8221 21.8133 10.5008 21.6826 10.4785 21.6733C10.492 21.6761 10.6019 21.7012 10.6905 21.7017Z" fill="#F9C8A9"/>
  <path d="M11.1406 21.1414C11.1408 21.1416 11.1411 21.1417 11.1412 21.1421C11.1509 21.1618 11.2925 21.4437 11.4688 21.5996C11.6516 21.7613 11.7329 22.0894 11.7329 22.0894C11.7329 22.0894 11.3886 21.9506 11.2883 21.7913C11.1671 21.5997 11.1412 21.1552 11.1406 21.1414Z" fill="#BC7546"/>
  <path d="M11.2791 21.2847C11.4063 21.3825 11.5229 21.4554 11.6531 21.5804C11.7292 21.6532 11.792 21.8902 11.7643 22.0088C11.7614 22.0593 11.7333 22.0894 11.7333 22.0894C11.7333 22.0894 11.652 21.7613 11.4692 21.5996C11.2929 21.4437 11.1513 21.1618 11.1416 21.1421C11.1495 21.1519 11.2129 21.2336 11.2791 21.2847Z" fill="#F9C8A9"/>
  <path d="M11.3184 22.1408C11.3188 22.1408 11.3191 22.1407 11.3195 22.1408C11.3438 22.1445 11.694 22.1953 11.9409 22.1523C12.1971 22.1077 12.559 22.2276 12.559 22.2276C12.559 22.2276 12.2369 22.4018 12.0282 22.3879C11.7765 22.3714 11.3321 22.1479 11.3184 22.1408Z" fill="#BC7546"/>
  <path d="M11.5332 22.1185C11.6974 22.0797 11.8313 22.0347 12.0234 22.0082C12.1353 21.9926 12.399 22.0764 12.4988 22.1612C12.5459 22.1908 12.5598 22.2275 12.5598 22.2275C12.5598 22.2275 12.1979 22.1077 11.9417 22.1522C11.6947 22.1952 11.3446 22.1444 11.3203 22.1407C11.3341 22.1404 11.4476 22.1388 11.5332 22.1185Z" fill="#F9C8A9"/>
  <path d="M12.3047 22.4381C12.3051 22.4381 12.3053 22.438 12.3057 22.438C12.3304 22.4381 12.6854 22.4373 12.9207 22.3593C13.1646 22.2781 13.5446 22.3438 13.5446 22.3438C13.5446 22.3438 13.2607 22.5624 13.0521 22.5788C12.801 22.599 12.3196 22.443 12.3047 22.4381Z" fill="#BC7546"/>
  <path d="M12.5124 22.3853C12.6666 22.323 12.7901 22.2593 12.9741 22.2053C13.0817 22.1738 13.3578 22.218 13.4725 22.2872C13.5247 22.3096 13.5455 22.3438 13.5455 22.3438C13.5455 22.3438 13.1655 22.2781 12.9216 22.3593C12.6863 22.4373 12.3314 22.4381 12.3066 22.438C12.3202 22.4356 12.4319 22.4177 12.5124 22.3853Z" fill="#F9C8A9"/>
  <path d="M11.792 21.4739C11.7923 21.4743 11.7926 21.4743 11.7929 21.4746C11.8082 21.4913 12.0325 21.7296 12.2507 21.8386C12.4772 21.9516 12.6576 22.2485 12.6576 22.2485C12.6576 22.2485 12.2829 22.1953 12.1367 22.0653C11.9603 21.9092 11.797 21.4872 11.792 21.4739Z" fill="#BC7546"/>
  <path d="M11.9697 21.5798C12.1228 21.6443 12.2577 21.6872 12.422 21.777C12.518 21.8295 12.6523 22.043 12.6625 22.1638C12.6753 22.213 12.6577 22.2485 12.6577 22.2485C12.6577 22.2485 12.4773 21.9516 12.2508 21.8386C12.0326 21.7296 11.8083 21.4913 11.793 21.4746C11.8035 21.4823 11.89 21.546 11.9697 21.5798Z" fill="#F9C8A9"/>
  <path d="M12.6289 21.7878C12.6291 21.788 12.6293 21.788 12.6296 21.7883C12.6459 21.8006 12.8812 21.9764 13.0886 22.0416C13.3036 22.1091 13.5115 22.3413 13.5115 22.3413C13.5115 22.3413 13.1791 22.3448 13.0301 22.2522C12.8506 22.1408 12.6353 21.7985 12.6289 21.7878Z" fill="#BC7546"/>
  <path d="M12.8008 21.8556C12.944 21.8911 13.068 21.9101 13.2255 21.966C13.3174 21.9984 13.4709 22.1648 13.5009 22.2676C13.5207 22.3083 13.5117 22.3413 13.5117 22.3413C13.5117 22.3413 13.3038 22.1092 13.0889 22.0416C12.8814 21.9764 12.6461 21.8006 12.6299 21.7883C12.6404 21.7935 12.7262 21.8371 12.8008 21.8556Z" fill="#F9C8A9"/>
  <path d="M12.9961 22.6323C12.9962 22.6322 12.9962 22.6321 12.9965 22.6321C13.0079 22.6271 13.172 22.5564 13.26 22.4737C13.3514 22.3877 13.5445 22.3428 13.5445 22.3428C13.5445 22.3428 13.471 22.5 13.3789 22.5491C13.2681 22.6083 13.0043 22.6317 12.9961 22.6323Z" fill="#BC7546"/>
  <path d="M13.0781 22.567C13.133 22.5077 13.1732 22.4538 13.2442 22.3923C13.2855 22.3563 13.4249 22.322 13.4963 22.3312C13.5263 22.3312 13.545 22.343 13.545 22.343C13.545 22.343 13.3519 22.388 13.2606 22.4739C13.1725 22.5566 13.0085 22.6274 12.9971 22.6323C13.0026 22.6285 13.0496 22.598 13.0781 22.567Z" fill="#F9C8A9"/>
  <path d="M18.4211 16.7127C18.4211 16.713 18.4209 16.7133 18.4209 16.7137C18.4212 16.7351 18.4227 17.0425 18.3339 17.2467C18.2418 17.4584 18.3201 17.7871 18.3201 17.7871C18.3201 17.7871 18.5706 17.5399 18.5883 17.3591C18.61 17.1415 18.4269 16.7256 18.4211 16.7127Z" fill="#BC7546"/>
  <path d="M18.3627 16.8921C18.2919 17.026 18.219 17.1334 18.1578 17.2932C18.1221 17.3864 18.175 17.6253 18.2554 17.7241C18.2818 17.7694 18.3214 17.7871 18.3214 17.7871C18.3214 17.7871 18.2431 17.4584 18.3352 17.2467C18.424 17.0425 18.4225 16.7351 18.4222 16.7137C18.4196 16.7253 18.3996 16.8221 18.3627 16.8921Z" fill="#F9C8A9"/>
  <path d="M17.5859 17.0109C17.5862 17.0111 17.5862 17.0114 17.5865 17.0116C17.6031 17.0275 17.8385 17.2576 17.9274 17.4618C18.0198 17.6734 18.3291 17.8755 18.3291 17.8755C18.3291 17.8755 18.3288 17.5467 18.2043 17.4007C18.0547 17.2248 17.6001 17.0171 17.5859 17.0109Z" fill="#BC7546"/>
  <path d="M17.6782 17.1788C17.7271 17.32 17.7542 17.4421 17.8301 17.5972C17.8744 17.6877 18.0961 17.8369 18.232 17.8651C18.2862 17.884 18.3295 17.8746 18.3295 17.8746C18.3295 17.8746 18.0202 17.6725 17.9278 17.4609C17.8389 17.2567 17.6034 17.0266 17.5869 17.0108C17.5938 17.021 17.6526 17.1052 17.6782 17.1788Z" fill="#F9C8A9"/>
  <path d="M18.6423 17.4661C18.6423 17.4664 18.642 17.4666 18.642 17.4669C18.6388 17.4882 18.5882 17.7924 18.4659 17.9833C18.339 18.1811 18.3608 18.5161 18.3608 18.5161C18.3608 18.5161 18.6504 18.3034 18.6985 18.1267C18.7569 17.9142 18.646 17.4796 18.6423 17.4661Z" fill="#BC7546"/>
  <path d="M18.5534 17.6359C18.4607 17.7595 18.3704 17.8564 18.2829 18.0067C18.2318 18.0945 18.2437 18.3374 18.3066 18.4454C18.325 18.4934 18.3612 18.5161 18.3612 18.5161C18.3612 18.5161 18.3394 18.1811 18.4662 17.9833C18.5886 17.7924 18.6392 17.4882 18.6424 17.4669C18.6379 17.4783 18.6017 17.5716 18.5534 17.6359Z" fill="#F9C8A9"/>
  <path d="M17.7656 17.6545C17.7659 17.6548 17.7659 17.655 17.7661 17.6553C17.7798 17.6731 17.9738 17.9305 18.0274 18.1438C18.0828 18.3649 18.3547 18.604 18.3547 18.604C18.3547 18.604 18.41 18.2787 18.3114 18.1185C18.1932 17.9256 17.7786 17.6625 17.7656 17.6545Z" fill="#BC7546"/>
  <path d="M17.8286 17.833C17.8531 17.9787 17.8592 18.1031 17.9081 18.2661C17.9366 18.3611 18.1308 18.5369 18.2604 18.582C18.3108 18.6076 18.3552 18.6038 18.3552 18.6038C18.3552 18.6038 18.0834 18.3647 18.0279 18.1436C17.9744 17.9303 17.7804 17.6729 17.7666 17.6551C17.7719 17.6662 17.8158 17.7569 17.8286 17.833Z" fill="#F9C8A9"/>
  <path d="M18.7344 18.2831C18.7342 18.2833 18.7339 18.2835 18.7339 18.2838C18.725 18.3039 18.5945 18.5896 18.4245 18.7508C18.248 18.9177 18.1797 19.248 18.1797 19.248C18.1797 19.248 18.5183 19.0992 18.6124 18.937C18.7259 18.7419 18.7344 18.2969 18.7344 18.2831Z" fill="#BC7546"/>
  <path d="M18.6008 18.4303C18.4776 18.532 18.3639 18.6081 18.2387 18.7369C18.1655 18.8119 18.112 19.0506 18.1445 19.1683C18.1494 19.2188 18.1786 19.248 18.1786 19.248C18.1786 19.248 18.2469 18.9177 18.4234 18.7508C18.5934 18.5896 18.7239 18.3039 18.7328 18.2838C18.7252 18.2939 18.6651 18.3774 18.6008 18.4303Z" fill="#F9C8A9"/>
  <path d="M17.8301 18.291C17.8302 18.2914 17.8301 18.2916 17.8304 18.2919C17.8389 18.312 17.9587 18.6013 17.9539 18.8195C17.9486 19.0457 18.1492 19.333 18.1492 19.333C18.1492 19.333 18.29 19.0275 18.237 18.852C18.1735 18.6405 17.8406 18.3015 17.8301 18.291Z" fill="#BC7546"/>
  <path d="M17.8434 18.4774C17.8284 18.6241 17.801 18.7463 17.8051 18.9147C17.8073 19.0129 17.9491 19.2228 18.0632 19.2927C18.1053 19.3277 18.1497 19.333 18.1497 19.333C18.1497 19.333 17.9491 19.0457 17.9543 18.8195C17.9592 18.6013 17.8393 18.312 17.8309 18.2919C17.8328 18.3038 17.8513 18.4009 17.8434 18.4774Z" fill="#F9C8A9"/>
  <path d="M18.6268 19.0506C18.6266 19.051 18.6263 19.051 18.6262 19.0514C18.6148 19.0704 18.4489 19.3421 18.2594 19.486C18.0629 19.6352 17.9531 19.957 17.9531 19.957C17.9531 19.957 18.3085 19.8412 18.4225 19.689C18.5602 19.5059 18.625 19.0644 18.6268 19.0506Z" fill="#BC7546"/>
  <path d="M18.4774 19.1846C18.342 19.2738 18.2194 19.3386 18.0785 19.4546C17.9963 19.5223 17.9129 19.7545 17.93 19.8745C17.9287 19.9251 17.954 19.957 17.954 19.957C17.954 19.957 18.0637 19.6352 18.2602 19.486C18.4497 19.3421 18.6156 19.0704 18.627 19.0514C18.6183 19.0606 18.5479 19.1379 18.4774 19.1846Z" fill="#F9C8A9"/>
  <path d="M17.7285 18.9715C17.7287 18.9719 17.7285 18.9721 17.7287 18.9725C17.7347 18.9933 17.817 19.2922 17.7846 19.5087C17.7506 19.733 17.9135 20.0376 17.9135 20.0376C17.9135 20.0376 18.0923 19.7474 18.0618 19.5678C18.0255 19.3517 17.7377 18.9829 17.7285 18.9715Z" fill="#BC7546"/>
  <path d="M17.7175 19.158C17.6837 19.3025 17.6411 19.4212 17.6237 19.589C17.6134 19.6868 17.7279 19.909 17.8323 19.9893C17.8698 20.0281 17.9131 20.0376 17.9131 20.0376C17.9131 20.0376 17.7503 19.733 17.7842 19.5087C17.8167 19.2922 17.7343 18.9933 17.7283 18.9725C17.7289 18.9844 17.7349 19.0826 17.7175 19.158Z" fill="#F9C8A9"/>
  <path d="M18.3921 19.802C18.392 19.8024 18.3917 19.8024 18.3914 19.8026C18.3761 19.8196 18.1549 20.0599 17.9379 20.1709C17.7129 20.2859 17.5361 20.5845 17.5361 20.5845C17.5361 20.5845 17.9101 20.5278 18.0548 20.3966C18.2292 20.2388 18.3874 19.8153 18.3921 19.802Z" fill="#BC7546"/>
  <path d="M18.2153 19.9095C18.0631 19.9755 17.9286 20.0194 17.7653 20.111C17.6701 20.1642 17.5384 20.3789 17.5296 20.4997C17.5175 20.5491 17.5355 20.5845 17.5355 20.5845C17.5355 20.5845 17.7122 20.2859 17.9372 20.1709C18.1542 20.0599 18.3755 19.8196 18.3907 19.8026C18.3802 19.8104 18.2946 19.875 18.2153 19.9095Z" fill="#F9C8A9"/>
  <path d="M17.5265 19.5801C17.5266 19.5805 17.5263 19.5806 17.5265 19.581C17.5279 19.6024 17.5449 19.9095 17.4665 20.1169C17.3853 20.3319 17.4801 20.6572 17.4801 20.6572C17.4801 20.6572 17.7178 20.4007 17.7263 20.2196C17.737 20.0012 17.533 19.5928 17.5265 19.5801Z" fill="#BC7546"/>
  <path d="M17.4753 19.7616C17.4114 19.8981 17.3439 20.008 17.2911 20.17C17.2601 20.2645 17.3249 20.5011 17.4103 20.5969C17.4389 20.641 17.4794 20.6572 17.4794 20.6572C17.4794 20.6572 17.3846 20.3319 17.4658 20.1169C17.5442 19.9095 17.5272 19.6024 17.5258 19.581C17.5237 19.5928 17.5087 19.6904 17.4753 19.7616Z" fill="#F9C8A9"/>
  <path d="M18.0255 20.4917C18.0252 20.492 18.0249 20.492 18.0246 20.4923C18.0062 20.5066 17.7398 20.7097 17.5038 20.786C17.259 20.8652 17.0244 21.1323 17.0244 21.1323C17.0244 21.1323 17.4043 21.1334 17.5731 21.0259C17.7768 20.897 18.0182 20.5042 18.0255 20.4917Z" fill="#BC7546"/>
  <path d="M17.8298 20.5708C17.6666 20.6127 17.5254 20.6357 17.3462 20.7008C17.2416 20.7389 17.0685 20.9303 17.0354 21.0479C17.0135 21.0948 17.024 21.1323 17.024 21.1323C17.024 21.1323 17.2586 20.8652 17.5034 20.786C17.7394 20.7097 18.0058 20.5066 18.0242 20.4923C18.0122 20.4983 17.9149 20.5489 17.8298 20.5708Z" fill="#F9C8A9"/>
  <path d="M17.2175 20.1424C17.2175 20.1427 17.2172 20.1429 17.2172 20.1432C17.2142 20.1645 17.1689 20.4694 17.0498 20.6616C16.9263 20.8611 16.9538 21.1958 16.9538 21.1958C16.9538 21.1958 17.2398 20.9793 17.2848 20.8022C17.3395 20.5889 17.2213 20.1558 17.2175 20.1424Z" fill="#BC7546"/>
  <path d="M17.1311 20.3133C17.0405 20.438 16.9519 20.5361 16.867 20.6875C16.8174 20.7759 16.8334 21.0187 16.8982 21.126C16.9173 21.1737 16.9539 21.1958 16.9539 21.1958C16.9539 21.1958 16.9264 20.8611 17.0499 20.6616C17.169 20.4694 17.2144 20.1645 17.2173 20.1432C17.2129 20.1545 17.1782 20.2483 17.1311 20.3133Z" fill="#F9C8A9"/>
  <path d="M17.4256 21.1799C17.4252 21.1801 17.4249 21.1801 17.4246 21.1802C17.4027 21.1902 17.0871 21.3308 16.8367 21.3552C16.577 21.3803 16.2744 21.5899 16.2744 21.5899C16.2744 21.5899 16.6424 21.6709 16.8366 21.6024C17.0702 21.5204 17.415 21.1903 17.4256 21.1799Z" fill="#BC7546"/>
  <path d="M17.2139 21.2157C17.0439 21.2219 16.9005 21.2145 16.7082 21.2398C16.5962 21.2546 16.3745 21.4038 16.3092 21.5109C16.2747 21.5515 16.2744 21.5903 16.2744 21.5903C16.2744 21.5903 16.577 21.3808 16.8367 21.3556C17.0871 21.3313 17.4027 21.1907 17.4246 21.1806C17.4113 21.1839 17.3026 21.2124 17.2139 21.2157Z" fill="#F9C8A9"/>
  <path d="M16.7405 20.6706C16.7404 20.6709 16.7402 20.671 16.7401 20.6714C16.7313 20.6914 16.6014 20.9775 16.432 21.1389C16.2559 21.3063 16.1885 21.6367 16.1885 21.6367C16.1885 21.6367 16.5268 21.4871 16.6203 21.3248C16.7334 21.1295 16.7405 20.6844 16.7405 20.6706Z" fill="#BC7546"/>
  <path d="M16.609 20.8182C16.4859 20.92 16.3726 20.9964 16.2476 21.1254C16.1746 21.2006 16.1218 21.4394 16.1544 21.5572C16.1595 21.6075 16.1888 21.6367 16.1888 21.6367C16.1888 21.6367 16.2562 21.3063 16.4323 21.1389C16.6017 20.9775 16.7316 20.6914 16.7404 20.6714C16.7329 20.6815 16.6731 20.765 16.609 20.8182Z" fill="#F9C8A9"/>
  <path d="M16.771 21.6729C16.7707 21.6731 16.7704 21.673 16.7701 21.6732C16.7477 21.6825 16.4264 21.8132 16.1752 21.8295C15.9147 21.8463 15.6035 22.0463 15.6035 22.0463C15.6035 22.0463 15.9678 22.1389 16.1646 22.0766C16.4017 22.0019 16.76 21.683 16.771 21.6729Z" fill="#BC7546"/>
  <path d="M16.5581 21.7017C16.3879 21.7025 16.2448 21.6905 16.0518 21.7098C15.939 21.7211 15.7112 21.8631 15.6416 21.9681C15.6054 22.0077 15.6035 22.0464 15.6035 22.0464C15.6035 22.0464 15.9147 21.8464 16.1752 21.8296C16.4264 21.8133 16.7477 21.6826 16.7701 21.6733C16.7567 21.6761 16.6468 21.7012 16.5581 21.7017Z" fill="#F9C8A9"/>
  <path d="M16.1079 21.1414C16.1078 21.1416 16.1075 21.1417 16.1073 21.1421C16.0977 21.1618 15.9559 21.4437 15.7797 21.5996C15.597 21.7613 15.5156 22.0894 15.5156 22.0894C15.5156 22.0894 15.8599 21.9506 15.9601 21.7913C16.0814 21.5997 16.1073 21.1552 16.1079 21.1414Z" fill="#BC7546"/>
  <path d="M15.9704 21.2847C15.8433 21.3825 15.7267 21.4554 15.5964 21.5804C15.5202 21.6532 15.4574 21.8902 15.4852 22.0088C15.4882 22.0593 15.5162 22.0894 15.5162 22.0894C15.5162 22.0894 15.5976 21.7613 15.7804 21.5996C15.9565 21.4437 16.0983 21.1618 16.108 21.1421C16.1001 21.1519 16.0367 21.2336 15.9704 21.2847Z" fill="#F9C8A9"/>
  <path d="M15.9299 22.1408C15.9297 22.1408 15.9294 22.1407 15.9289 22.1408C15.9046 22.1445 15.5545 22.1953 15.3075 22.1523C15.0513 22.1077 14.6895 22.2276 14.6895 22.2276C14.6895 22.2276 15.0115 22.4018 15.2203 22.3879C15.4718 22.3714 15.9162 22.1479 15.9299 22.1408Z" fill="#BC7546"/>
  <path d="M15.7159 22.1185C15.5519 22.0797 15.4178 22.0347 15.2259 22.0082C15.1139 21.9926 14.8503 22.0764 14.7505 22.1612C14.7032 22.1908 14.6895 22.2275 14.6895 22.2275C14.6895 22.2275 15.0513 22.1077 15.3075 22.1522C15.5545 22.1952 15.9046 22.1444 15.9289 22.1407C15.9152 22.1404 15.8016 22.1388 15.7159 22.1185Z" fill="#F9C8A9"/>
  <path d="M15.4573 21.4739C15.4571 21.4743 15.4568 21.4743 15.4565 21.4746C15.4412 21.4913 15.2169 21.7296 14.9986 21.8386C14.7722 21.9516 14.5918 22.2485 14.5918 22.2485C14.5918 22.2485 14.9665 22.1953 15.1127 22.0653C15.289 21.9092 15.4524 21.4872 15.4573 21.4739Z" fill="#BC7546"/>
  <path d="M15.2795 21.5798C15.1264 21.6443 14.9915 21.6872 14.8272 21.777C14.7312 21.8295 14.5969 22.043 14.5867 22.1638C14.5739 22.213 14.5915 22.2485 14.5915 22.2485C14.5915 22.2485 14.7719 21.9516 14.9983 21.8386C15.2166 21.7296 15.4409 21.4913 15.4562 21.4746C15.4456 21.4823 15.3592 21.546 15.2795 21.5798Z" fill="#F9C8A9"/>
  <path d="M15.0779 22.4373C15.0776 22.4373 15.0773 22.4372 15.0769 22.4372C15.0521 22.4372 14.6972 22.4344 14.4626 22.3548C14.2193 22.2724 13.8389 22.3357 13.8389 22.3357C13.8389 22.3357 14.1208 22.5559 14.3295 22.5736C14.5804 22.5953 15.063 22.4423 15.0779 22.4373Z" fill="#BC7546"/>
  <path d="M14.8716 22.3822C14.718 22.319 14.595 22.2545 14.4113 22.1995C14.304 22.1673 14.0276 22.2099 13.9123 22.2783C13.8599 22.3005 13.8389 22.3346 13.8389 22.3346C13.8389 22.3346 14.2193 22.2712 14.4626 22.3537C14.6972 22.4333 15.0521 22.436 15.0769 22.436C15.0634 22.4337 14.9518 22.415 14.8716 22.3822Z" fill="#F9C8A9"/>
  <path d="M14.6191 21.7878C14.6188 21.788 14.6186 21.788 14.6183 21.7883C14.6021 21.8006 14.3668 21.9764 14.1593 22.0416C13.9442 22.1091 13.7363 22.3413 13.7363 22.3413C13.7363 22.3413 14.0689 22.3448 14.2179 22.2522C14.3974 22.1408 14.6126 21.7985 14.6191 21.7878Z" fill="#BC7546"/>
  <path d="M14.4483 21.8556C14.3051 21.8911 14.1813 21.9101 14.0237 21.966C13.9317 21.9984 13.7783 22.1648 13.7482 22.2676C13.7284 22.3083 13.7374 22.3413 13.7374 22.3413C13.7374 22.3413 13.9453 22.1092 14.1604 22.0416C14.3679 21.9764 14.6031 21.8006 14.6194 21.7883C14.6088 21.7935 14.5231 21.8371 14.4483 21.8556Z" fill="#F9C8A9"/>
  <path d="M14.2525 22.6323C14.2524 22.6322 14.2524 22.6321 14.2521 22.6321C14.2407 22.6271 14.0766 22.5564 13.9885 22.4737C13.8971 22.3877 13.7041 22.3428 13.7041 22.3428C13.7041 22.3428 13.7776 22.5 13.8697 22.5491C13.9805 22.6083 14.2443 22.6317 14.2525 22.6323Z" fill="#BC7546"/>
  <path d="M14.1709 22.567C14.116 22.5077 14.0759 22.4538 14.0049 22.3923C13.9635 22.3563 13.8242 22.322 13.7528 22.3312C13.7227 22.3312 13.7041 22.343 13.7041 22.343C13.7041 22.343 13.8971 22.388 13.9885 22.4739C14.0766 22.5566 14.2407 22.6274 14.2521 22.6323C14.2465 22.6285 14.1995 22.598 14.1709 22.567Z" fill="#F9C8A9"/>
  <path d="M11.224 11.8682C8.55687 12.3349 6.5327 13.7127 5.38834 15.3838C4.44561 16.7588 4.31187 17.8645 4.71045 19.1757C6.63615 25.7852 9.37069 22.3107 13.0449 25.5313C13.0764 25.5595 13.0714 25.5953 13.0453 25.6166L12.7659 25.844C12.7403 25.8649 12.6989 25.8663 12.6711 25.8415C10.4055 23.8768 8.64803 24.6245 6.84582 23.5355C5.31591 22.5996 4.65367 20.645 4.23637 19.0188C3.82961 17.4247 4.38167 16.0013 5.55339 14.6634C5.62347 14.5805 5.84471 14.3529 5.88129 14.3174C7.31872 12.9617 8.99743 12.0896 11.224 11.8682Z" fill="#BC7546"/>
  <path d="M3.3467 13.738C3.34656 13.7391 3.347 13.7397 3.3467 13.7408C3.33427 13.8072 3.16673 14.7612 3.33383 15.4307C3.50736 16.1248 3.08992 17.1143 3.08992 17.1143C3.08992 17.1143 2.44319 16.247 2.4843 15.6785C2.53229 14.994 3.32154 13.7756 3.3467 13.738Z" fill="#BC7546"/>
  <path d="M3.43662 14.3187C3.58557 14.7629 3.75486 15.125 3.85977 15.6457C3.92122 15.9495 3.63049 16.67 3.3279 16.9451C3.22241 17.0748 3.08984 17.1143 3.08984 17.1143C3.08984 17.1143 3.50729 16.1248 3.33376 15.4307C3.16666 14.7612 3.33419 13.8072 3.34663 13.7408C3.34853 13.7784 3.35936 14.087 3.43662 14.3187Z" fill="#F9C8A9"/>
  <path d="M5.03314 14.8903C5.03255 14.8913 5.03299 14.892 5.03241 14.8931C5.00651 14.9565 4.64612 15.8695 4.67334 16.5541C4.70187 17.2639 4.08821 18.1733 4.08821 18.1733C4.08821 18.1733 3.62965 17.2205 3.78665 16.6674C3.97409 16.0011 5.00051 14.9234 5.03314 14.8903Z" fill="#BC7546"/>
  <path d="M5.00224 15.4756C5.05784 15.9356 5.15017 16.3181 5.14665 16.8466C5.1449 17.1549 4.71106 17.8194 4.35683 18.0436C4.22646 18.155 4.08789 18.1733 4.08789 18.1733C4.08789 18.1733 4.70155 17.2639 4.67302 16.5541C4.6458 15.8695 5.00619 14.9565 5.03209 14.8931C5.02638 14.9304 4.9737 15.2358 5.00224 15.4756Z" fill="#F9C8A9"/>
  <path d="M1.67188 15.5603C1.67231 15.5612 1.67305 15.5614 1.67348 15.5623C1.70172 15.614 2.1161 16.3524 2.60641 16.7517C3.11502 17.1654 3.37415 18.0332 3.37415 18.0332C3.37415 18.0332 2.43756 17.696 2.14946 17.2805C1.80151 16.7808 1.67524 15.5972 1.67188 15.5603Z" fill="#BC7546"/>
  <path d="M2.05908 15.9296C2.41098 16.1784 2.73142 16.3614 3.09517 16.6824C3.30762 16.8694 3.50559 17.4959 3.44692 17.8151C3.44545 17.9502 3.37449 18.0332 3.37449 18.0332C3.37449 18.0332 3.11536 17.1654 2.60676 16.7517C2.11644 16.3524 1.70207 15.614 1.67383 15.5623C1.69607 15.5878 1.8756 15.7995 2.05908 15.9296Z" fill="#F9C8A9"/>
  <path d="M1.37891 17.6578C1.37949 17.6585 1.38037 17.6587 1.3811 17.6595C1.425 17.7063 2.06339 18.3732 2.68158 18.676C3.3226 18.9896 3.83925 19.8228 3.83925 19.8228C3.83925 19.8228 2.78181 19.6803 2.36626 19.3171C1.86498 18.8806 1.39295 17.6949 1.37891 17.6578Z" fill="#BC7546"/>
  <path d="M1.88298 17.9523C2.31579 18.1309 2.69709 18.2489 3.16283 18.4988C3.43469 18.6445 3.81892 19.2435 3.85126 19.5835C3.88871 19.7221 3.83999 19.8228 3.83999 19.8228C3.83999 19.8228 3.32334 18.9896 2.68232 18.676C2.06412 18.3732 1.42573 17.7063 1.38184 17.6595C1.41198 17.6807 1.65735 17.8589 1.88298 17.9523Z" fill="#F9C8A9"/>
  <path d="M3.63955 16.8351C3.63955 16.8362 3.64028 16.8369 3.64028 16.838C3.64555 16.9075 3.73261 17.9047 4.08144 18.5471C4.44328 19.2131 4.2876 20.2964 4.2876 20.2964C4.2876 20.2964 3.40149 19.5509 3.29014 18.9685C3.15465 18.2677 3.62419 16.8782 3.63955 16.8351Z" fill="#BC7546"/>
  <path d="M3.88688 17.4034C4.15669 17.822 4.42489 18.1536 4.67071 18.6582C4.81454 18.9526 4.7146 19.7389 4.48284 20.0776C4.41129 20.2298 4.28794 20.2964 4.28794 20.2964C4.28794 20.2964 4.44362 19.2131 4.08178 18.5471C3.73295 17.9047 3.64589 16.9075 3.64062 16.838C3.65262 16.8755 3.74641 17.185 3.88688 17.4034Z" fill="#F9C8A9"/>
  <path d="M1.47656 20.9302C1.47788 20.9307 1.47876 20.9303 1.47993 20.9309C1.55572 20.9542 2.64741 21.28 3.46664 21.2573C4.31602 21.2335 5.40288 21.7865 5.40288 21.7865C5.40288 21.7865 4.26144 22.1957 3.59994 22.0535C2.80323 21.8834 1.51621 20.9595 1.47656 20.9302Z" fill="#BC7546"/>
  <path d="M2.17753 20.9588C2.72813 20.91 3.18596 20.8281 3.81835 20.8326C4.18736 20.8348 4.98143 21.2259 5.24876 21.5443C5.38176 21.6617 5.40341 21.7861 5.40341 21.7861C5.40341 21.7861 4.31656 21.2331 3.46718 21.2569C2.64795 21.2796 1.55626 20.9538 1.48047 20.9305C1.5251 20.9357 1.89031 20.9838 2.17753 20.9588Z" fill="#F9C8A9"/>
  <path d="M3.81445 19.8882C3.81504 19.8892 3.81606 19.8895 3.81665 19.8905C3.85732 19.9505 4.45181 20.8079 5.0962 21.2466C5.76444 21.7013 6.18657 22.73 6.18657 22.73C6.18657 22.73 5.00841 22.4078 4.60735 21.9306C4.12318 21.357 3.82309 19.9327 3.81445 19.8882Z" fill="#BC7546"/>
  <path d="M4.3294 20.3002C4.78723 20.5694 5.19883 20.7615 5.67992 21.117C5.96085 21.3243 6.2788 22.0658 6.2472 22.4585C6.26198 22.6225 6.18633 22.73 6.18633 22.73C6.18633 22.73 5.7642 21.7013 5.09596 21.2466C4.45157 20.8079 3.85708 19.9505 3.81641 19.8905C3.84655 19.9194 4.09075 20.1595 4.3294 20.3002Z" fill="#F9C8A9"/>
  <path d="M6.38696 19.6729C6.38711 19.6741 6.38769 19.6746 6.38784 19.6758C6.39413 19.7452 6.49655 20.7413 6.85504 21.3796C7.22698 22.0415 7.08783 23.1265 7.08783 23.1265C7.08783 23.1265 6.19045 22.3912 6.07033 21.8102C5.92401 21.111 6.37233 19.7162 6.38696 19.6729Z" fill="#BC7546"/>
  <path d="M6.64161 20.2384C6.91771 20.6538 7.19103 20.9823 7.4446 21.4839C7.59282 21.7767 7.50489 22.5641 7.27839 22.9055C7.20903 23.0586 7.08671 23.1265 7.08671 23.1265C7.08671 23.1265 7.22586 22.0415 6.85392 21.3796C6.49544 20.7413 6.39301 19.7452 6.38672 19.6758C6.3993 19.7132 6.49778 20.0216 6.64161 20.2384Z" fill="#F9C8A9"/>
  <path d="M8.13989 20.608C8.14003 20.6091 8.14062 20.6097 8.14062 20.6109C8.14706 20.6803 8.24933 21.6763 8.60796 22.3147C8.9799 22.9764 8.84076 24.0615 8.84076 24.0615C8.84076 24.0615 7.94338 23.3262 7.82326 22.7452C7.67694 22.046 8.12526 20.6512 8.13989 20.608Z" fill="#BC7546"/>
  <path d="M8.39566 21.1735C8.67176 21.5887 8.94509 21.9172 9.19851 22.419C9.34688 22.7117 9.25894 23.499 9.03244 23.8404C8.96308 23.9935 8.84076 24.0615 8.84076 24.0615C8.84076 24.0615 8.97991 22.9764 8.60797 22.3147C8.24934 21.6763 8.14706 20.6803 8.14062 20.6109C8.15335 20.6482 8.25183 20.9565 8.39566 21.1735Z" fill="#F9C8A9"/>
  <path d="M2.88672 23.2134C2.88804 23.2137 2.88891 23.2133 2.89023 23.2135C2.97319 23.2264 4.16613 23.4001 5.00819 23.2544C5.88113 23.1031 7.11416 23.5124 7.11416 23.5124C7.11416 23.5124 6.01618 24.1055 5.30434 24.0573C4.4472 24.0005 2.93339 23.2378 2.88672 23.2134Z" fill="#BC7546"/>
  <path d="M3.61666 23.138C4.17589 23.0056 4.63255 22.8526 5.28688 22.7628C5.66878 22.7102 6.56703 22.9958 6.90663 23.285C7.06744 23.3862 7.11455 23.5117 7.11455 23.5117C7.11455 23.5117 5.88152 23.1024 5.00859 23.2537C4.16652 23.3995 2.97359 23.2257 2.89062 23.2129C2.93774 23.2118 3.32475 23.2068 3.61666 23.138Z" fill="#F9C8A9"/>
  <path d="M6.38672 25.6039C6.38789 25.6036 6.38818 25.603 6.38936 25.6027C6.45637 25.5818 7.41563 25.2737 7.96199 24.8592C8.52839 24.4295 9.63177 24.2793 9.63177 24.2793C9.63177 24.2793 9.11542 25.1151 8.57009 25.3398C7.914 25.6111 6.43281 25.6046 6.38672 25.6039Z" fill="#BC7546"/>
  <path d="M6.88552 25.2831C7.23098 24.9817 7.49143 24.7027 7.92745 24.3979C8.18176 24.2199 8.97949 24.1013 9.36913 24.1894C9.53637 24.2049 9.63207 24.2796 9.63207 24.2796C9.63207 24.2796 8.52868 24.4298 7.96228 24.8595C7.41593 25.274 6.45666 25.5821 6.38965 25.603C6.42359 25.5849 6.70496 25.4401 6.88552 25.2831Z" fill="#F9C8A9"/>
  <path d="M12.2969 10.4745C12.2958 10.4747 12.2954 10.4754 12.2944 10.4757C12.2307 10.4979 11.3218 10.8241 10.8139 11.2395C10.2875 11.6702 9.2334 11.8491 9.2334 11.8491C9.2334 11.8491 9.69474 11.0296 10.2095 10.7967C10.8287 10.5154 12.2525 10.4752 12.2969 10.4745Z" fill="#BC7546"/>
  <path d="M11.8311 10.7993C11.5117 11.0997 11.2731 11.376 10.8668 11.6825C10.6297 11.8616 9.86813 12.0006 9.48975 11.9282C9.32836 11.9185 9.2334 11.8496 9.2334 11.8496C9.2334 11.8496 10.2875 11.6707 10.8139 11.24C11.3218 10.8246 12.2307 10.4984 12.2944 10.4763C12.2625 10.4946 11.9981 10.6428 11.8311 10.7993Z" fill="#F9C8A9"/>
  <path d="M10.0892 10.0237C10.0886 10.0244 10.0888 10.0252 10.0881 10.026C10.051 10.0759 9.52736 10.7974 9.39055 11.3906C9.24892 12.0057 8.50855 12.6797 8.50855 12.6797C8.50855 12.6797 8.3375 11.7801 8.60175 11.3323C8.91897 10.7925 10.0535 10.0465 10.0892 10.0237Z" fill="#BC7546"/>
  <path d="M9.92618 10.5216C9.86633 10.9269 9.85609 11.2717 9.72938 11.7253C9.65563 11.9901 9.12728 12.485 8.77026 12.6155C8.63213 12.6884 8.50879 12.6799 8.50879 12.6799C8.50879 12.6799 9.24916 12.0059 9.39079 11.3908C9.5276 10.7976 10.0513 10.0761 10.0883 10.0261C10.0745 10.0572 9.95778 10.3104 9.92618 10.5216Z" fill="#F9C8A9"/>
  <path d="M8.32003 10.7356C8.31973 10.7364 8.32003 10.7369 8.31973 10.7377C8.30422 10.7835 8.08767 11.4445 8.13698 11.9302C8.18819 12.4339 7.79167 13.1006 7.79167 13.1006C7.79167 13.1006 7.42412 12.4381 7.51147 12.0398C7.6158 11.5601 8.29852 10.7604 8.32003 10.7356Z" fill="#BC7546"/>
  <path d="M8.32332 11.1528C8.38287 11.4781 8.46525 11.7469 8.48574 12.1227C8.49803 12.3419 8.21856 12.8285 7.97655 12.9995C7.88876 13.083 7.79102 13.1006 7.79102 13.1006C7.79102 13.1006 8.18754 12.4339 8.13633 11.9302C8.08702 11.4445 8.30357 10.7835 8.31908 10.7377C8.31659 10.7644 8.29245 10.9831 8.32332 11.1528Z" fill="#F9C8A9"/>
  <path d="M11.9155 12.3353C11.9145 12.3355 11.9142 12.336 11.9132 12.3362C11.8554 12.349 11.0271 12.5411 10.5335 12.8497C10.0221 13.1698 9.08789 13.2202 9.08789 13.2202C9.08789 13.2202 9.5943 12.5579 10.0698 12.4074C10.6418 12.2256 11.877 12.3315 11.9155 12.3353Z" fill="#BC7546"/>
  <path d="M11.4705 12.5694C11.1549 12.7974 10.9123 13.0124 10.5209 13.2371C10.2925 13.3683 9.61625 13.4132 9.29903 13.3132C9.1609 13.2889 9.08789 13.2201 9.08789 13.2201C9.08789 13.2201 10.0221 13.1696 10.5335 12.8496C11.0271 12.541 11.8554 12.3489 11.9132 12.3361C11.8832 12.3488 11.6353 12.4506 11.4705 12.5694Z" fill="#F9C8A9"/>
  <path d="M9.38727 11.8923C9.38654 11.8931 9.38654 11.8937 9.38581 11.8943C9.34601 11.9392 8.7818 12.5884 8.59685 13.1423C8.40532 13.7168 7.63964 14.3057 7.63964 14.3057C7.63964 14.3057 7.56048 13.4392 7.85312 13.0321C8.20428 12.5415 9.35113 11.9114 9.38727 11.8923Z" fill="#BC7546"/>
  <path d="M9.18609 12.3546C9.09157 12.7354 9.05001 13.0622 8.8876 13.4845C8.79308 13.7308 8.24526 14.1643 7.8941 14.2634C7.75612 14.3231 7.63965 14.3065 7.63965 14.3065C7.63965 14.3065 8.40533 13.7176 8.59686 13.1431C8.78181 12.5892 9.34602 11.94 9.38582 11.8952C9.37001 11.9237 9.23554 12.1562 9.18609 12.3546Z" fill="#F9C8A9"/>
  <path d="M9.88323 13.7879C9.88221 13.7881 9.88191 13.7887 9.88089 13.7891C9.82119 13.8123 8.96918 14.1522 8.50316 14.564C8.02001 14.9912 7.02344 15.1953 7.02344 15.1953C7.02344 15.1953 7.42801 14.3999 7.90852 14.1615C8.48633 13.8738 9.84095 13.7899 9.88323 13.7879Z" fill="#BC7546"/>
  <path d="M9.45335 14.1118C9.16188 14.4082 8.94635 14.6789 8.57222 14.984C8.3542 15.1621 7.63461 15.3189 7.27115 15.2621C7.11693 15.2579 7.02344 15.1955 7.02344 15.1955C7.02344 15.1955 8.02001 14.9913 8.50316 14.5641C8.96918 14.1523 9.82119 13.8124 9.88089 13.7893C9.85133 13.8078 9.60567 13.9573 9.45335 14.1118Z" fill="#F9C8A9"/>
  <path d="M6.06396 11.9469C6.06381 11.9482 6.0644 11.9488 6.0644 11.95C6.06235 12.0207 6.0461 13.0366 6.33172 13.714C6.62816 14.4164 6.35718 15.5005 6.35718 15.5005C6.35718 15.5005 5.53867 14.6764 5.48702 14.0785C5.42323 13.3586 6.04391 11.9894 6.06396 11.9469Z" fill="#BC7546"/>
  <path d="M6.2552 12.5415C6.48434 12.9861 6.72108 13.3427 6.91715 13.8728C7.03172 14.1819 6.84823 14.9697 6.57842 15.2943C6.4899 15.4428 6.35806 15.5005 6.35806 15.5005C6.35806 15.5005 6.62904 14.4164 6.3326 13.714C6.04699 13.0366 6.06323 12.0207 6.06528 11.95C6.07348 11.9889 6.13595 12.3095 6.2552 12.5415Z" fill="#F9C8A9"/>
  <path d="M7.76164 13.2572C7.76091 13.2582 7.76105 13.259 7.76032 13.26C7.72111 13.3221 7.16671 14.2175 7.06019 14.9328C6.95016 15.6745 6.13355 16.5288 6.13355 16.5288C6.13355 16.5288 5.84472 15.4711 6.11658 14.9195C6.44258 14.255 7.72126 13.2868 7.76164 13.2572Z" fill="#BC7546"/>
  <path d="M7.61385 13.861C7.58107 14.3471 7.60171 14.758 7.49401 15.3066C7.43154 15.6267 6.84992 16.2531 6.43774 16.4336C6.28045 16.5302 6.13281 16.5288 6.13281 16.5288C6.13281 16.5288 6.94942 15.6745 7.05945 14.9328C7.16597 14.2175 7.72037 13.3221 7.75958 13.26C7.74627 13.2979 7.63141 13.6074 7.61385 13.861Z" fill="#F9C8A9"/>
  <path d="M8.65081 15.5005C8.64993 15.501 8.64978 15.5018 8.64876 15.5024C8.59418 15.542 7.81679 16.1166 7.4687 16.6679C7.10803 17.2396 6.13281 17.709 6.13281 17.709C6.13281 17.709 6.28528 16.7713 6.7077 16.3982C7.21542 15.9484 8.6072 15.5135 8.65081 15.5005Z" fill="#BC7546"/>
  <path d="M8.31076 15.9506C8.10621 16.3361 7.97262 16.6753 7.68467 17.091C7.51684 17.3336 6.81568 17.6824 6.41521 17.7158C6.25206 17.751 6.13281 17.7095 6.13281 17.7095C6.13281 17.7095 7.10803 17.2401 7.4687 16.6684C7.81679 16.1171 8.59418 15.5425 8.64876 15.5029C8.62418 15.5299 8.41772 15.7497 8.31076 15.9506Z" fill="#F9C8A9"/>
  <path d="M5.19949 15.1952C5.19964 15.1961 5.20023 15.1965 5.20037 15.1973C5.21457 15.2483 5.42731 15.9791 5.7814 16.4173C6.14896 16.8716 6.19402 17.6934 6.19402 17.6934C6.19402 17.6934 5.42556 17.2383 5.25641 16.8184C5.05186 16.3129 5.19452 15.2289 5.19949 15.1952Z" fill="#BC7546"/>
  <path d="M5.46693 15.5898C5.72943 15.8705 5.97773 16.0869 6.23511 16.4343C6.38552 16.6369 6.42796 17.2319 6.30607 17.5091C6.27549 17.6301 6.19384 17.6934 6.19384 17.6934C6.19384 17.6934 6.14878 16.8716 5.78123 16.4173C5.42713 15.9791 5.21439 15.2483 5.2002 15.1973C5.21483 15.2239 5.33027 15.4432 5.46693 15.5898Z" fill="#F9C8A9"/>
  <path d="M7.74646 17.4275C7.74573 17.428 7.74558 17.4286 7.74485 17.4292C7.69935 17.4639 7.05203 17.9675 6.76935 18.4432C6.47671 18.9365 5.6582 19.354 5.6582 19.354C5.6582 19.354 5.76472 18.5531 6.11501 18.2279C6.53597 17.8354 7.70974 17.4394 7.74646 17.4275Z" fill="#BC7546"/>
  <path d="M7.46816 17.8168C7.3037 18.1487 7.1985 18.4399 6.96366 18.799C6.82685 19.0087 6.23879 19.3186 5.89875 19.3546C5.76092 19.3875 5.6582 19.3543 5.6582 19.3543C5.6582 19.3543 6.47671 18.9368 6.76935 18.4435C7.05203 17.9678 7.69935 17.4642 7.74485 17.4295C7.72451 17.453 7.5542 17.6439 7.46816 17.8168Z" fill="#F9C8A9"/>
  <path d="M5.75017 17.2088C5.74973 17.2099 5.75017 17.2107 5.74988 17.2118C5.73115 17.2823 5.47377 18.2954 5.59858 19.0238C5.72822 19.779 5.20001 20.8149 5.20001 20.8149C5.20001 20.8149 4.57699 19.845 4.66712 19.2378C4.77437 18.5065 5.72003 17.2477 5.75017 17.2088Z" fill="#BC7546"/>
  <path d="M5.79966 17.8373C5.9233 18.3229 6.07533 18.7216 6.14556 19.2865C6.18682 19.6161 5.81634 20.3714 5.46942 20.6479C5.34563 20.7806 5.2002 20.8149 5.2002 20.8149C5.2002 20.8149 5.72841 19.779 5.59877 19.0238C5.47396 18.2954 5.73133 17.2823 5.75006 17.2118C5.74904 17.2523 5.73543 17.584 5.79966 17.8373Z" fill="#F9C8A9"/>
  <path d="M14.3973 20.3985C13.7337 20.5682 12.4548 20.5363 11.6074 20.2178V19.2407H11.742C12.6366 19.7089 14.3161 19.8825 14.3161 18.9836C14.3161 18.3856 13.509 18.4756 12.8083 18.4756V17.6807C13.3684 17.6807 13.9418 17.7133 14.1575 17.4461C14.2422 17.3411 14.422 16.8281 13.6364 16.7514C13.0118 16.6898 12.4173 16.8361 11.8835 17.1099H11.7558V16.1446C12.8227 15.7729 14.8471 15.6675 15.3893 16.4884C15.7585 17.0485 15.3993 17.8569 14.5612 18.0124V18.0542C16.081 18.235 16.0678 19.9715 14.3973 20.3985Z" fill="#FFAD67"/>
</svg>