<svg
        xmlns="http://www.w3.org/2000/svg"
        width="20"
        height="28"
        viewBox="0 0 20 28"
        fill="none"
      >
        <path
          d="M14.5419 10.7541C17.7815 12.1864 20 15.1043 20 18.4712C20 23.2542 15.5225 27.1318 9.99969 27.1318C4.47682 27.1318 0 23.2542 0 18.4712C0 15.1834 2.11533 12.3235 5.23224 10.8565C6.64901 10.1901 8.27308 9.81105 9.99969 9.81105C11.635 9.81105 13.1791 10.151 14.5419 10.7541Z"
          fill="#FFCE68"
        />
        <path
          d="M9.99951 26.7773C7.43775 26.7773 5.02944 25.9134 3.21809 24.3445C1.40672 22.7757 0.40918 20.6899 0.40918 18.4713C0.40918 15.4233 2.33212 12.6249 5.42753 11.168C6.82174 10.5123 8.4027 10.1656 9.99951 10.1656C11.534 10.1656 12.9995 10.4698 14.3555 11.0698C15.906 11.7554 17.2142 12.7946 18.1385 14.0752C19.0884 15.3911 19.5904 16.9112 19.5904 18.4713C19.5904 20.6899 18.5928 22.7757 16.7813 24.3445C14.9697 25.9134 12.5613 26.7773 9.99951 26.7773Z"
          fill="#FDBC62"
        />
        <path
          d="M9.99993 25.7642C7.75058 25.7642 5.63588 25.0055 4.04548 23.628C2.45502 22.2505 1.5791 20.419 1.5791 18.4709C1.5791 15.7947 3.26748 13.3376 5.98545 12.0584C7.20966 11.4825 8.59785 11.1781 9.99993 11.1781C11.3472 11.1781 12.6341 11.4452 13.8247 11.9721C15.1862 12.574 16.3348 13.4865 17.1464 14.611C17.9804 15.7664 18.4213 17.1011 18.4213 18.4709C18.4213 20.419 17.5453 22.2504 15.9546 23.628C14.364 25.0055 12.2493 25.7642 9.99993 25.7642Z"
          stroke="#C49047"
          stroke-width="2.61099"
          stroke-miterlimit="10"
        />
        <path
          d="M10 23.4165C8.47479 23.4165 7.04087 22.9022 5.96241 21.9682C4.884 21.034 4.29004 19.7922 4.29004 18.4711C4.29004 16.6565 5.43492 14.9903 7.27789 14.1229C8.10801 13.7324 9.04931 13.5261 10 13.5261C10.9137 13.5261 11.7862 13.7072 12.5935 14.0644C13.5167 14.4727 14.2956 15.0913 14.8459 15.8538C15.4114 16.6373 15.7105 17.5424 15.7105 18.4711C15.7105 19.7922 15.1164 21.034 14.0379 21.9682C12.9593 22.9022 11.5254 23.4165 10 23.4165V23.4165Z"
          stroke="#FDBC62"
          stroke-width="1.865"
          stroke-miterlimit="10"
        />
        <path
          d="M9.99977 24.4932C8.1425 24.4932 6.39646 23.8668 5.08325 22.7294C3.77005 21.5919 3.04688 20.0798 3.04688 18.4713C3.04688 16.2616 4.44095 14.2328 6.6851 13.1765C7.69589 12.7011 8.84209 12.4498 9.99977 12.4498C11.1122 12.4498 12.1747 12.6704 13.1577 13.1053C14.2819 13.6024 15.2303 14.3559 15.9004 15.2842C16.589 16.2383 16.953 17.3403 16.953 18.4713C16.953 20.0797 16.2298 21.5919 14.9164 22.7294C13.6031 23.8668 11.8571 24.4932 9.99977 24.4932V24.4932Z"
          stroke="#C49047"
          stroke-width="2.61099"
          stroke-miterlimit="10"
        />
        <path
          d="M13.0529 9.43531V9.11522C13.0529 9.02259 12.9661 8.94744 12.8591 8.94744H6.78139C6.67433 8.94744 6.58757 9.02259 6.58757 9.11522V9.43531C6.58757 9.52844 6.67433 9.60359 6.78139 9.60359H12.8591C12.9661 9.60359 13.0529 9.52844 13.0529 9.43531ZM14.0551 9.19581C14.3097 9.68747 14.4511 10.2169 14.4736 10.7541C13.111 10.151 11.5669 9.81102 9.93151 9.81102C8.2049 9.81102 6.58083 10.19 5.16406 10.8564C5.17138 10.2842 5.315 9.71877 5.58541 9.19581L5.71161 8.95226C5.85244 8.67956 6.14536 8.48885 6.48726 8.44742L6.85964 8.40205C8.82343 8.16395 10.8171 8.16395 12.7814 8.40205L13.1532 8.44742C13.4952 8.48885 13.7881 8.67956 13.9289 8.95226L14.0551 9.19581Z"
          fill="#FDBC62"
        />
        <path
          d="M16.1683 0.686235L12.701 9.07178H10.7744L14.2316 0.693079V0.686235H16.1683Z"
          fill="#FF545F"
        />
        <path
          d="M14.2316 0.686235V0.693079L10.7744 9.07178H8.87207L12.3292 0.693079V0.686235H14.2316Z"
          fill="#62DADC"
        />
        <path
          d="M12.3284 0.686235V0.693079L8.87125 9.07178H6.92773L10.395 0.686235H12.3284Z"
          fill="#AC748C"
        />
        <path
          d="M19.3344 18.4714C19.3344 21.2025 16.7779 23.4165 13.6243 23.4165C10.4706 23.4165 7.91406 21.2025 7.91406 18.4714C7.91406 15.7401 10.4706 13.5261 13.6243 13.5261C16.7779 13.5261 19.3344 15.7401 19.3344 18.4714Z"
          fill="#FFDEAE"
        />
        <path
          d="M3.46094 0.686235L6.92828 9.07178H8.85487L5.3977 0.693079V0.686235H3.46094Z"
          fill="#AC748C"
        />
        <path
          d="M5.39746 0.686235V0.693079L8.85463 9.07178H10.757L7.29983 0.693079V0.686235H5.39746Z"
          fill="#62DADC"
        />
        <path
          d="M7.2998 0.686235V0.693079L10.757 9.07178H12.7005L9.23315 0.686235H7.2998Z"
          fill="#FF545F"
        />
        <path
          d="M18.9627 18.4716C18.9627 21.0248 16.5726 23.0947 13.6245 23.0947C10.6762 23.0947 8.28613 21.0248 8.28613 18.4716C8.28613 15.9182 10.6762 13.8483 13.6245 13.8483C16.5726 13.8483 18.9627 15.9182 18.9627 18.4716Z"
          fill="#FFCE68"
        />
        <path
          d="M17.6895 18.4713C17.6895 20.4156 15.8696 21.9917 13.6246 21.9917C11.3795 21.9917 9.55957 20.4156 9.55957 18.4713C9.55957 16.527 11.3795 14.9509 13.6246 14.9509C15.8696 14.9509 17.6895 16.527 17.6895 18.4713Z"
          fill="#C49047"
        />
        <path
          d="M15.3516 20.7183H11.8975V19.9358H12.9886V17.5673H11.8975V16.836C12.0643 16.836 12.224 16.8274 12.3769 16.8104C12.5298 16.7933 12.6573 16.7638 12.7593 16.7216C12.8797 16.6715 12.97 16.6063 13.0303 16.5259C13.0905 16.4457 13.1252 16.3453 13.1346 16.225H14.2848V19.9358H15.3516V20.7183Z"
          fill="#FFCE68"
        />
        <path
          d="M8.82724 16.9314C8.82718 16.9318 8.82742 16.9321 8.82736 16.9324C8.82701 16.9538 8.82559 17.2613 8.91435 17.4654C9.00648 17.6772 8.92817 18.0059 8.92817 18.0059C8.92817 18.0059 8.67772 17.7586 8.66 17.5778C8.63823 17.3602 8.8213 16.9443 8.82724 16.9314Z"
          fill="#C49047"
        />
        <path
          d="M8.88768 17.1109C8.95861 17.2448 9.03142 17.3521 9.09252 17.5119C9.12831 17.6052 9.07549 17.844 8.99496 17.9429C8.96872 17.9881 8.929 18.0059 8.929 18.0059C8.929 18.0059 9.00731 17.6772 8.91517 17.4654C8.82641 17.2613 8.82783 16.9538 8.82818 16.9324C8.8308 16.9441 8.85088 17.0409 8.88768 17.1109Z"
          fill="#FFDEAE"
        />
        <path
          d="M9.66317 17.2292C9.66288 17.2294 9.66288 17.2297 9.66254 17.2299C9.64597 17.2458 9.41054 17.4759 9.32155 17.68C9.22924 17.8916 8.91992 18.0938 8.91992 18.0938C8.91992 18.0938 8.9202 17.7649 9.0448 17.6189C9.19433 17.4431 9.64888 17.2354 9.66317 17.2292Z"
          fill="#C49047"
        />
        <path
          d="M9.5712 17.3981C9.52228 17.5392 9.49524 17.6614 9.41929 17.8165C9.37504 17.907 9.15334 18.0561 9.01743 18.0844C8.96331 18.1032 8.91992 18.0939 8.91992 18.0939C8.91992 18.0939 9.22924 17.8917 9.32155 17.6801C9.41054 17.476 9.64597 17.2459 9.66254 17.23C9.65556 17.2403 9.5968 17.3244 9.5712 17.3981Z"
          fill="#FFDEAE"
        />
        <path
          d="M8.60628 17.6844C8.60632 17.6846 8.6065 17.6849 8.60655 17.6852C8.60982 17.7064 8.6604 18.0107 8.78271 18.2015C8.90959 18.3993 8.88776 18.7344 8.88776 18.7344C8.88776 18.7344 8.59816 18.5216 8.55015 18.345C8.49178 18.1325 8.60262 17.6978 8.60628 17.6844Z"
          fill="#C49047"
        />
        <path
          d="M8.6955 17.8542C8.78826 17.9777 8.87845 18.0747 8.96589 18.225C9.01706 18.3128 9.00516 18.5557 8.94223 18.6637C8.92388 18.7117 8.88765 18.7344 8.88765 18.7344C8.88765 18.7344 8.90948 18.3993 8.7826 18.2015C8.66029 18.0107 8.60971 17.7064 8.60645 17.6852C8.61103 17.6966 8.6472 17.7898 8.6955 17.8542Z"
          fill="#FFDEAE"
        />
        <path
          d="M9.48342 17.8728C9.48315 17.873 9.4832 17.8733 9.48291 17.8735C9.46926 17.8914 9.27527 18.1488 9.22166 18.362C9.16622 18.5831 8.89439 18.8223 8.89439 18.8223C8.89439 18.8223 8.83905 18.497 8.9376 18.3368C9.05585 18.1438 9.47034 17.8808 9.48342 17.8728Z"
          fill="#C49047"
        />
        <path
          d="M9.4211 18.0512C9.39664 18.197 9.39052 18.3214 9.34159 18.4844C9.31313 18.5794 9.11897 18.7552 8.98929 18.8003C8.939 18.8259 8.89453 18.8221 8.89453 18.8221C8.89453 18.8221 9.16636 18.5829 9.2218 18.3618C9.27541 18.1486 9.4694 17.8912 9.48305 17.8733C9.47792 17.8845 9.43402 17.9752 9.4211 18.0512Z"
          fill="#FFDEAE"
        />
        <path
          d="M8.51562 18.5018C8.51574 18.5021 8.51596 18.5022 8.51608 18.5026C8.525 18.5226 8.65553 18.8084 8.82559 18.9696C9.0019 19.1364 9.07026 19.4668 9.07026 19.4668C9.07026 19.4668 8.73168 19.3179 8.63765 19.1557C8.52408 18.9607 8.51562 18.5157 8.51562 18.5018Z"
          fill="#C49047"
        />
        <path
          d="M8.64749 18.6491C8.77077 18.7507 8.88445 18.8269 9.00974 18.9556C9.08296 19.0306 9.13639 19.2694 9.10398 19.3871C9.09901 19.4375 9.0698 19.4668 9.0698 19.4668C9.0698 19.4668 9.00144 19.1364 8.82513 18.9696C8.65508 18.8084 8.52455 18.5226 8.51562 18.5026C8.52318 18.5126 8.58324 18.5961 8.64749 18.6491Z"
          fill="#FFDEAE"
        />
        <path
          d="M9.41876 18.5088C9.4186 18.5092 9.41872 18.5094 9.41854 18.5097C9.40997 18.5298 9.29011 18.8191 9.29496 19.0373C9.30017 19.2635 9.09973 19.5508 9.09973 19.5508C9.09973 19.5508 8.9589 19.2453 9.01194 19.0698C9.07533 18.8583 9.4082 18.5193 9.41876 18.5088Z"
          fill="#C49047"
        />
        <path
          d="M9.40568 18.6952C9.42088 18.8419 9.44814 18.9641 9.44414 19.1325C9.44185 19.2307 9.30005 19.4405 9.18597 19.5105C9.14384 19.5455 9.09961 19.5508 9.09961 19.5508C9.09961 19.5508 9.30005 19.2635 9.29484 19.0373C9.28998 18.8191 9.40985 18.5298 9.41842 18.5097C9.41636 18.5216 9.39789 18.6186 9.40568 18.6952Z"
          fill="#FFDEAE"
        />
        <path
          d="M8.62109 19.2684C8.62127 19.2688 8.62156 19.2688 8.62172 19.2692C8.63305 19.2882 8.79908 19.5598 8.9885 19.7038C9.18493 19.8529 9.29479 20.1748 9.29479 20.1748C9.29479 20.1748 8.93934 20.059 8.82537 19.9068C8.68774 19.7237 8.62286 19.2822 8.62109 19.2684Z"
          fill="#C49047"
        />
        <path
          d="M8.77269 19.4023C8.90809 19.4915 9.03069 19.5564 9.17158 19.6724C9.25388 19.74 9.33727 19.9723 9.32 20.0924C9.32144 20.1429 9.29611 20.1748 9.29611 20.1748C9.29611 20.1748 9.18625 19.8529 8.98982 19.7038C8.8004 19.5598 8.63437 19.2882 8.62305 19.2692C8.63174 19.2784 8.7021 19.3557 8.77269 19.4023Z"
          fill="#FFDEAE"
        />
        <path
          d="M9.52036 19.1898C9.52018 19.1902 9.52036 19.1904 9.52024 19.1908C9.51424 19.2116 9.43182 19.5105 9.46435 19.7269C9.49819 19.9512 9.33535 20.2559 9.33535 20.2559C9.33535 20.2559 9.15662 19.9657 9.18709 19.7861C9.22326 19.5699 9.51115 19.2012 9.52036 19.1898Z"
          fill="#C49047"
        />
        <path
          d="M9.5317 19.3763C9.56535 19.5208 9.60799 19.6395 9.62537 19.8073C9.63554 19.9051 9.52123 20.1272 9.41669 20.2076C9.37926 20.2464 9.33594 20.2559 9.33594 20.2559C9.33594 20.2559 9.49877 19.9512 9.46493 19.7269C9.4324 19.5105 9.51483 19.2116 9.52082 19.1908C9.52025 19.2027 9.51426 19.3009 9.5317 19.3763Z"
          fill="#FFDEAE"
        />
        <path
          d="M8.85742 20.0203C8.85764 20.0206 8.85799 20.0206 8.85821 20.0209C8.87341 20.0379 9.09472 20.2781 9.31168 20.3891C9.53664 20.5042 9.71348 20.8027 9.71348 20.8027C9.71348 20.8027 9.33941 20.7461 9.1948 20.6148C9.02036 20.4571 8.86216 20.0336 8.85742 20.0203Z"
          fill="#C49047"
        />
        <path
          d="M9.03294 20.1277C9.1851 20.1937 9.31946 20.2377 9.48275 20.3292C9.5781 20.3824 9.70972 20.5972 9.71853 20.718C9.73076 20.7674 9.71269 20.8027 9.71269 20.8027C9.71269 20.8027 9.53585 20.5042 9.31089 20.3891C9.09393 20.2781 8.87262 20.0379 8.85742 20.0209C8.86794 20.0286 8.95361 20.0933 9.03294 20.1277Z"
          fill="#FFDEAE"
        />
        <path
          d="M9.72367 19.7989C9.72361 19.7993 9.72383 19.7994 9.72377 19.7998C9.72235 19.8212 9.70532 20.1282 9.78362 20.3357C9.86489 20.5507 9.77008 20.876 9.77008 20.876C9.77008 20.876 9.53236 20.6195 9.52384 20.4383C9.51316 20.22 9.71708 19.8115 9.72367 19.7989Z"
          fill="#C49047"
        />
        <path
          d="M9.77365 19.9803C9.83766 20.1168 9.90498 20.2268 9.95796 20.3888C9.98895 20.4833 9.92408 20.7199 9.83857 20.8156C9.81005 20.8597 9.76954 20.876 9.76954 20.876C9.76954 20.876 9.86435 20.5507 9.78307 20.3357C9.70478 20.1282 9.72181 19.8212 9.72323 19.7998C9.72523 19.8115 9.74037 19.9091 9.77365 19.9803Z"
          fill="#FFDEAE"
        />
        <path
          d="M9.22363 20.71C9.22393 20.7103 9.2242 20.7103 9.2245 20.7106C9.2429 20.7249 9.50941 20.928 9.7454 21.0043C9.99021 21.0835 10.2247 21.3506 10.2247 21.3506C10.2247 21.3506 9.84491 21.3516 9.67596 21.2442C9.47231 21.1153 9.23095 20.7224 9.22363 20.71Z"
          fill="#C49047"
        />
        <path
          d="M9.41905 20.7891C9.58217 20.8309 9.72341 20.854 9.90265 20.9191C10.0072 20.9571 10.1803 21.1486 10.2134 21.2662C10.2354 21.3131 10.2248 21.3506 10.2248 21.3506C10.2248 21.3506 9.99032 21.0835 9.74552 21.0043C9.50952 20.928 9.24302 20.7249 9.22461 20.7106C9.23655 20.7166 9.33394 20.7672 9.41905 20.7891Z"
          fill="#FFDEAE"
        />
        <path
          d="M10.0311 20.3601C10.0311 20.3605 10.0313 20.3607 10.0313 20.361C10.0342 20.3823 10.0796 20.6872 10.1987 20.8794C10.3222 21.0789 10.2946 21.4136 10.2946 21.4136C10.2946 21.4136 10.0087 21.1971 9.96364 21.02C9.90894 20.8067 10.0272 20.3736 10.0311 20.3601Z"
          fill="#C49047"
        />
        <path
          d="M10.1174 20.5311C10.2081 20.6558 10.2966 20.7538 10.3815 20.9053C10.4311 20.9937 10.4151 21.2365 10.3504 21.3437C10.3311 21.3915 10.2946 21.4136 10.2946 21.4136C10.2946 21.4136 10.3221 21.0789 10.1986 20.8794C10.0795 20.6872 10.0342 20.3823 10.0312 20.361C10.0357 20.3723 10.0702 20.4661 10.1174 20.5311Z"
          fill="#FFDEAE"
        />
        <path
          d="M9.82422 21.3982C9.82456 21.3983 9.82485 21.3983 9.82518 21.3984C9.84709 21.4085 10.1627 21.5491 10.4131 21.5735C10.6727 21.5986 10.9754 21.8081 10.9754 21.8081C10.9754 21.8081 10.6073 21.8891 10.4133 21.8207C10.1795 21.7387 9.8348 21.4086 9.82422 21.3982Z"
          fill="#C49047"
        />
        <path
          d="M10.0349 21.4335C10.2049 21.4397 10.3483 21.4322 10.5405 21.4576C10.6527 21.4724 10.8744 21.6215 10.9396 21.7287C10.9741 21.7693 10.9744 21.8081 10.9744 21.8081C10.9744 21.8081 10.6718 21.5985 10.4121 21.5734C10.1617 21.5491 9.84612 21.4085 9.82422 21.3984C9.83755 21.4017 9.94619 21.4302 10.0349 21.4335Z"
          fill="#FFDEAE"
        />
        <path
          d="M10.5088 20.8884C10.509 20.8887 10.5092 20.8888 10.5094 20.8892C10.5182 20.9092 10.648 21.1953 10.8175 21.3566C10.9934 21.524 11.0609 21.8545 11.0609 21.8545C11.0609 21.8545 10.7227 21.7049 10.6292 21.5425C10.516 21.3473 10.5088 20.9022 10.5088 20.8884Z"
          fill="#C49047"
        />
        <path
          d="M10.6412 21.036C10.7642 21.1378 10.8777 21.2142 11.0026 21.3432C11.0756 21.4184 11.1284 21.6572 11.0957 21.7749C11.0906 21.8252 11.0613 21.8545 11.0613 21.8545C11.0613 21.8545 10.9938 21.524 10.818 21.3566C10.6484 21.1953 10.5186 20.9092 10.5098 20.8892C10.5172 20.8993 10.5771 20.9828 10.6412 21.036Z"
          fill="#FFDEAE"
        />
        <path
          d="M10.4785 21.8916C10.4789 21.8919 10.4791 21.8917 10.4795 21.892C10.5018 21.9012 10.8231 22.0319 11.0744 22.0482C11.3349 22.0651 11.6461 22.265 11.6461 22.265C11.6461 22.265 11.2816 22.3577 11.0849 22.2953C10.8478 22.2207 10.4895 21.9017 10.4785 21.8916Z"
          fill="#C49047"
        />
        <path
          d="M10.6905 21.92C10.8607 21.9207 11.0037 21.9088 11.1968 21.9281C11.3095 21.9393 11.5373 22.0814 11.607 22.1863C11.6433 22.226 11.6452 22.2646 11.6452 22.2646C11.6452 22.2646 11.3339 22.0647 11.0734 22.0478C10.8221 22.0315 10.5008 21.9008 10.4785 21.8916C10.4919 21.8944 10.6018 21.9194 10.6905 21.92Z"
          fill="#FFDEAE"
        />
        <path
          d="M11.1406 21.3602C11.1407 21.3604 11.141 21.3605 11.1412 21.3609C11.1508 21.3805 11.2925 21.6625 11.4687 21.8184C11.6516 21.98 11.733 22.3081 11.733 22.3081C11.733 22.3081 11.3887 22.1694 11.2883 22.0101C11.1671 21.8185 11.1412 21.374 11.1406 21.3602Z"
          fill="#C49047"
        />
        <path
          d="M11.2791 21.5034C11.4063 21.6013 11.5228 21.6741 11.6532 21.7991C11.7293 21.872 11.792 22.1089 11.7644 22.2275C11.7613 22.2781 11.7334 22.3081 11.7334 22.3081C11.7334 22.3081 11.652 21.98 11.4691 21.8184C11.293 21.6625 11.1512 21.3805 11.1416 21.3609C11.1494 21.3706 11.2128 21.4524 11.2791 21.5034Z"
          fill="#FFDEAE"
        />
        <path
          d="M11.3184 22.3585C11.3188 22.3585 11.3189 22.3584 11.3194 22.3585C11.3438 22.3623 11.6938 22.4131 11.9409 22.3701C12.197 22.3255 12.559 22.4454 12.559 22.4454C12.559 22.4454 12.2369 22.6196 12.028 22.6056C11.7765 22.5892 11.3321 22.3657 11.3184 22.3585Z"
          fill="#C49047"
        />
        <path
          d="M11.5324 22.3358C11.6964 22.297 11.8304 22.252 12.0224 22.2255C12.1345 22.2099 12.3981 22.2936 12.4978 22.3784C12.545 22.4081 12.5589 22.4448 12.5589 22.4448C12.5589 22.4448 12.197 22.3249 11.9409 22.3695C11.6938 22.4125 11.3438 22.3617 11.3193 22.358C11.3332 22.3577 11.4468 22.3561 11.5324 22.3358Z"
          fill="#FFDEAE"
        />
        <path
          d="M12.3047 22.6568C12.3051 22.6568 12.3053 22.6567 12.3057 22.6567C12.3304 22.6568 12.6854 22.6561 12.9207 22.578C13.1646 22.4969 13.5446 22.5626 13.5446 22.5626C13.5446 22.5626 13.2607 22.7811 13.0521 22.7975C12.8009 22.8178 12.3196 22.6618 12.3047 22.6568Z"
          fill="#C49047"
        />
        <path
          d="M12.5124 22.604C12.6666 22.5418 12.7899 22.478 12.9741 22.424C13.0815 22.3925 13.3576 22.4367 13.4724 22.5059C13.5247 22.5283 13.5455 22.5626 13.5455 22.5626C13.5455 22.5626 13.1655 22.4969 12.9216 22.578C12.6863 22.6561 12.3314 22.6568 12.3066 22.6567C12.3202 22.6543 12.4319 22.6364 12.5124 22.604Z"
          fill="#FFDEAE"
        />
        <path
          d="M11.792 21.6922C11.7923 21.6926 11.7926 21.6926 11.7927 21.6928C11.8082 21.7096 12.0324 21.9479 12.2507 22.0569C12.4771 22.1699 12.6576 22.4668 12.6576 22.4668C12.6576 22.4668 12.2829 22.4136 12.1366 22.2836C11.9603 22.1275 11.7968 21.7055 11.792 21.6922Z"
          fill="#C49047"
        />
        <path
          d="M11.9699 21.798C12.1228 21.8626 12.2577 21.9054 12.4221 21.9953C12.5181 22.0477 12.6523 22.2613 12.6625 22.382C12.6754 22.4313 12.6579 22.4668 12.6579 22.4668C12.6579 22.4668 12.4773 22.1699 12.2509 22.0569C12.0326 21.9479 11.8085 21.7096 11.793 21.6928C11.8036 21.7005 11.8901 21.7643 11.9699 21.798Z"
          fill="#FFDEAE"
        />
        <path
          d="M12.6289 22.0061C12.6292 22.0063 12.6295 22.0063 12.6298 22.0065C12.646 22.0188 12.8813 22.1947 13.0886 22.2598C13.3037 22.3274 13.5116 22.5596 13.5116 22.5596C13.5116 22.5596 13.1792 22.5631 13.0303 22.4705C12.8507 22.3591 12.6355 22.0168 12.6289 22.0061Z"
          fill="#C49047"
        />
        <path
          d="M12.8008 22.0738C12.944 22.1093 13.068 22.1283 13.2254 22.1842C13.3174 22.2166 13.4708 22.3831 13.5009 22.4858C13.5207 22.5266 13.5117 22.5596 13.5117 22.5596C13.5117 22.5596 13.3038 22.3274 13.0887 22.2599C12.8814 22.1947 12.6461 22.0188 12.6299 22.0066C12.6404 22.0118 12.7262 22.0554 12.8008 22.0738Z"
          fill="#FFDEAE"
        />
        <path
          d="M12.9961 22.8511C12.9962 22.8509 12.9964 22.8508 12.9965 22.8508C13.0081 22.8459 13.172 22.7751 13.2602 22.6924C13.3515 22.6065 13.5446 22.5615 13.5446 22.5615C13.5446 22.5615 13.4712 22.7188 13.379 22.7678C13.2682 22.827 13.0043 22.8504 12.9961 22.8511Z"
          fill="#C49047"
        />
        <path
          d="M13.0783 22.7853C13.1331 22.726 13.1734 22.672 13.2443 22.6106C13.2856 22.5746 13.4251 22.5402 13.4963 22.5495C13.5264 22.5495 13.5452 22.5613 13.5452 22.5613C13.5452 22.5613 13.352 22.6062 13.2607 22.6922C13.1725 22.7749 13.0086 22.8456 12.9971 22.8506C13.0028 22.8468 13.0496 22.8162 13.0783 22.7853Z"
          fill="#FFDEAE"
        />
        <path
          d="M18.4219 16.9314C18.4221 16.9318 18.4218 16.9321 18.4218 16.9324C18.4222 16.9538 18.4236 17.2613 18.3349 17.4654C18.2429 17.6772 18.321 18.0059 18.321 18.0059C18.321 18.0059 18.5715 17.7586 18.5892 17.5778C18.611 17.3602 18.4279 16.9443 18.4219 16.9314Z"
          fill="#C49047"
        />
        <path
          d="M18.3628 17.1109C18.2918 17.2448 18.2189 17.3521 18.1579 17.5119C18.1221 17.6052 18.1749 17.844 18.2555 17.9429C18.2817 17.9881 18.3214 18.0059 18.3214 18.0059C18.3214 18.0059 18.2432 17.6772 18.3353 17.4654C18.4239 17.2613 18.4226 16.9538 18.4222 16.9324C18.4195 16.9441 18.3996 17.0409 18.3628 17.1109Z"
          fill="#FFDEAE"
        />
        <path
          d="M17.5859 17.2292C17.5862 17.2294 17.5862 17.2297 17.5865 17.2299C17.6032 17.2458 17.8386 17.4759 17.9276 17.68C18.0199 17.8916 18.3292 18.0938 18.3292 18.0938C18.3292 18.0938 18.3289 17.7649 18.2043 17.6189C18.0547 17.4431 17.6003 17.2354 17.5859 17.2292Z"
          fill="#C49047"
        />
        <path
          d="M17.6784 17.3981C17.7272 17.5392 17.7543 17.6614 17.8302 17.8165C17.8744 17.907 18.0962 18.0561 18.232 18.0844C18.2862 18.1032 18.3296 18.0939 18.3296 18.0939C18.3296 18.0939 18.0203 17.8917 17.928 17.6801C17.839 17.476 17.6036 17.2459 17.5869 17.23C17.5939 17.2403 17.6528 17.3244 17.6784 17.3981Z"
          fill="#FFDEAE"
        />
        <path
          d="M18.6423 17.6844C18.6423 17.6846 18.642 17.6849 18.642 17.6852C18.6388 17.7064 18.5882 18.0107 18.4659 18.2015C18.339 18.3993 18.3608 18.7344 18.3608 18.7344C18.3608 18.7344 18.6504 18.5216 18.6985 18.345C18.7567 18.1325 18.646 17.6978 18.6423 17.6844Z"
          fill="#C49047"
        />
        <path
          d="M18.5533 17.8542C18.4605 17.9777 18.3704 18.0747 18.2829 18.225C18.2318 18.3128 18.2437 18.5557 18.3066 18.6637C18.3249 18.7117 18.3612 18.7344 18.3612 18.7344C18.3612 18.7344 18.3394 18.3993 18.4662 18.2015C18.5886 18.0107 18.6392 17.7064 18.6424 17.6852C18.6379 17.6966 18.6016 17.7898 18.5533 17.8542Z"
          fill="#FFDEAE"
        />
        <path
          d="M17.7656 17.8728C17.7658 17.873 17.7658 17.8733 17.7661 17.8735C17.7798 17.8914 17.9737 18.1488 18.0274 18.362C18.0828 18.5831 18.3547 18.8223 18.3547 18.8223C18.3547 18.8223 18.41 18.497 18.3114 18.3368C18.1932 18.1438 17.7786 17.8808 17.7656 17.8728Z"
          fill="#C49047"
        />
        <path
          d="M17.8285 18.0512C17.8531 18.197 17.8592 18.3214 17.9081 18.4844C17.9366 18.5794 18.1306 18.7552 18.2604 18.8003C18.3108 18.8259 18.3552 18.8221 18.3552 18.8221C18.3552 18.8221 18.0834 18.5829 18.0279 18.3618C17.9742 18.1486 17.7804 17.8912 17.7666 17.8733C17.7717 17.8845 17.8156 17.9752 17.8285 18.0512Z"
          fill="#FFDEAE"
        />
        <path
          d="M18.7344 18.5018C18.7342 18.5021 18.7339 18.5022 18.7338 18.5026C18.725 18.5226 18.5944 18.8084 18.4243 18.9696C18.248 19.1364 18.1797 19.4668 18.1797 19.4668C18.1797 19.4668 18.5183 19.3179 18.6122 19.1557C18.7259 18.9607 18.7342 18.5157 18.7344 18.5018Z"
          fill="#C49047"
        />
        <path
          d="M18.6009 18.6491C18.4777 18.7507 18.364 18.8269 18.2388 18.9556C18.1655 19.0306 18.1121 19.2694 18.1444 19.3871C18.1494 19.4375 18.1786 19.4668 18.1786 19.4668C18.1786 19.4668 18.247 19.1364 18.4233 18.9696C18.5933 18.8084 18.724 18.5226 18.7328 18.5026C18.7253 18.5126 18.6652 18.5961 18.6009 18.6491Z"
          fill="#FFDEAE"
        />
        <path
          d="M17.8301 18.5088C17.8302 18.5092 17.8301 18.5094 17.8302 18.5097C17.8389 18.5298 17.9587 18.8191 17.9537 19.0373C17.9486 19.2635 18.1491 19.5508 18.1491 19.5508C18.1491 19.5508 18.29 19.2453 18.2368 19.0698C18.1735 18.8583 17.8406 18.5193 17.8301 18.5088Z"
          fill="#C49047"
        />
        <path
          d="M17.8436 18.6952C17.8283 18.8419 17.8011 18.9641 17.8051 19.1325C17.8074 19.2307 17.9492 19.4405 18.0633 19.5105C18.1055 19.5455 18.1497 19.5508 18.1497 19.5508C18.1497 19.5508 17.9492 19.2635 17.9543 19.0373C17.9593 18.8191 17.8395 18.5298 17.8308 18.5097C17.8329 18.5216 17.8513 18.6186 17.8436 18.6952Z"
          fill="#FFDEAE"
        />
        <path
          d="M18.6269 19.2684C18.6268 19.2688 18.6265 19.2688 18.6263 19.2692C18.6149 19.2882 18.4488 19.5598 18.2595 19.7038C18.063 19.8529 17.9531 20.1748 17.9531 20.1748C17.9531 20.1748 18.3087 20.059 18.4227 19.9068C18.5602 19.7237 18.625 19.2822 18.6269 19.2684Z"
          fill="#C49047"
        />
        <path
          d="M18.4774 19.4023C18.3421 19.4915 18.2194 19.5564 18.0785 19.6724C17.9962 19.74 17.9128 19.9723 17.93 20.0924C17.9286 20.1429 17.9539 20.1748 17.9539 20.1748C17.9539 20.1748 18.0638 19.8529 18.2603 19.7038C18.4496 19.5598 18.6157 19.2882 18.6271 19.2692C18.6183 19.2784 18.5479 19.3557 18.4774 19.4023Z"
          fill="#FFDEAE"
        />
        <path
          d="M17.7285 19.1898C17.7287 19.1902 17.7285 19.1904 17.7287 19.1908C17.7345 19.2116 17.817 19.5105 17.7844 19.7269C17.7506 19.9512 17.9135 20.2559 17.9135 20.2559C17.9135 20.2559 18.0921 19.9657 18.0617 19.7861C18.0255 19.5699 17.7376 19.2012 17.7285 19.1898Z"
          fill="#C49047"
        />
        <path
          d="M17.7173 19.3763C17.6837 19.5208 17.6411 19.6395 17.6237 19.8073C17.6134 19.9051 17.7279 20.1272 17.8323 20.2076C17.8698 20.2464 17.9131 20.2559 17.9131 20.2559C17.9131 20.2559 17.7503 19.9512 17.7841 19.7269C17.8167 19.5105 17.7342 19.2116 17.7283 19.1908C17.7287 19.2027 17.7349 19.3009 17.7173 19.3763Z"
          fill="#FFDEAE"
        />
        <path
          d="M18.3921 20.0203C18.3919 20.0206 18.3917 20.0206 18.3914 20.0209C18.3761 20.0379 18.1548 20.2781 17.9379 20.3891C17.7129 20.5042 17.5361 20.8027 17.5361 20.8027C17.5361 20.8027 17.9101 20.7461 18.0547 20.6148C18.2292 20.4571 18.3874 20.0336 18.3921 20.0203Z"
          fill="#C49047"
        />
        <path
          d="M18.2152 20.1277C18.0631 20.1937 17.9287 20.2377 17.7654 20.3292C17.6701 20.3824 17.5384 20.5972 17.5297 20.718C17.5174 20.7674 17.5355 20.8027 17.5355 20.8027C17.5355 20.8027 17.7123 20.5042 17.9373 20.3891C18.1541 20.2781 18.3755 20.0379 18.3907 20.0209C18.3802 20.0286 18.2945 20.0933 18.2152 20.1277Z"
          fill="#FFDEAE"
        />
        <path
          d="M17.5265 19.7989C17.5265 19.7993 17.5263 19.7994 17.5263 19.7998C17.5278 19.8212 17.5447 20.1282 17.4665 20.3357C17.3853 20.5507 17.4801 20.876 17.4801 20.876C17.4801 20.876 17.7178 20.6195 17.7263 20.4383C17.737 20.22 17.533 19.8115 17.5265 19.7989Z"
          fill="#C49047"
        />
        <path
          d="M17.4754 19.9803C17.4113 20.1168 17.344 20.2268 17.2911 20.3888C17.2601 20.4833 17.325 20.7199 17.4105 20.8156C17.439 20.8597 17.4795 20.876 17.4795 20.876C17.4795 20.876 17.3847 20.5507 17.4659 20.3357C17.5442 20.1282 17.5272 19.8212 17.5258 19.7998C17.5237 19.8115 17.5086 19.9091 17.4754 19.9803Z"
          fill="#FFDEAE"
        />
        <path
          d="M18.0255 20.71C18.0252 20.7103 18.0249 20.7103 18.0246 20.7106C18.0062 20.7249 17.7396 20.928 17.5036 21.0043C17.259 21.0835 17.0244 21.3506 17.0244 21.3506C17.0244 21.3506 17.4041 21.3516 17.5731 21.2442C17.7768 21.1153 18.0182 20.7224 18.0255 20.71Z"
          fill="#C49047"
        />
        <path
          d="M17.8298 20.7891C17.6667 20.8309 17.5255 20.854 17.3463 20.9191C17.2416 20.9571 17.0685 21.1486 17.0355 21.2662C17.0134 21.3131 17.0241 21.3506 17.0241 21.3506C17.0241 21.3506 17.2586 21.0835 17.5033 21.0043C17.7393 20.928 18.0059 20.7249 18.0243 20.7106C18.0123 20.7166 17.9148 20.7672 17.8298 20.7891Z"
          fill="#FFDEAE"
        />
        <path
          d="M17.2173 20.3601C17.2173 20.3605 17.2172 20.3607 17.217 20.361C17.2142 20.3823 17.1689 20.6872 17.0498 20.8794C16.9263 21.0789 16.9538 21.4136 16.9538 21.4136C16.9538 21.4136 17.2397 21.1971 17.2848 21.02C17.3395 20.8067 17.2213 20.3736 17.2173 20.3601Z"
          fill="#C49047"
        />
        <path
          d="M17.1311 20.5311C17.0404 20.6558 16.9519 20.7538 16.867 20.9053C16.8174 20.9937 16.8334 21.2365 16.8982 21.3437C16.9173 21.3915 16.9539 21.4136 16.9539 21.4136C16.9539 21.4136 16.9264 21.0789 17.0499 20.8794C17.169 20.6872 17.2144 20.3823 17.2172 20.361C17.2128 20.3723 17.1782 20.4661 17.1311 20.5311Z"
          fill="#FFDEAE"
        />
        <path
          d="M17.4255 21.3982C17.4252 21.3983 17.4249 21.3983 17.4245 21.3984C17.4027 21.4085 17.0871 21.5491 16.8366 21.5735C16.577 21.5986 16.2744 21.8081 16.2744 21.8081C16.2744 21.8081 16.6424 21.8891 16.8364 21.8207C17.0702 21.7387 17.415 21.4086 17.4255 21.3982Z"
          fill="#C49047"
        />
        <path
          d="M17.2139 21.4335C17.0439 21.4397 16.9005 21.4322 16.7082 21.4576C16.5962 21.4724 16.3743 21.6215 16.3092 21.7287C16.2747 21.7693 16.2744 21.8081 16.2744 21.8081C16.2744 21.8081 16.577 21.5985 16.8366 21.5734C17.0871 21.5491 17.4027 21.4085 17.4245 21.3984C17.4113 21.4017 17.3026 21.4302 17.2139 21.4335Z"
          fill="#FFDEAE"
        />
        <path
          d="M16.7405 20.8884C16.7404 20.8887 16.7401 20.8888 16.7401 20.8892C16.7312 20.9092 16.6014 21.1953 16.4318 21.3566C16.2559 21.524 16.1885 21.8545 16.1885 21.8545C16.1885 21.8545 16.5266 21.7049 16.6203 21.5425C16.7332 21.3473 16.7405 20.9022 16.7405 20.8884Z"
          fill="#C49047"
        />
        <path
          d="M16.6089 21.036C16.486 21.1378 16.3725 21.2142 16.2475 21.3432C16.1745 21.4184 16.1217 21.6572 16.1545 21.7749C16.1596 21.8252 16.1888 21.8545 16.1888 21.8545C16.1888 21.8545 16.2563 21.524 16.4322 21.3566C16.6018 21.1953 16.7315 20.9092 16.7405 20.8892C16.7329 20.8993 16.673 20.9828 16.6089 21.036Z"
          fill="#FFDEAE"
        />
        <path
          d="M16.7711 21.8916C16.7708 21.8919 16.7705 21.8917 16.7701 21.892C16.7479 21.9012 16.4266 22.0319 16.1753 22.0482C15.9147 22.0651 15.6035 22.265 15.6035 22.265C15.6035 22.265 15.968 22.3577 16.1648 22.2953C16.4018 22.2207 16.7602 21.9017 16.7711 21.8916Z"
          fill="#C49047"
        />
        <path
          d="M16.5581 21.92C16.3881 21.9207 16.245 21.9088 16.0518 21.9281C15.9392 21.9393 15.7114 22.0814 15.6417 22.1863C15.6054 22.226 15.6035 22.2646 15.6035 22.2646C15.6035 22.2646 15.9147 22.0647 16.1753 22.0478C16.4266 22.0315 16.7479 21.9008 16.7701 21.8916C16.7568 21.8944 16.6469 21.9194 16.5581 21.92Z"
          fill="#FFDEAE"
        />
        <path
          d="M16.1079 21.3602C16.1078 21.3604 16.1076 21.3605 16.1075 21.3609C16.0978 21.3805 15.956 21.6625 15.7799 21.8184C15.597 21.98 15.5156 22.3081 15.5156 22.3081C15.5156 22.3081 15.8599 22.1694 15.9603 22.0101C16.0814 21.8185 16.1073 21.374 16.1079 21.3602Z"
          fill="#C49047"
        />
        <path
          d="M15.9705 21.5034C15.8434 21.6013 15.7267 21.6741 15.5964 21.7991C15.5203 21.872 15.4575 22.1089 15.4852 22.2275C15.4882 22.2781 15.5162 22.3081 15.5162 22.3081C15.5162 22.3081 15.5975 21.98 15.7804 21.8184C15.9566 21.6625 16.0984 21.3805 16.108 21.3609C16.1001 21.3706 16.0368 21.4524 15.9705 21.5034Z"
          fill="#FFDEAE"
        />
        <path
          d="M15.9301 22.3585C15.9296 22.3585 15.9295 22.3584 15.9291 22.3585C15.9048 22.3623 15.5546 22.4131 15.3075 22.3701C15.0514 22.3255 14.6895 22.4454 14.6895 22.4454C14.6895 22.4454 15.0115 22.6196 15.2204 22.6056C15.472 22.5892 15.9163 22.3657 15.9301 22.3585Z"
          fill="#C49047"
        />
        <path
          d="M15.716 22.3358C15.552 22.297 15.418 22.252 15.226 22.2255C15.1139 22.2099 14.8503 22.2936 14.7506 22.3784C14.7034 22.4081 14.6895 22.4448 14.6895 22.4448C14.6895 22.4448 15.0514 22.3249 15.3075 22.3695C15.5546 22.4125 15.9048 22.3617 15.9291 22.358C15.9152 22.3577 15.8016 22.3561 15.716 22.3358Z"
          fill="#FFDEAE"
        />
        <path
          d="M15.4573 21.6922C15.457 21.6926 15.4567 21.6926 15.4565 21.6928C15.441 21.7096 15.2169 21.9479 14.9986 22.0569C14.7722 22.1699 14.5918 22.4668 14.5918 22.4668C14.5918 22.4668 14.9665 22.4136 15.1127 22.2836C15.289 22.1275 15.4524 21.7055 15.4573 21.6922Z"
          fill="#C49047"
        />
        <path
          d="M15.2794 21.798C15.1265 21.8626 14.9916 21.9054 14.8271 21.9953C14.7313 22.0477 14.597 22.2613 14.5867 22.382C14.5738 22.4313 14.5916 22.4668 14.5916 22.4668C14.5916 22.4668 14.772 22.1699 14.9983 22.0569C15.2166 21.9479 15.4408 21.7096 15.4563 21.6928C15.4456 21.7005 15.3591 21.7643 15.2794 21.798Z"
          fill="#FFDEAE"
        />
        <path
          d="M15.078 22.6551C15.0776 22.6551 15.0774 22.655 15.077 22.655C15.0523 22.655 14.6973 22.6522 14.4626 22.5726C14.2194 22.4901 13.8389 22.5535 13.8389 22.5535C13.8389 22.5535 14.121 22.7737 14.3295 22.7913C14.5806 22.8131 15.0631 22.6601 15.078 22.6551Z"
          fill="#C49047"
        />
        <path
          d="M14.8717 22.6014C14.7179 22.5382 14.595 22.4737 14.4114 22.4187C14.3042 22.3865 14.0278 22.4291 13.9125 22.4975C13.8599 22.5197 13.8389 22.5538 13.8389 22.5538C13.8389 22.5538 14.2194 22.4904 14.4626 22.5729C14.6973 22.6525 15.0523 22.6553 15.077 22.6553C15.0634 22.6529 14.9519 22.6342 14.8717 22.6014Z"
          fill="#FFDEAE"
        />
        <path
          d="M14.62 22.0061C14.6197 22.0063 14.6195 22.0063 14.6192 22.0065C14.6031 22.0188 14.3676 22.1947 14.1603 22.2598C13.9452 22.3274 13.7373 22.5596 13.7373 22.5596C13.7373 22.5596 14.0697 22.5631 14.2187 22.4705C14.3982 22.3591 14.6135 22.0168 14.62 22.0061Z"
          fill="#C49047"
        />
        <path
          d="M14.4483 22.0738C14.3051 22.1093 14.1811 22.1283 14.0237 22.1842C13.9317 22.2166 13.7783 22.3831 13.7482 22.4858C13.7284 22.5266 13.7374 22.5596 13.7374 22.5596C13.7374 22.5596 13.9453 22.3274 14.1604 22.2599C14.3677 22.1947 14.6031 22.0188 14.6192 22.0066C14.6088 22.0118 14.5229 22.0554 14.4483 22.0738Z"
          fill="#FFDEAE"
        />
        <path
          d="M14.2526 22.8511C14.2525 22.8509 14.2524 22.8508 14.2522 22.8508C14.2408 22.8459 14.0768 22.7751 13.9885 22.6924C13.8972 22.6065 13.7041 22.5615 13.7041 22.5615C13.7041 22.5615 13.7776 22.7188 13.8697 22.7678C13.9806 22.827 14.2445 22.8504 14.2526 22.8511Z"
          fill="#C49047"
        />
        <path
          d="M14.171 22.7853C14.1161 22.726 14.0759 22.672 14.0051 22.6106C13.9637 22.5746 13.8242 22.5402 13.753 22.5495C13.7228 22.5495 13.7041 22.5613 13.7041 22.5613C13.7041 22.5613 13.8972 22.6062 13.9885 22.6922C14.0768 22.7749 14.2408 22.8456 14.2522 22.8506C14.2465 22.8468 14.1997 22.8162 14.171 22.7853Z"
          fill="#FFDEAE"
        />
        <path
          d="M11.2239 12.0865C8.55681 12.5532 6.53276 13.931 5.38834 15.6021C4.44561 16.9771 4.31188 18.0828 4.71054 19.394C6.63609 26.0034 9.37076 22.529 13.0448 25.7496C13.0763 25.7778 13.0713 25.8136 13.0454 25.8349L12.7659 26.0622C12.7403 26.0831 12.6989 26.0846 12.671 26.0597C10.4054 24.0951 8.64808 24.8428 6.84591 23.7538C5.31593 22.8179 4.65372 20.8632 4.23638 19.2371C3.8296 17.643 4.38166 16.2196 5.5534 14.8817C5.62347 14.7988 5.84468 14.5712 5.8813 14.5357C7.31883 13.18 8.99742 12.3079 11.2239 12.0865Z"
          fill="#C49047"
        />
        <path
          d="M3.34671 13.9558C3.34649 13.9569 3.34694 13.9575 3.34671 13.9586C3.33426 14.025 3.16662 14.979 3.33374 15.6485C3.50732 16.3426 3.08986 17.332 3.08986 17.332C3.08986 17.332 2.44325 16.4648 2.4843 15.8963C2.53224 15.2118 3.32157 13.9934 3.34671 13.9558Z"
          fill="#C49047"
        />
        <path
          d="M3.43672 14.5365C3.58566 14.9807 3.7549 15.3428 3.85978 15.8635C3.92128 16.1672 3.63053 16.8878 3.32789 17.1629C3.22244 17.2926 3.08984 17.332 3.08984 17.332C3.08984 17.332 3.5073 16.3426 3.33373 15.6485C3.1666 14.979 3.33424 14.025 3.34669 13.9586C3.34858 13.9962 3.35933 14.3047 3.43672 14.5365Z"
          fill="#FFDEAE"
        />
        <path
          d="M5.03213 15.109C5.03162 15.11 5.03196 15.1106 5.03144 15.1118C5.0056 15.1751 4.64514 16.0881 4.67239 16.7728C4.70091 17.4825 4.0873 18.3921 4.0873 18.3921C4.0873 18.3921 3.62874 17.4392 3.78564 16.886C3.97316 16.2198 4.99961 15.142 5.03213 15.109Z"
          fill="#C49047"
        />
        <path
          d="M5.0022 15.6943C5.05776 16.1543 5.15011 16.5367 5.14663 17.0652C5.14486 17.3735 4.71106 18.038 4.35687 18.2622C4.22648 18.3736 4.08789 18.3921 4.08789 18.3921C4.08789 18.3921 4.7015 17.4825 4.67299 16.7728C4.64573 16.0881 5.0062 15.1751 5.03204 15.1117C5.02627 15.149 4.97363 15.4544 5.0022 15.6943Z"
          fill="#FFDEAE"
        />
        <path
          d="M1.67188 15.7781C1.67233 15.779 1.67302 15.7792 1.67341 15.7801C1.70171 15.8318 2.11608 16.5702 2.60642 16.9695C3.11499 17.3832 3.37408 18.251 3.37408 18.251C3.37408 18.251 2.43759 17.9138 2.1494 17.4983C1.80144 16.9986 1.67524 15.815 1.67188 15.7781Z"
          fill="#C49047"
        />
        <path
          d="M2.05911 16.1473C2.41108 16.3963 2.73155 16.5792 3.09529 16.9002C3.30773 17.0872 3.50571 17.7137 3.44702 18.0329C3.44542 18.168 3.3745 18.251 3.3745 18.251C3.3745 18.251 3.11541 17.3832 2.60684 16.9695C2.1165 16.5702 1.70213 15.8318 1.67383 15.7801C1.69613 15.8056 1.8757 16.0173 2.05911 16.1473Z"
          fill="#FFDEAE"
        />
        <path
          d="M1.37891 17.876C1.37958 17.8768 1.38038 17.8769 1.38107 17.8778C1.42497 17.9246 2.06345 18.5915 2.68153 18.8942C3.32258 19.2078 3.83927 20.041 3.83927 20.041C3.83927 20.041 2.78177 19.8986 2.3662 19.5354C1.865 19.0989 1.39301 17.9132 1.37891 17.876Z"
          fill="#C49047"
        />
        <path
          d="M1.88303 18.1705C2.31581 18.3492 2.69716 18.4672 3.16286 18.7171C3.43475 18.8628 3.81899 19.4618 3.85124 19.8018C3.88867 19.9404 3.84003 20.041 3.84003 20.041C3.84003 20.041 3.32334 19.2078 2.68229 18.8942C2.06422 18.5915 1.42573 17.9246 1.38184 17.8778C1.41207 17.8991 1.65744 18.0771 1.88303 18.1705Z"
          fill="#FFDEAE"
        />
        <path
          d="M3.63948 17.0534C3.63953 17.0545 3.64022 17.0552 3.64022 17.0563C3.64548 17.1257 3.73265 18.123 4.08135 18.7653C4.44314 19.4314 4.28751 20.5146 4.28751 20.5146C4.28751 20.5146 3.40148 19.7692 3.29015 19.1868C3.15463 18.4859 3.62422 17.0965 3.63948 17.0534Z"
          fill="#C49047"
        />
        <path
          d="M3.88691 17.6217C4.15669 18.0403 4.42492 18.3719 4.67081 18.8765C4.81455 19.1708 4.71458 19.9571 4.48287 20.2958C4.41125 20.4481 4.28792 20.5146 4.28792 20.5146C4.28792 20.5146 4.44354 19.4314 4.08176 18.7653C3.73305 18.123 3.64589 17.1257 3.64062 17.0563C3.6527 17.0938 3.74649 17.4032 3.88691 17.6217Z"
          fill="#FFDEAE"
        />
        <path
          d="M1.47754 21.148C1.4788 21.1485 1.47966 21.1481 1.48092 21.1487C1.55664 21.172 2.64837 21.4977 3.46758 21.4751C4.31703 21.4513 5.40383 22.0043 5.40383 22.0043C5.40383 22.0043 4.26244 22.4134 3.60092 22.2713C2.80417 22.1012 1.51721 21.1773 1.47754 21.148Z"
          fill="#C49047"
        />
        <path
          d="M2.17753 21.1771C2.72811 21.1283 3.18592 21.0464 3.81829 21.0508C4.18735 21.0531 4.98134 21.4442 5.24867 21.7626C5.38167 21.8799 5.40338 22.0044 5.40338 22.0044C5.40338 22.0044 4.31658 21.4514 3.46713 21.4752C2.64792 21.4979 1.55619 21.1721 1.48047 21.1488C1.52499 21.154 1.89032 21.2021 2.17753 21.1771Z"
          fill="#FFDEAE"
        />
        <path
          d="M3.81445 20.1069C3.81508 20.108 3.816 20.1082 3.81663 20.1092C3.85732 20.1693 4.45174 21.0267 5.09611 21.4653C5.76449 21.92 6.18646 22.9487 6.18646 22.9487C6.18646 22.9487 5.00844 22.6266 4.60732 22.1494C4.12315 21.5757 3.82314 20.1514 3.81445 20.1069Z"
          fill="#C49047"
        />
        <path
          d="M4.32937 20.519C4.7873 20.7882 5.19876 20.9803 5.6799 21.3358C5.96081 21.5431 6.27877 22.2846 6.24716 22.6773C6.26202 22.8413 6.18623 22.9487 6.18623 22.9487C6.18623 22.9487 5.76426 21.92 5.09588 21.4653C4.45151 21.0267 3.8571 20.1693 3.81641 20.1092C3.84658 20.1381 4.09075 20.3782 4.32937 20.519Z"
          fill="#FFDEAE"
        />
        <path
          d="M6.38701 19.8921C6.38707 19.8934 6.38776 19.8939 6.38781 19.895C6.39409 19.9645 6.49651 20.9606 6.85499 21.5989C7.22696 22.2607 7.08784 23.3457 7.08784 23.3457C7.08784 23.3457 6.1905 22.6105 6.0703 22.0295C5.92404 21.3302 6.37238 19.9355 6.38701 19.8921Z"
          fill="#C49047"
        />
        <path
          d="M6.64157 20.4577C6.91775 20.873 7.191 21.2015 7.44454 21.7032C7.5928 21.9959 7.50485 22.7833 7.27839 23.1247C7.20913 23.2778 7.08675 23.3457 7.08675 23.3457C7.08675 23.3457 7.22587 22.2607 6.8539 21.5989C6.49542 20.9606 6.393 19.9645 6.38672 19.895C6.39935 19.9324 6.49782 20.2409 6.64157 20.4577Z"
          fill="#FFDEAE"
        />
        <path
          d="M8.13998 20.8257C8.14003 20.8269 8.14071 20.8275 8.14071 20.8287C8.147 20.8981 8.24942 21.8941 8.6079 22.5325C8.97987 23.1942 8.84081 24.2793 8.84081 24.2793C8.84081 24.2793 7.94347 23.5439 7.82321 22.963C7.67701 22.2637 8.12534 20.869 8.13998 20.8257Z"
          fill="#C49047"
        />
        <path
          d="M8.39554 21.3913C8.67166 21.8065 8.94498 22.135 9.19852 22.6368C9.34678 22.9295 9.25882 23.7168 9.03237 24.0582C8.96305 24.2112 8.84073 24.2793 8.84073 24.2793C8.84073 24.2793 8.97979 23.1942 8.60782 22.5325C8.24934 21.8941 8.14692 20.8981 8.14062 20.8287C8.15327 20.866 8.2518 21.1743 8.39554 21.3913Z"
          fill="#FFDEAE"
        />
        <path
          d="M2.88672 23.4317C2.88809 23.432 2.8889 23.4316 2.89032 23.4318C2.97325 23.4446 4.16614 23.6184 5.00815 23.4727C5.88114 23.3213 7.11422 23.7306 7.11422 23.7306C7.11422 23.7306 6.01615 24.3238 5.30434 24.2755C4.44723 24.2188 2.93347 23.456 2.88672 23.4317Z"
          fill="#C49047"
        />
        <path
          d="M3.61655 23.3572C4.17576 23.2248 4.63255 23.0719 5.28687 22.982C5.66866 22.9295 6.56692 23.2151 6.90648 23.5042C7.06731 23.6055 7.11453 23.731 7.11453 23.731C7.11453 23.731 5.88145 23.3216 5.00846 23.473C4.16644 23.6187 2.97356 23.445 2.89062 23.4321C2.93767 23.431 3.32472 23.426 3.61655 23.3572Z"
          fill="#FFDEAE"
        />
        <path
          d="M6.38672 25.8221C6.38786 25.8219 6.38825 25.8212 6.38934 25.821C6.45644 25.8 7.41568 25.4919 7.96209 25.0775C8.52845 24.6478 9.63177 24.4975 9.63177 24.4975C9.63177 24.4975 9.11549 25.3334 8.57004 25.558C7.91401 25.8293 6.43284 25.8229 6.38672 25.8221Z"
          fill="#C49047"
        />
        <path
          d="M6.88554 25.5008C7.23104 25.1995 7.49144 24.9205 7.92754 24.6157C8.18182 24.4378 8.97942 24.3191 9.36922 24.4072C9.53646 24.4227 9.63208 24.4973 9.63208 24.4973C9.63208 24.4973 8.52876 24.6476 7.9624 25.0773C7.416 25.4917 6.45675 25.7999 6.38965 25.8208C6.42361 25.8027 6.70504 25.6579 6.88554 25.5008Z"
          fill="#FFDEAE"
        />
        <path
          d="M12.2969 10.6927C12.2957 10.693 12.2955 10.6936 12.2944 10.694C12.2308 10.7162 11.3217 11.0424 10.8139 11.4577C10.2875 11.8885 9.2334 12.0674 9.2334 12.0674C9.2334 12.0674 9.69469 11.2479 10.2095 11.015C10.8287 10.7337 12.2526 10.6935 12.2969 10.6927Z"
          fill="#C49047"
        />
        <path
          d="M11.8312 11.0171C11.5118 11.3175 11.2731 11.5938 10.8667 11.9003C10.6298 12.0793 9.86811 12.2183 9.48979 12.146C9.32845 12.1362 9.2334 12.0674 9.2334 12.0674C9.2334 12.0674 10.2875 11.8885 10.8139 11.4578C11.3217 11.0424 12.2308 10.7162 12.2944 10.6941C12.2625 10.7124 11.9981 10.8606 11.8312 11.0171Z"
          fill="#FFDEAE"
        />
        <path
          d="M10.0893 10.2424C10.0886 10.2432 10.0887 10.244 10.0881 10.2447C10.051 10.2946 9.52742 11.0162 9.39052 11.6093C9.2489 12.2244 8.5085 12.8984 8.5085 12.8984C8.5085 12.8984 8.3375 11.9989 8.60184 11.551C8.919 11.0112 10.0536 10.2652 10.0893 10.2424Z"
          fill="#C49047"
        />
        <path
          d="M9.92533 10.7404C9.86536 11.1456 9.85525 11.4904 9.72854 11.9441C9.65481 12.2089 9.12636 12.7037 8.76941 12.8343C8.63128 12.9071 8.50781 12.8986 8.50781 12.8986C8.50781 12.8986 9.24821 12.2246 9.38983 11.6095C9.52673 11.0164 10.0503 10.2948 10.0874 10.2449C10.0737 10.2759 9.95693 10.5291 9.92533 10.7404Z"
          fill="#FFDEAE"
        />
        <path
          d="M8.32006 10.9539C8.31977 10.9547 8.32006 10.9552 8.31972 10.9559C8.30411 11.0018 8.08766 11.6628 8.13693 12.1485C8.1882 12.6522 7.79166 13.3188 7.79166 13.3188C7.79166 13.3188 7.4241 12.6564 7.51148 12.2581C7.61573 11.7783 8.29839 10.9786 8.32006 10.9539Z"
          fill="#C49047"
        />
        <path
          d="M8.3233 11.3711C8.38286 11.6964 8.46522 11.9651 8.48573 12.341C8.49796 12.5602 8.21853 13.0468 7.97653 13.2177C7.88874 13.3012 7.79102 13.3188 7.79102 13.3188C7.79102 13.3188 8.18755 12.6522 8.13628 12.1485C8.08702 11.6628 8.30346 11.0018 8.31908 10.9559C8.31662 10.9827 8.29243 11.2014 8.3233 11.3711Z"
          fill="#FFDEAE"
        />
        <path
          d="M11.9156 12.5531C11.9146 12.5532 11.9141 12.5538 11.9133 12.554C11.8553 12.5668 11.0271 12.7589 10.5336 13.0675C10.0222 13.3876 9.08789 13.438 9.08789 13.438C9.08789 13.438 9.5944 12.7756 10.0698 12.6252C10.6418 12.4434 11.8771 12.5493 11.9156 12.5531Z"
          fill="#C49047"
        />
        <path
          d="M11.4705 12.7876C11.1549 13.0156 10.9124 13.2307 10.521 13.4553C10.2926 13.5866 9.61635 13.6315 9.29909 13.5315C9.16093 13.5072 9.08789 13.4383 9.08789 13.4383C9.08789 13.4383 10.0222 13.3879 10.5336 13.0678C11.0271 12.7593 11.8553 12.5672 11.9133 12.5544C11.8833 12.567 11.6354 12.6689 11.4705 12.7876Z"
          fill="#FFDEAE"
        />
        <path
          d="M9.38719 12.1106C9.38644 12.1113 9.38656 12.112 9.38582 12.1126C9.34597 12.1575 8.7818 12.8066 8.5969 13.3605C8.40537 13.9351 7.63966 14.5239 7.63966 14.5239C7.63966 14.5239 7.56044 13.6574 7.85302 13.2504C8.2043 12.7598 9.35118 12.1297 9.38719 12.1106Z"
          fill="#C49047"
        />
        <path
          d="M9.18599 12.5724C9.09158 12.9532 9.05002 13.28 8.88758 13.7022C8.7931 13.9486 8.24527 14.3821 7.89417 14.4812C7.75613 14.5408 7.63965 14.5242 7.63965 14.5242C7.63965 14.5242 8.40536 13.9354 8.59689 13.3609C8.78179 12.807 9.34596 12.1578 9.38581 12.1129C9.36992 12.1414 9.23555 12.374 9.18599 12.5724Z"
          fill="#FFDEAE"
        />
        <path
          d="M9.8831 14.0066C9.88206 14.0069 9.88179 14.0075 9.88075 14.0079C9.82114 14.0311 8.96907 14.3709 8.50302 14.7828C8.01995 15.2099 7.02344 15.4141 7.02344 15.4141C7.02344 15.4141 7.42793 14.6187 7.90843 14.3803C8.48622 14.0925 9.84086 14.0086 9.8831 14.0066Z"
          fill="#C49047"
        />
        <path
          d="M9.45334 14.33C9.1618 14.6264 8.9462 14.8972 8.57218 15.2022C8.35408 15.3804 7.63449 15.5371 7.27104 15.4804C7.11689 15.4762 7.02344 15.4137 7.02344 15.4137C7.02344 15.4137 8.01995 15.2096 8.50302 14.7824C8.96907 14.3706 9.82114 14.0307 9.88075 14.0075C9.85121 14.026 9.60561 14.1756 9.45334 14.33Z"
          fill="#FFDEAE"
        />
        <path
          d="M6.06394 12.1657C6.06382 12.167 6.06445 12.1676 6.0644 12.1687C6.06239 12.2394 6.04622 13.2553 6.33176 13.9328C6.62823 14.6352 6.35727 15.7192 6.35727 15.7192C6.35727 15.7192 5.53868 14.8952 5.48701 14.2972C5.42329 13.5773 6.04394 12.2081 6.06394 12.1657Z"
          fill="#C49047"
        />
        <path
          d="M6.25524 12.7603C6.48439 13.2049 6.72112 13.5615 6.91711 14.0916C7.03176 14.4006 6.8483 15.1884 6.57834 15.5131C6.48992 15.6616 6.35813 15.7192 6.35813 15.7192C6.35813 15.7192 6.6291 14.6352 6.33263 13.9328C6.04709 13.2553 6.06326 12.2394 6.06526 12.1687C6.0735 12.2076 6.13602 12.5282 6.25524 12.7603Z"
          fill="#FFDEAE"
        />
        <path
          d="M7.7616 13.475C7.76085 13.476 7.76107 13.4768 7.76038 13.4778C7.72107 13.5399 7.16671 14.4353 7.0603 15.1506C6.95015 15.8923 6.13352 16.7466 6.13352 16.7466C6.13352 16.7466 5.84472 15.6889 6.1166 15.1373C6.44262 14.4728 7.7213 13.5046 7.7616 13.475Z"
          fill="#C49047"
        />
        <path
          d="M7.61394 14.0788C7.58107 14.5649 7.60177 14.9758 7.49408 15.5244C7.43156 15.8445 6.85 16.4708 6.43786 16.6514C6.28051 16.748 6.13281 16.7466 6.13281 16.7466C6.13281 16.7466 6.94944 15.8923 7.05959 15.1506C7.16601 14.4353 7.72036 13.5399 7.75968 13.4778C7.7463 13.5157 7.63149 13.8252 7.61394 14.0788Z"
          fill="#FFDEAE"
        />
        <path
          d="M8.65086 15.7188C8.64993 15.7193 8.64982 15.7201 8.64885 15.7207C8.59422 15.7602 7.81684 16.3349 7.46877 16.8861C7.10811 17.4579 6.13281 17.9272 6.13281 17.9272C6.13281 17.9272 6.28536 16.9895 6.7078 16.6165C7.21545 16.1666 8.6073 15.7317 8.65086 15.7188Z"
          fill="#C49047"
        />
        <path
          d="M8.31078 16.1689C8.10627 16.5544 7.97276 16.8936 7.68469 17.3092C7.51683 17.5519 6.81577 17.9006 6.41522 17.9341C6.25215 17.9693 6.13281 17.9277 6.13281 17.9277C6.13281 17.9277 7.10811 17.4584 7.46877 16.8866C7.81684 16.3354 8.59422 15.7607 8.64885 15.7212C8.62417 15.7482 8.41771 15.9679 8.31078 16.1689Z"
          fill="#FFDEAE"
        />
        <path
          d="M5.19944 15.414C5.19968 15.4149 5.20025 15.4153 5.20043 15.416C5.21459 15.4671 5.42726 16.1979 5.78145 16.6361C6.14892 17.0903 6.19401 17.9121 6.19401 17.9121C6.19401 17.9121 5.42549 17.4571 5.25649 17.0371C5.05187 16.5316 5.19447 15.4477 5.19944 15.414Z"
          fill="#C49047"
        />
        <path
          d="M5.46693 15.8086C5.72934 16.0893 5.97767 16.3057 6.23504 16.653C6.38547 16.8557 6.42789 17.4506 6.30609 17.7279C6.27546 17.8489 6.19378 17.9121 6.19378 17.9121C6.19378 17.9121 6.14869 17.0903 5.78122 16.6361C5.42703 16.1979 5.21436 15.4671 5.2002 15.416C5.21471 15.4426 5.33027 15.662 5.46693 15.8086Z"
          fill="#FFDEAE"
        />
        <path
          d="M7.74644 17.6458C7.74569 17.6463 7.74557 17.6469 7.74477 17.6474C7.69928 17.6821 7.05194 18.1857 6.76936 18.6614C6.4766 19.1547 5.6582 19.5723 5.6582 19.5723C5.6582 19.5723 5.76474 18.7714 6.11499 18.4461C6.53588 18.0537 7.70968 17.6577 7.74644 17.6458Z"
          fill="#C49047"
        />
        <path
          d="M7.46814 18.0351C7.30371 18.367 7.19848 18.6582 6.96364 19.0173C6.8268 19.227 6.23879 19.5368 5.89871 19.5728C5.7608 19.6058 5.6582 19.5726 5.6582 19.5726C5.6582 19.5726 6.4766 19.155 6.76936 18.6617C7.05194 18.186 7.69928 17.6825 7.74477 17.6477C7.72449 17.6713 7.55422 17.8621 7.46814 18.0351Z"
          fill="#FFDEAE"
        />
        <path
          d="M5.75005 17.4271C5.74972 17.4282 5.75017 17.429 5.74977 17.4301C5.73103 17.5006 5.47366 18.5137 5.59848 19.242C5.72822 19.9973 5.19994 21.0332 5.19994 21.0332C5.19994 21.0332 4.57689 20.0633 4.66714 19.4561C4.77424 18.7248 5.72 17.466 5.75005 17.4271Z"
          fill="#C49047"
        />
        <path
          d="M5.79963 18.0556C5.92327 18.5412 6.07541 18.9398 6.1456 19.5047C6.18686 19.8343 5.81638 20.5897 5.46933 20.8662C5.34571 20.999 5.2002 21.0332 5.2002 21.0332C5.2002 21.0332 5.72848 19.9973 5.59874 19.242C5.47391 18.5137 5.73129 17.5006 5.75003 17.4301C5.74905 17.4705 5.73551 17.8023 5.79963 18.0556Z"
          fill="#FFDEAE"
        />
      </svg>