<svg xmlns="http://www.w3.org/2000/svg" width="20" height="27" viewBox="0 0 20 27" fill="none">
  <path d="M14.5419 10.5108C17.7817 11.9431 20 14.8611 20 18.228C20 23.011 15.5227 26.8887 9.99971 26.8887C4.47676 26.8887 0 23.011 0 18.228C0 14.9401 2.11533 12.0802 5.23221 10.6132C6.64901 9.94681 8.27315 9.5678 9.99971 9.5678C11.6351 9.5678 13.1792 9.90778 14.5419 10.5108Z" fill="#E3E3E3"/>
  <path d="M10.0005 26.5347C7.43872 26.5347 5.03031 25.6707 3.21903 24.1018C1.40761 22.533 0.410156 20.4471 0.410156 18.2285C0.410156 15.1806 2.33308 12.3821 5.42845 10.9253C6.82272 10.2695 8.40369 9.9228 10.0005 9.9228C11.5349 9.9228 13.0004 10.227 14.3564 10.8271C15.9071 11.5126 17.2151 12.5518 18.1396 13.8324C19.0893 15.1484 19.5915 16.6685 19.5915 18.2285C19.5915 20.4471 18.5938 22.533 16.7823 24.1018C14.9708 25.6707 12.5624 26.5347 10.0005 26.5347Z" fill="#C9C9C9"/>
  <path d="M9.99989 25.5215C7.75053 25.5215 5.63593 24.7628 4.04545 23.3853C2.45497 22.0078 1.5791 20.1763 1.5791 18.2282C1.5791 15.5519 3.26747 13.0949 5.98549 11.8156C7.20959 11.2397 8.59786 10.9353 9.99989 10.9353C11.3473 10.9353 12.6341 11.2025 13.8247 11.7293C15.1863 12.3313 16.3349 13.2438 17.1464 14.3683C17.9805 15.5237 18.4213 16.8584 18.4213 18.2282C18.4213 20.1763 17.5454 22.0077 15.9548 23.3853C14.3641 24.7628 12.2494 25.5215 9.99989 25.5215Z" stroke="#929292" stroke-width="2.61099" stroke-miterlimit="10"/>
  <path d="M10.0001 23.1743C8.4749 23.1743 7.04098 22.66 5.96246 21.726C4.88409 20.7918 4.29004 19.5499 4.29004 18.2289C4.29004 16.4143 5.43498 14.7481 7.27801 13.8807C8.10808 13.4901 9.04935 13.2839 10.0001 13.2839C10.9137 13.2839 11.7862 13.4649 12.5936 13.8222C13.5169 14.2304 14.2957 14.8491 14.8461 15.6115C15.4116 16.395 15.7105 17.3002 15.7105 18.2289C15.7105 19.5499 15.1165 20.7918 14.0379 21.726C12.9594 22.66 11.5253 23.1743 10.0001 23.1743V23.1743Z" stroke="#C9C9C9" stroke-width="1.865" stroke-miterlimit="10"/>
  <path d="M9.99979 24.25C8.14257 24.25 6.3964 23.6236 5.08319 22.4862C3.76998 21.3487 3.04688 19.8366 3.04688 18.2281C3.04688 16.0184 4.441 13.9896 6.68509 12.9333C7.69586 12.4578 8.84212 12.2066 9.99979 12.2066C11.1123 12.2066 12.1747 12.4272 13.1578 12.8621C14.2819 13.3592 15.2304 14.1126 15.9004 15.041C16.5891 15.995 16.9531 17.0971 16.9531 18.2281C16.9531 19.8365 16.2297 21.3487 14.9165 22.4862C13.6032 23.6236 11.857 24.25 9.99979 24.25V24.25Z" stroke="#929292" stroke-width="2.61099" stroke-miterlimit="10"/>
  <path d="M13.053 9.19262V8.87253C13.053 8.7799 12.9662 8.70476 12.8591 8.70476H6.78132C6.67436 8.70476 6.5876 8.7799 6.5876 8.87253V9.19262C6.5876 9.28576 6.67436 9.36091 6.78132 9.36091H12.8591C12.9662 9.36091 13.053 9.28576 13.053 9.19262ZM14.0551 8.95313C14.3097 9.44479 14.4512 9.97422 14.4737 10.5114C13.1109 9.90833 11.5668 9.56822 9.93156 9.56822C8.205 9.56822 6.58087 9.94736 5.16406 10.6138C5.17138 10.0415 5.31506 9.47609 5.58546 8.95313L5.71159 8.70957C5.85249 8.43688 6.14542 8.24616 6.48737 8.20473L6.85975 8.15936C8.82349 7.92126 10.8171 7.92126 12.7814 8.15936L13.1532 8.20473C13.4952 8.24616 13.7881 8.43688 13.929 8.70957L14.0551 8.95313Z" fill="#C9C9C9"/>
  <path d="M16.1684 0.443028L12.7011 8.82861H10.7744L14.2316 0.449872V0.443028H16.1684Z" fill="#FF545F"/>
  <path d="M14.2316 0.443028V0.449872L10.7744 8.82861H8.87207L12.3293 0.449872V0.443028H14.2316Z" fill="#62DADC"/>
  <path d="M12.3295 0.443028V0.449872L8.87226 8.82861H6.92871L10.396 0.443028H12.3295Z" fill="#AC748C"/>
  <path d="M19.3345 18.2292C19.3345 20.9603 16.778 23.1743 13.6243 23.1743C10.4707 23.1743 7.91406 20.9603 7.91406 18.2292C7.91406 15.4979 10.4707 13.2839 13.6243 13.2839C16.778 13.2839 19.3345 15.4979 19.3345 18.2292Z" fill="#9A9898"/>
  <path d="M3.46094 0.443028L6.92825 8.82861H8.85483L5.39761 0.449872V0.443028H3.46094Z" fill="#AC748C"/>
  <path d="M5.39746 0.443028V0.449872L8.85468 8.82861H10.7571L7.2999 0.449872V0.443028H5.39746Z" fill="#62DADC"/>
  <path d="M7.2998 0.443028V0.449872L10.757 8.82861H12.7004L9.23311 0.443028H7.2998Z" fill="#FF545F"/>
  <path d="M18.9627 18.2284C18.9627 20.7816 16.5727 22.8516 13.6244 22.8516C10.6762 22.8516 8.28613 20.7816 8.28613 18.2284C8.28613 15.675 10.6762 13.6051 13.6244 13.6051C16.5727 13.6051 18.9627 15.675 18.9627 18.2284Z" fill="#E3E3E3"/>
  <path d="M17.6896 18.2286C17.6896 20.1729 15.8697 21.749 13.6246 21.749C11.3796 21.749 9.55957 20.1729 9.55957 18.2286C9.55957 16.2843 11.3796 14.7082 13.6246 14.7082C15.8697 14.7082 17.6896 16.2843 17.6896 18.2286Z" fill="#929292"/>
  <path d="M8.8271 16.6883C8.8271 16.6886 8.82725 16.6889 8.82725 16.6893C8.82696 16.7107 8.82549 17.0181 8.91431 17.2222C9.00634 17.434 8.92806 17.7627 8.92806 17.7627C8.92806 17.7627 8.67756 17.5155 8.66001 17.3346C8.6382 17.1171 8.82125 16.7012 8.8271 16.6883Z" fill="#929292"/>
  <path d="M8.88772 16.8677C8.95854 17.0016 9.03141 17.109 9.09257 17.2687C9.12827 17.362 9.07545 17.6009 8.99497 17.6997C8.96878 17.745 8.92898 17.7627 8.92898 17.7627C8.92898 17.7627 9.00727 17.434 8.91523 17.2222C8.82642 17.0181 8.82788 16.7107 8.82817 16.6893C8.83081 16.7009 8.85085 16.7977 8.88772 16.8677Z" fill="#E6E6E6"/>
  <path d="M9.66307 16.986C9.66278 16.9862 9.66278 16.9865 9.66249 16.9867C9.64595 17.0026 9.41053 17.2327 9.32157 17.4369C9.22924 17.6485 8.91992 17.8506 8.91992 17.8506C8.91992 17.8506 8.92021 17.5218 9.04473 17.3758C9.19427 17.1999 9.64888 16.9922 9.66307 16.986Z" fill="#929292"/>
  <path d="M9.57119 17.1549C9.52232 17.2961 9.49525 17.4182 9.41931 17.5733C9.37512 17.6638 9.1533 17.8129 9.01737 17.8412C8.96323 17.8601 8.91992 17.8507 8.91992 17.8507C8.91992 17.8507 9.22924 17.6486 9.32157 17.437C9.41053 17.2328 9.64596 17.0027 9.66249 16.9869C9.65561 16.9971 9.59679 17.0813 9.57119 17.1549Z" fill="#E6E6E6"/>
  <path d="M8.60628 17.4417C8.60628 17.442 8.60657 17.4422 8.60657 17.4425C8.60979 17.4638 8.66042 17.768 8.78274 17.9588C8.9096 18.1567 8.8878 18.4917 8.8878 18.4917C8.8878 18.4917 8.59823 18.2789 8.55009 18.1023C8.49186 17.8898 8.60262 17.4551 8.60628 17.4417Z" fill="#929292"/>
  <path d="M8.69638 17.6115C8.78915 17.7351 8.87943 17.832 8.96693 17.9823C9.01799 18.0701 9.00614 18.313 8.94322 18.421C8.92479 18.469 8.88865 18.4917 8.88865 18.4917C8.88865 18.4917 8.91045 18.1567 8.78359 17.9588C8.66127 17.768 8.61064 17.4638 8.60742 17.4425C8.61196 17.4539 8.6481 17.5471 8.69638 17.6115Z" fill="#E6E6E6"/>
  <path d="M9.48344 17.6305C9.48315 17.6308 9.48315 17.6311 9.48301 17.6313C9.46925 17.6491 9.27523 17.9066 9.22168 18.1198C9.16622 18.341 8.89436 18.5801 8.89436 18.5801C8.89436 18.5801 8.83906 18.2548 8.93768 18.0946C9.0559 17.9016 9.47042 17.6386 9.48344 17.6305Z" fill="#929292"/>
  <path d="M9.42114 17.8091C9.3967 17.9548 9.39055 18.0792 9.34168 18.2422C9.31315 18.3372 9.11899 18.513 8.98935 18.5581C8.93902 18.5837 8.89453 18.5799 8.89453 18.5799C8.89453 18.5799 9.16639 18.3408 9.22185 18.1196C9.2754 17.9064 9.46942 17.6489 9.48317 17.6311C9.47791 17.6423 9.43401 17.733 9.42114 17.8091Z" fill="#E6E6E6"/>
  <path d="M8.51562 18.2596C8.51577 18.2599 8.51606 18.26 8.51606 18.2604C8.52499 18.2804 8.65565 18.5662 8.82553 18.7274C9.00199 18.8943 9.07032 19.2246 9.07032 19.2246C9.07032 19.2246 8.73174 19.0757 8.63766 18.9135C8.52411 18.7185 8.51562 18.2735 8.51562 18.2596Z" fill="#929292"/>
  <path d="M8.6476 18.4069C8.77081 18.5085 8.88449 18.5847 9.00974 18.7134C9.0829 18.7884 9.13645 19.0272 9.10412 19.1449C9.099 19.1953 9.06988 19.2246 9.06988 19.2246C9.06988 19.2246 9.00155 18.8943 8.82509 18.7274C8.65521 18.5662 8.52455 18.2804 8.51562 18.2604C8.52323 18.2704 8.58337 18.3539 8.6476 18.4069Z" fill="#E6E6E6"/>
  <path d="M9.41873 18.2656C9.41859 18.266 9.41873 18.2662 9.41859 18.2665C9.40995 18.2866 9.29012 18.5759 9.29495 18.7942C9.30022 19.0203 9.09976 19.3076 9.09976 19.3076C9.09976 19.3076 8.95885 19.0021 9.01197 18.8266C9.07532 18.6151 9.4082 18.2761 9.41873 18.2656Z" fill="#929292"/>
  <path d="M9.40571 18.452C9.42078 18.5988 9.44814 18.7209 9.44419 18.8893C9.44185 18.9875 9.30007 19.1974 9.18594 19.2673C9.1438 19.3023 9.09961 19.3076 9.09961 19.3076C9.09961 19.3076 9.30007 19.0203 9.2948 18.7942C9.28997 18.5759 9.40981 18.2866 9.41844 18.2665C9.41639 18.2784 9.39781 18.3755 9.40571 18.452Z" fill="#E6E6E6"/>
  <path d="M8.62207 19.0257C8.62222 19.0261 8.62251 19.0261 8.62266 19.0265C8.63407 19.0455 8.79999 19.3172 8.98947 19.4611C9.18598 19.6103 9.29572 19.9321 9.29572 19.9321C9.29572 19.9321 8.94031 19.8163 8.82633 19.6641C8.68864 19.481 8.62383 19.0395 8.62207 19.0257Z" fill="#929292"/>
  <path d="M8.77273 19.1597C8.90808 19.2489 9.03069 19.3137 9.1716 19.4297C9.25383 19.4974 9.33723 19.7296 9.32011 19.8496C9.32142 19.9002 9.29611 19.9321 9.29611 19.9321C9.29611 19.9321 9.18637 19.6103 8.98987 19.4611C8.80038 19.3172 8.63446 19.0455 8.62305 19.0265C8.63183 19.0357 8.7022 19.113 8.77273 19.1597Z" fill="#E6E6E6"/>
  <path d="M9.52039 18.9466C9.52025 18.947 9.52039 18.9472 9.52025 18.9476C9.51425 18.9684 9.43187 19.2673 9.46436 19.4838C9.4983 19.7081 9.33545 20.0127 9.33545 20.0127C9.33545 20.0127 9.15665 19.7225 9.18708 19.5429C9.22337 19.3268 9.51118 18.958 9.52039 18.9466Z" fill="#929292"/>
  <path d="M9.53171 19.1331C9.56536 19.2776 9.60794 19.3963 9.62536 19.5641C9.6356 19.6619 9.52118 19.8841 9.41671 19.9644C9.37925 20.0032 9.33594 20.0127 9.33594 20.0127C9.33594 20.0127 9.49879 19.7081 9.46485 19.4838C9.43236 19.2673 9.51474 18.9684 9.52074 18.9476C9.5203 18.9595 9.51415 19.0577 9.53171 19.1331Z" fill="#E6E6E6"/>
  <path d="M8.85742 19.7781C8.85757 19.7785 8.85786 19.7785 8.85815 19.7787C8.87337 19.7957 9.0946 20.0359 9.31159 20.1469C9.53663 20.262 9.71339 20.5605 9.71339 20.5605C9.71339 20.5605 9.33925 20.5039 9.19468 20.3726C9.02027 20.2149 8.8621 19.7914 8.85742 19.7781Z" fill="#929292"/>
  <path d="M9.03286 19.8855C9.18503 19.9514 9.3195 19.9955 9.48279 20.087C9.57804 20.1402 9.70973 20.355 9.71851 20.4758C9.73065 20.5252 9.71266 20.5605 9.71266 20.5605C9.71266 20.5605 9.5359 20.262 9.31086 20.1469C9.09387 20.0359 8.87264 19.7957 8.85742 19.7787C8.86796 19.7864 8.95355 19.8511 9.03286 19.8855Z" fill="#E6E6E6"/>
  <path d="M9.72372 19.5557C9.72357 19.5561 9.72386 19.5562 9.72372 19.5566C9.7224 19.578 9.70528 19.885 9.78356 20.0925C9.86491 20.3075 9.7701 20.6328 9.7701 20.6328C9.7701 20.6328 9.53233 20.3763 9.52384 20.1951C9.51316 19.9768 9.71713 19.5684 9.72372 19.5557Z" fill="#929292"/>
  <path d="M9.77366 19.7372C9.8376 19.8736 9.90505 19.9836 9.95802 20.1456C9.98889 20.2401 9.92407 20.4767 9.83862 20.5725C9.81009 20.6166 9.76956 20.6328 9.76956 20.6328C9.76956 20.6328 9.86437 20.3075 9.78302 20.0925C9.70474 19.885 9.72186 19.578 9.72318 19.5566C9.72523 19.5684 9.7403 19.666 9.77366 19.7372Z" fill="#E6E6E6"/>
  <path d="M9.22363 20.4668C9.22393 20.4671 9.22422 20.4671 9.22451 20.4674C9.24295 20.4817 9.5094 20.6848 9.74541 20.7611C9.9902 20.8403 10.2247 21.1074 10.2247 21.1074C10.2247 21.1074 9.8449 21.1085 9.67605 21.001C9.47238 20.8721 9.23095 20.4792 9.22363 20.4668Z" fill="#929292"/>
  <path d="M9.41907 20.5459C9.58221 20.5878 9.72341 20.6108 9.90265 20.6759C10.0073 20.7139 10.1804 20.9054 10.2134 21.023C10.2354 21.0699 10.2248 21.1074 10.2248 21.1074C10.2248 21.1074 9.9903 20.8403 9.74551 20.7611C9.50949 20.6848 9.24305 20.4817 9.22461 20.4674C9.23661 20.4734 9.33391 20.524 9.41907 20.5459Z" fill="#E6E6E6"/>
  <path d="M10.031 20.1179C10.031 20.1183 10.0313 20.1185 10.0313 20.1188C10.0343 20.1401 10.0796 20.445 10.1987 20.6372C10.3222 20.8367 10.2946 21.1714 10.2946 21.1714C10.2946 21.1714 10.0087 20.9549 9.96359 20.7778C9.90901 20.5645 10.0272 20.1314 10.031 20.1179Z" fill="#929292"/>
  <path d="M10.1174 20.2889C10.208 20.4136 10.2967 20.5117 10.3815 20.6631C10.4311 20.7515 10.4152 20.9943 10.3504 21.1015C10.3312 21.1493 10.2945 21.1714 10.2945 21.1714C10.2945 21.1714 10.3221 20.8367 10.1986 20.6372C10.0795 20.445 10.0342 20.1401 10.0312 20.1188C10.0356 20.1301 10.0703 20.2239 10.1174 20.2889Z" fill="#E6E6E6"/>
  <path d="M9.82422 21.155C9.82451 21.1552 9.8248 21.1552 9.8251 21.1553C9.84705 21.1653 10.1627 21.3059 10.413 21.3303C10.6727 21.3554 10.9753 21.565 10.9753 21.565C10.9753 21.565 10.6073 21.6459 10.4132 21.5775C10.1795 21.4955 9.83475 21.1654 9.82422 21.155Z" fill="#929292"/>
  <path d="M10.0349 21.1908C10.2049 21.197 10.3483 21.1896 10.5406 21.2149C10.6527 21.2297 10.8745 21.3789 10.9396 21.486C10.9741 21.5266 10.9744 21.5654 10.9744 21.5654C10.9744 21.5654 10.6718 21.3558 10.4121 21.3307C10.1618 21.3064 9.84617 21.1658 9.82422 21.1557C9.83753 21.159 9.94625 21.1875 10.0349 21.1908Z" fill="#E6E6E6"/>
  <path d="M10.5088 20.6462C10.5089 20.6465 10.5091 20.6466 10.5092 20.647C10.518 20.667 10.6479 20.9531 10.8175 21.1144C10.9934 21.2818 11.0608 21.6123 11.0608 21.6123C11.0608 21.6123 10.7226 21.4627 10.6291 21.3003C10.516 21.1051 10.5088 20.66 10.5088 20.6462Z" fill="#929292"/>
  <path d="M10.6413 20.7938C10.7642 20.8956 10.8778 20.972 11.0027 21.101C11.0756 21.1762 11.1284 21.415 11.0958 21.5328C11.0906 21.583 11.0614 21.6123 11.0614 21.6123C11.0614 21.6123 10.9939 21.2818 10.8181 21.1144C10.6485 20.9531 10.5185 20.667 10.5098 20.647C10.5172 20.657 10.5772 20.7406 10.6413 20.7938Z" fill="#E6E6E6"/>
  <path d="M10.4775 21.6484C10.478 21.6487 10.4783 21.6485 10.4786 21.6488C10.501 21.6581 10.8223 21.7887 11.0735 21.8051C11.3339 21.8219 11.6452 22.0219 11.6452 22.0219C11.6452 22.0219 11.2808 22.1145 11.084 22.0522C10.847 21.9775 10.4887 21.6585 10.4775 21.6484Z" fill="#929292"/>
  <path d="M10.6905 21.6773C10.8607 21.6781 11.0038 21.6661 11.1968 21.6854C11.3096 21.6967 11.5374 21.8387 11.6071 21.9437C11.6432 21.9833 11.6451 22.022 11.6451 22.022C11.6451 22.022 11.3339 21.822 11.0734 21.8052C10.8222 21.7888 10.5009 21.6582 10.4785 21.6489C10.492 21.6517 10.6019 21.6768 10.6905 21.6773Z" fill="#E6E6E6"/>
  <path d="M11.1406 21.1175C11.1408 21.1177 11.1411 21.1178 11.1412 21.1182C11.1509 21.1379 11.2926 21.4198 11.4688 21.5757C11.6517 21.7374 11.7329 22.0654 11.7329 22.0654C11.7329 22.0654 11.3886 21.9267 11.2884 21.7674C11.1671 21.5758 11.1412 21.1313 11.1406 21.1175Z" fill="#929292"/>
  <path d="M11.2791 21.2608C11.4063 21.3586 11.5229 21.4314 11.6531 21.5564C11.7294 21.6293 11.7921 21.8663 11.7643 21.9848C11.7614 22.0354 11.7333 22.0654 11.7333 22.0654C11.7333 22.0654 11.6521 21.7374 11.4692 21.5757C11.293 21.4198 11.1513 21.1379 11.1416 21.1182C11.1495 21.128 11.2129 21.2097 11.2791 21.2608Z" fill="#E6E6E6"/>
  <path d="M11.3184 22.1159C11.3187 22.1159 11.3189 22.1158 11.3194 22.1159C11.3437 22.1196 11.6938 22.1704 11.9408 22.1274C12.197 22.0828 12.559 22.2027 12.559 22.2027C12.559 22.2027 12.2368 22.3769 12.028 22.363C11.7765 22.3465 11.3321 22.123 11.3184 22.1159Z" fill="#929292"/>
  <path d="M11.5334 22.0931C11.6974 22.0543 11.8314 22.0093 12.0234 21.9828C12.1353 21.9672 12.399 22.0508 12.4988 22.1358C12.546 22.1654 12.5599 22.2021 12.5599 22.2021C12.5599 22.2021 12.1979 22.0823 11.9417 22.1269C11.6947 22.1698 11.3446 22.119 11.3203 22.1153C11.3341 22.115 11.4478 22.1134 11.5334 22.0931Z" fill="#E6E6E6"/>
  <path d="M12.3047 22.4137C12.3051 22.4137 12.3054 22.4136 12.3057 22.4136C12.3304 22.4137 12.6854 22.4129 12.9207 22.3349C13.1646 22.2537 13.5446 22.3194 13.5446 22.3194C13.5446 22.3194 13.2607 22.538 13.0521 22.5543C12.801 22.5746 12.3196 22.4186 12.3047 22.4137Z" fill="#929292"/>
  <path d="M12.5125 22.3608C12.6667 22.2986 12.7901 22.2349 12.9743 22.1809C13.0817 22.1493 13.3578 22.1935 13.4725 22.2627C13.5247 22.2852 13.5455 22.3194 13.5455 22.3194C13.5455 22.3194 13.1655 22.2537 12.9216 22.3349C12.6863 22.4129 12.3314 22.4137 12.3066 22.4136C12.3202 22.4111 12.4319 22.3933 12.5125 22.3608Z" fill="#E6E6E6"/>
  <path d="M11.792 21.4495C11.7921 21.4499 11.7924 21.4499 11.7927 21.4502C11.8081 21.4669 12.0324 21.7052 12.2507 21.8142C12.4771 21.9272 12.6575 22.2241 12.6575 22.2241C12.6575 22.2241 12.2827 22.1709 12.1366 22.0409C11.9603 21.8848 11.7968 21.4628 11.792 21.4495Z" fill="#929292"/>
  <path d="M11.9697 21.5553C12.1228 21.6199 12.2577 21.6627 12.422 21.7526C12.518 21.8051 12.6523 22.0186 12.6625 22.1394C12.6754 22.1886 12.6577 22.2241 12.6577 22.2241C12.6577 22.2241 12.4773 21.9272 12.2509 21.8142C12.0326 21.7052 11.8083 21.4669 11.793 21.4502C11.8037 21.4577 11.8901 21.5216 11.9697 21.5553Z" fill="#E6E6E6"/>
  <path d="M12.6289 21.7634C12.6292 21.7636 12.6293 21.7636 12.6296 21.7639C12.6459 21.7761 12.8812 21.952 13.0886 22.0172C13.3037 22.0847 13.5116 22.3169 13.5116 22.3169C13.5116 22.3169 13.1791 22.3204 13.0301 22.2278C12.8506 22.1164 12.6355 21.7741 12.6289 21.7634Z" fill="#929292"/>
  <path d="M12.8009 21.8312C12.9442 21.8667 13.068 21.8857 13.2255 21.9415C13.3176 21.974 13.4709 22.1404 13.5011 22.2431C13.5208 22.2839 13.5119 22.3169 13.5119 22.3169C13.5119 22.3169 13.304 22.0847 13.0889 22.0172C12.8814 21.952 12.6461 21.7762 12.6299 21.7639C12.6404 21.7689 12.7262 21.8127 12.8009 21.8312Z" fill="#E6E6E6"/>
  <path d="M12.9961 22.6084C12.9962 22.6082 12.9962 22.6082 12.9965 22.608C13.0079 22.6032 13.172 22.5325 13.2601 22.4498C13.3515 22.3638 13.5445 22.3188 13.5445 22.3188C13.5445 22.3188 13.471 22.4761 13.3789 22.5251C13.2681 22.5843 13.0043 22.6077 12.9961 22.6084Z" fill="#929292"/>
  <path d="M13.0783 22.5428C13.1332 22.4835 13.1734 22.4295 13.2442 22.368C13.2856 22.332 13.4249 22.2977 13.4963 22.307C13.5265 22.307 13.545 22.3187 13.545 22.3187C13.545 22.3187 13.352 22.3637 13.2606 22.4497C13.1725 22.5324 13.0085 22.6031 12.9971 22.6079C13.0026 22.6042 13.0496 22.5737 13.0783 22.5428Z" fill="#E6E6E6"/>
  <path d="M18.422 16.6883C18.422 16.6886 18.4219 16.6889 18.4219 16.6893C18.4222 16.7107 18.4236 17.0181 18.3349 17.2222C18.2428 17.434 18.3211 17.7627 18.3211 17.7627C18.3211 17.7627 18.5716 17.5155 18.5893 17.3346C18.6111 17.1171 18.4279 16.7012 18.422 16.6883Z" fill="#929292"/>
  <path d="M18.3627 16.8677C18.2919 17.0016 18.219 17.109 18.1578 17.2687C18.1221 17.362 18.175 17.6009 18.2554 17.6997C18.2818 17.745 18.3214 17.7627 18.3214 17.7627C18.3214 17.7627 18.2431 17.434 18.3353 17.2222C18.424 17.0181 18.4225 16.7107 18.4222 16.6893C18.4196 16.7009 18.3996 16.7977 18.3627 16.8677Z" fill="#E6E6E6"/>
  <path d="M17.5859 16.986C17.5862 16.9862 17.5862 16.9865 17.5865 16.9867C17.6031 17.0026 17.8385 17.2327 17.9276 17.4369C18.0198 17.6485 18.3291 17.8506 18.3291 17.8506C18.3291 17.8506 18.3288 17.5218 18.2043 17.3758C18.0547 17.1999 17.6001 16.9922 17.5859 16.986Z" fill="#929292"/>
  <path d="M17.6782 17.1549C17.7271 17.2961 17.7542 17.4182 17.8302 17.5733C17.8744 17.6638 18.0961 17.8129 18.232 17.8412C18.2862 17.8601 18.3295 17.8507 18.3295 17.8507C18.3295 17.8507 18.0202 17.6486 17.928 17.437C17.8389 17.2328 17.6034 17.0027 17.5869 16.9869C17.5939 16.9971 17.6526 17.0813 17.6782 17.1549Z" fill="#E6E6E6"/>
  <path d="M18.6422 17.4417C18.6422 17.442 18.642 17.4422 18.642 17.4425C18.6387 17.4638 18.5882 17.768 18.4659 17.9588C18.3389 18.1567 18.3608 18.4917 18.3608 18.4917C18.3608 18.4917 18.6504 18.2789 18.6984 18.1023C18.7568 17.8898 18.646 17.4551 18.6422 17.4417Z" fill="#929292"/>
  <path d="M18.5534 17.6115C18.4606 17.7351 18.3705 17.832 18.283 17.9823C18.2318 18.0701 18.2437 18.313 18.3067 18.421C18.325 18.469 18.3613 18.4917 18.3613 18.4917C18.3613 18.4917 18.3393 18.1567 18.4663 17.9588C18.5887 17.768 18.6391 17.4638 18.6425 17.4425C18.6378 17.4539 18.6017 17.5471 18.5534 17.6115Z" fill="#E6E6E6"/>
  <path d="M17.7656 17.6305C17.7659 17.6308 17.7659 17.6311 17.7662 17.6313C17.7798 17.6491 17.9738 17.9066 18.0274 18.1198C18.0828 18.341 18.3547 18.5801 18.3547 18.5801C18.3547 18.5801 18.41 18.2548 18.3115 18.0946C18.1933 17.9016 17.7788 17.6386 17.7656 17.6305Z" fill="#929292"/>
  <path d="M17.8285 17.8091C17.8531 17.9548 17.8591 18.0792 17.9081 18.2422C17.9365 18.3372 18.1306 18.513 18.2603 18.5581C18.3106 18.5837 18.3551 18.5799 18.3551 18.5799C18.3551 18.5799 18.0832 18.3408 18.0278 18.1196C17.9742 17.9064 17.7802 17.6489 17.7666 17.6311C17.7717 17.6423 17.8156 17.733 17.8285 17.8091Z" fill="#E6E6E6"/>
  <path d="M18.7344 18.2596C18.7342 18.2599 18.7341 18.26 18.7339 18.2604C18.725 18.2804 18.5945 18.5662 18.4245 18.7274C18.2482 18.8943 18.1797 19.2246 18.1797 19.2246C18.1797 19.2246 18.5184 19.0757 18.6123 18.9135C18.7259 18.7185 18.7344 18.2735 18.7344 18.2596Z" fill="#929292"/>
  <path d="M18.6009 18.4069C18.4776 18.5085 18.364 18.5847 18.2386 18.7134C18.1655 18.7884 18.1121 19.0272 18.1444 19.1449C18.1494 19.1953 18.1785 19.2246 18.1785 19.2246C18.1785 19.2246 18.247 18.8943 18.4233 18.7274C18.5933 18.5662 18.7238 18.2804 18.7328 18.2604C18.7253 18.2704 18.6652 18.3539 18.6009 18.4069Z" fill="#E6E6E6"/>
  <path d="M17.8301 18.2656C17.8302 18.266 17.8302 18.2662 17.8304 18.2665C17.8389 18.2866 17.9588 18.5759 17.9539 18.7942C17.9487 19.0203 18.1492 19.3076 18.1492 19.3076C18.1492 19.3076 18.29 19.0021 18.237 18.8266C18.1735 18.6151 17.8406 18.2761 17.8301 18.2656Z" fill="#929292"/>
  <path d="M17.8436 18.452C17.8284 18.5988 17.801 18.7209 17.8051 18.8893C17.8073 18.9875 17.9492 19.1974 18.0632 19.2673C18.1053 19.3023 18.1497 19.3076 18.1497 19.3076C18.1497 19.3076 17.9492 19.0203 17.9543 18.7942C17.9593 18.5759 17.8393 18.2866 17.8309 18.2665C17.8329 18.2784 17.8513 18.3755 17.8436 18.452Z" fill="#E6E6E6"/>
  <path d="M18.6268 19.0257C18.6266 19.0261 18.6263 19.0261 18.6262 19.0265C18.6149 19.0455 18.4489 19.3172 18.2594 19.4611C18.063 19.6103 17.9531 19.9321 17.9531 19.9321C17.9531 19.9321 18.3085 19.8163 18.4225 19.6641C18.5602 19.481 18.625 19.0395 18.6268 19.0257Z" fill="#929292"/>
  <path d="M18.4774 19.1597C18.3419 19.2489 18.2193 19.3137 18.0784 19.4297C17.9962 19.4974 17.9128 19.7296 17.93 19.8496C17.9286 19.9002 17.9539 19.9321 17.9539 19.9321C17.9539 19.9321 18.0638 19.6103 18.2601 19.4611C18.4496 19.3172 18.6157 19.0455 18.6269 19.0265C18.6183 19.0357 18.5479 19.113 18.4774 19.1597Z" fill="#E6E6E6"/>
  <path d="M17.7285 18.9466C17.7287 18.947 17.7285 18.9472 17.7287 18.9476C17.7347 18.9684 17.817 19.2673 17.7846 19.4838C17.7508 19.7081 17.9136 20.0127 17.9136 20.0127C17.9136 20.0127 18.0923 19.7225 18.0618 19.5429C18.0257 19.3268 17.7377 18.958 17.7285 18.9466Z" fill="#929292"/>
  <path d="M17.7173 19.1331C17.6835 19.2776 17.641 19.3963 17.6237 19.5641C17.6134 19.6619 17.7277 19.8841 17.8323 19.9644C17.8698 20.0032 17.9131 20.0127 17.9131 20.0127C17.9131 20.0127 17.7503 19.7081 17.7841 19.4838C17.8165 19.2673 17.7342 18.9684 17.7282 18.9476C17.7287 18.9595 17.7347 19.0577 17.7173 19.1331Z" fill="#E6E6E6"/>
  <path d="M18.3922 19.7781C18.392 19.7785 18.3917 19.7785 18.3914 19.7787C18.3763 19.7957 18.1549 20.0359 17.9379 20.1469C17.713 20.262 17.5361 20.5605 17.5361 20.5605C17.5361 20.5605 17.9103 20.5039 18.0548 20.3726C18.2292 20.2149 18.3876 19.7914 18.3922 19.7781Z" fill="#929292"/>
  <path d="M18.2153 19.8855C18.0631 19.9514 17.9288 19.9955 17.7655 20.087C17.6701 20.1402 17.5384 20.355 17.5296 20.4758C17.5175 20.5252 17.5355 20.5605 17.5355 20.5605C17.5355 20.5605 17.7124 20.262 17.9372 20.1469C18.1542 20.0359 18.3756 19.7957 18.3907 19.7787C18.3802 19.7864 18.2946 19.8511 18.2153 19.8855Z" fill="#E6E6E6"/>
  <path d="M17.5265 19.5557C17.5265 19.5561 17.5264 19.5562 17.5264 19.5566C17.5279 19.578 17.5448 19.885 17.4666 20.0925C17.3852 20.3075 17.48 20.6328 17.48 20.6328C17.48 20.6328 17.7178 20.3763 17.7263 20.1951C17.7371 19.9768 17.533 19.5684 17.5265 19.5557Z" fill="#929292"/>
  <path d="M17.4753 19.7372C17.4114 19.8736 17.3441 19.9836 17.2911 20.1456C17.2601 20.2401 17.3249 20.4767 17.4105 20.5725C17.4389 20.6166 17.4794 20.6328 17.4794 20.6328C17.4794 20.6328 17.3846 20.3075 17.4659 20.0925C17.5442 19.885 17.5272 19.578 17.5258 19.5566C17.5237 19.5684 17.5087 19.666 17.4753 19.7372Z" fill="#E6E6E6"/>
  <path d="M18.0254 20.4668C18.0251 20.4671 18.0248 20.4671 18.0245 20.4674C18.0062 20.4817 17.7396 20.6848 17.5036 20.7611C17.2588 20.8403 17.0244 21.1074 17.0244 21.1074C17.0244 21.1074 17.4041 21.1085 17.573 21.001C17.7766 20.8721 18.0181 20.4792 18.0254 20.4668Z" fill="#929292"/>
  <path d="M17.8299 20.5459C17.6667 20.5878 17.5254 20.6108 17.3461 20.6759C17.2415 20.7139 17.0684 20.9054 17.0353 21.023C17.0134 21.0699 17.0241 21.1074 17.0241 21.1074C17.0241 21.1074 17.2585 20.8403 17.5033 20.7611C17.7393 20.6848 18.0059 20.4817 18.0242 20.4674C18.0123 20.4734 17.9149 20.524 17.8299 20.5459Z" fill="#E6E6E6"/>
  <path d="M17.2173 20.1179C17.2173 20.1183 17.217 20.1185 17.217 20.1188C17.2141 20.1401 17.1688 20.445 17.0498 20.6372C16.9262 20.8367 16.9538 21.1714 16.9538 21.1714C16.9538 21.1714 17.2397 20.9549 17.2848 20.7778C17.3395 20.5645 17.2213 20.1314 17.2173 20.1179Z" fill="#929292"/>
  <path d="M17.131 20.2889C17.0405 20.4136 16.9519 20.5117 16.8671 20.6631C16.8173 20.7515 16.8334 20.9943 16.8982 21.1015C16.9173 21.1493 16.954 21.1714 16.954 21.1714C16.954 21.1714 16.9263 20.8367 17.05 20.6372C17.1689 20.445 17.2143 20.1401 17.2172 20.1188C17.2128 20.1301 17.1783 20.2239 17.131 20.2889Z" fill="#E6E6E6"/>
  <path d="M17.4257 21.155C17.4252 21.1552 17.4249 21.1552 17.4246 21.1553C17.4028 21.1653 17.0871 21.3059 16.8367 21.3303C16.5771 21.3554 16.2744 21.565 16.2744 21.565C16.2744 21.565 16.6426 21.6459 16.8366 21.5775C17.0704 21.4955 17.415 21.1654 17.4257 21.155Z" fill="#929292"/>
  <path d="M17.2139 21.1908C17.0441 21.197 16.9005 21.1896 16.7084 21.2149C16.5962 21.2297 16.3745 21.3789 16.3092 21.486C16.2747 21.5266 16.2744 21.5654 16.2744 21.5654C16.2744 21.5654 16.5771 21.3558 16.8367 21.3307C17.0871 21.3064 17.4028 21.1658 17.4246 21.1557C17.4113 21.159 17.3026 21.1875 17.2139 21.1908Z" fill="#E6E6E6"/>
  <path d="M16.7405 20.6462C16.7404 20.6465 16.7401 20.6466 16.74 20.647C16.7312 20.667 16.6014 20.9531 16.4318 21.1144C16.2559 21.2818 16.1885 21.6123 16.1885 21.6123C16.1885 21.6123 16.5266 21.4627 16.6201 21.3003C16.7332 21.1051 16.7405 20.66 16.7405 20.6462Z" fill="#929292"/>
  <path d="M16.609 20.7938C16.4859 20.8956 16.3726 20.972 16.2476 21.101C16.1746 21.1762 16.1218 21.415 16.1544 21.5328C16.1595 21.583 16.1889 21.6123 16.1889 21.6123C16.1889 21.6123 16.2564 21.2818 16.4322 21.1144C16.6018 20.9531 16.7316 20.667 16.7404 20.647C16.7329 20.657 16.6731 20.7406 16.609 20.7938Z" fill="#E6E6E6"/>
  <path d="M16.7711 21.6484C16.7707 21.6487 16.7704 21.6485 16.7701 21.6488C16.7479 21.6581 16.4266 21.7887 16.1752 21.8051C15.9147 21.8219 15.6035 22.0219 15.6035 22.0219C15.6035 22.0219 15.9678 22.1145 16.1646 22.0522C16.4018 21.9775 16.7602 21.6585 16.7711 21.6484Z" fill="#929292"/>
  <path d="M16.5581 21.6773C16.3879 21.6781 16.245 21.6661 16.0518 21.6854C15.9392 21.6967 15.7112 21.8387 15.6417 21.9437C15.6054 21.9833 15.6035 22.022 15.6035 22.022C15.6035 22.022 15.9147 21.822 16.1752 21.8052C16.4266 21.7888 16.7479 21.6582 16.7701 21.6489C16.7567 21.6517 16.6469 21.6768 16.5581 21.6773Z" fill="#E6E6E6"/>
  <path d="M16.1079 21.1175C16.1078 21.1177 16.1075 21.1178 16.1073 21.1182C16.0977 21.1379 15.956 21.4198 15.7797 21.5757C15.597 21.7374 15.5156 22.0654 15.5156 22.0654C15.5156 22.0654 15.8599 21.9267 15.9603 21.7674C16.0814 21.5758 16.1073 21.1313 16.1079 21.1175Z" fill="#929292"/>
  <path d="M15.9704 21.2608C15.8432 21.3586 15.7266 21.4314 15.5964 21.5564C15.5203 21.6293 15.4575 21.8663 15.4852 21.9848C15.4881 22.0354 15.5162 22.0654 15.5162 22.0654C15.5162 22.0654 15.5975 21.7374 15.7803 21.5757C15.9566 21.4198 16.0982 21.1379 16.1079 21.1182C16.1 21.128 16.0366 21.2097 15.9704 21.2608Z" fill="#E6E6E6"/>
  <path d="M15.9301 22.1159C15.9297 22.1159 15.9294 22.1158 15.9289 22.1159C15.9046 22.1196 15.5545 22.1704 15.3075 22.1274C15.0513 22.0828 14.6895 22.2027 14.6895 22.2027C14.6895 22.2027 15.0115 22.3769 15.2204 22.363C15.472 22.3465 15.9163 22.123 15.9301 22.1159Z" fill="#929292"/>
  <path d="M15.716 22.0931C15.5519 22.0543 15.418 22.0093 15.2259 21.9828C15.1139 21.9672 14.8503 22.0508 14.7505 22.1358C14.7034 22.1654 14.6895 22.2021 14.6895 22.2021C14.6895 22.2021 15.0513 22.0823 15.3075 22.1269C15.5545 22.1698 15.9046 22.119 15.9289 22.1153C15.9152 22.115 15.8016 22.1134 15.716 22.0931Z" fill="#E6E6E6"/>
  <path d="M15.4574 21.4495C15.4571 21.4499 15.4568 21.4499 15.4565 21.4502C15.4412 21.4669 15.2169 21.7052 14.9987 21.8142C14.7722 21.9272 14.5918 22.2241 14.5918 22.2241C14.5918 22.2241 14.9665 22.1709 15.1127 22.0409C15.2892 21.8848 15.4524 21.4628 15.4574 21.4495Z" fill="#929292"/>
  <path d="M15.2795 21.5553C15.1266 21.6199 14.9915 21.6627 14.8272 21.7526C14.7312 21.8051 14.5969 22.0186 14.5867 22.1394C14.5739 22.1886 14.5915 22.2241 14.5915 22.2241C14.5915 22.2241 14.7719 21.9272 14.9984 21.8142C15.2166 21.7052 15.4409 21.4669 15.4562 21.4502C15.4457 21.4577 15.3592 21.5216 15.2795 21.5553Z" fill="#E6E6E6"/>
  <path d="M15.078 22.4124C15.0776 22.4124 15.0773 22.4123 15.0769 22.4123C15.0521 22.4123 14.6973 22.4095 14.4626 22.3299C14.2194 22.2475 13.8389 22.3108 13.8389 22.3108C13.8389 22.3108 14.121 22.531 14.3295 22.5487C14.5804 22.5704 15.063 22.4174 15.078 22.4124Z" fill="#929292"/>
  <path d="M14.8716 22.3583C14.718 22.295 14.595 22.2305 14.4113 22.1756C14.3042 22.1434 14.0276 22.1859 13.9125 22.2544C13.8599 22.2765 13.8389 22.3106 13.8389 22.3106C13.8389 22.3106 14.2194 22.2473 14.4626 22.3297C14.6973 22.4093 15.0521 22.4121 15.0769 22.4121C15.0634 22.4097 14.9519 22.3911 14.8716 22.3583Z" fill="#E6E6E6"/>
  <path d="M14.6199 21.7634C14.6198 21.7636 14.6195 21.7636 14.6192 21.7639C14.6029 21.7761 14.3676 21.952 14.1602 22.0172C13.9452 22.0847 13.7373 22.3169 13.7373 22.3169C13.7373 22.3169 14.0697 22.3204 14.2187 22.2278C14.3982 22.1164 14.6135 21.7741 14.6199 21.7634Z" fill="#929292"/>
  <path d="M14.4483 21.8312C14.3051 21.8667 14.1811 21.8857 14.0236 21.9415C13.9317 21.974 13.7782 22.1404 13.7482 22.2431C13.7284 22.2839 13.7374 22.3169 13.7374 22.3169C13.7374 22.3169 13.9453 22.0847 14.1602 22.0172C14.3677 21.952 14.603 21.7762 14.6192 21.7639C14.6087 21.7689 14.523 21.8127 14.4483 21.8312Z" fill="#E6E6E6"/>
  <path d="M14.2527 22.6084C14.2524 22.6082 14.2524 22.6082 14.2522 22.608C14.2407 22.6032 14.0766 22.5325 13.9885 22.4498C13.8972 22.3638 13.7041 22.3188 13.7041 22.3188C13.7041 22.3188 13.7776 22.4761 13.8697 22.5251C13.9805 22.5843 14.2443 22.6077 14.2527 22.6084Z" fill="#929292"/>
  <path d="M14.1709 22.5428C14.1161 22.4835 14.0759 22.4295 14.0049 22.368C13.9637 22.332 13.8242 22.2977 13.7528 22.307C13.7228 22.307 13.7041 22.3187 13.7041 22.3187C13.7041 22.3187 13.8972 22.3637 13.9885 22.4497C14.0766 22.5324 14.2407 22.6031 14.2522 22.6079C14.2465 22.6042 14.1995 22.5737 14.1709 22.5428Z" fill="#E6E6E6"/>
  <path d="M11.224 11.8438C8.55687 12.3105 6.5327 13.6883 5.38834 15.3593C4.44561 16.7344 4.31187 17.8401 4.71044 19.1513C6.63614 25.7607 9.37084 22.2863 13.0449 25.5069C13.0764 25.5351 13.0714 25.5709 13.0453 25.5922L12.766 25.8196C12.7403 25.8404 12.6989 25.8419 12.6711 25.817C10.4055 23.8524 8.64802 24.6001 6.84596 23.5111C5.31591 22.5752 4.65367 20.6205 4.23637 18.9944C3.82961 17.4003 4.38167 15.9768 5.55339 14.6389C5.62347 14.5561 5.84471 14.3285 5.88129 14.293C7.31887 12.9372 8.99743 12.0652 11.224 11.8438Z" fill="#929292"/>
  <path d="M3.34684 13.7131C3.34654 13.7142 3.34698 13.7148 3.34669 13.7159C3.33425 13.7823 3.16672 14.7363 3.33381 15.4058C3.50735 16.0999 3.0899 17.0894 3.0899 17.0894C3.0899 17.0894 2.44332 16.2221 2.48429 15.6536C2.53228 14.9691 3.32167 13.7507 3.34684 13.7131Z" fill="#929292"/>
  <path d="M3.43676 14.2938C3.58572 14.738 3.75486 15.1001 3.85977 15.6208C3.92137 15.9246 3.63049 16.6451 3.3279 16.9202C3.22241 17.0499 3.08984 17.0894 3.08984 17.0894C3.08984 17.0894 3.50729 16.0999 3.33376 15.4058C3.16666 14.7363 3.3342 13.7823 3.34663 13.7159C3.34868 13.7535 3.35936 14.0621 3.43676 14.2938Z" fill="#E6E6E6"/>
  <path d="M5.03216 14.8659C5.03158 14.8669 5.03201 14.8676 5.03143 14.8687C5.00568 14.9321 4.64515 15.8451 4.67237 16.5297C4.7009 17.2395 4.08724 18.1489 4.08724 18.1489C4.08724 18.1489 3.62867 17.1961 3.78567 16.643C3.97311 15.9767 4.99968 14.899 5.03216 14.8659Z" fill="#929292"/>
  <path d="M5.00224 15.4512C5.05784 15.9112 5.15016 16.2936 5.14665 16.8222C5.14489 17.1305 4.71106 17.795 4.35697 18.0192C4.2266 18.1306 4.08789 18.1489 4.08789 18.1489C4.08789 18.1489 4.70155 17.2395 4.67302 16.5297C4.6458 15.8451 5.00633 14.9321 5.03208 14.8687C5.02638 14.906 4.9737 15.2113 5.00224 15.4512Z" fill="#E6E6E6"/>
  <path d="M1.67188 15.5349C1.67231 15.5358 1.67304 15.536 1.67348 15.5369C1.70172 15.5886 2.1161 16.327 2.60641 16.7263C3.11501 17.14 3.37414 18.0078 3.37414 18.0078C3.37414 18.0078 2.43756 17.6706 2.14946 17.2551C1.80151 16.7555 1.67524 15.5718 1.67188 15.5349Z" fill="#929292"/>
  <path d="M2.05909 15.9042C2.41098 16.153 2.73157 16.336 3.09532 16.657C3.30777 16.844 3.50574 17.4705 3.44692 17.7897C3.44546 17.9248 3.37449 18.0078 3.37449 18.0078C3.37449 18.0078 3.11536 17.14 2.60676 16.7263C2.11644 16.327 1.70207 15.5886 1.67383 15.5369C1.69607 15.5624 1.87575 15.7741 2.05909 15.9042Z" fill="#E6E6E6"/>
  <path d="M1.37891 17.6329C1.37964 17.6336 1.38037 17.6338 1.3811 17.6345C1.425 17.6814 2.06353 18.3483 2.68158 18.6511C3.3226 18.9647 3.83925 19.7979 3.83925 19.7979C3.83925 19.7979 2.78181 19.6554 2.36626 19.2922C1.86498 18.8557 1.39295 17.67 1.37891 17.6329Z" fill="#929292"/>
  <path d="M1.88298 17.9274C2.31579 18.106 2.69709 18.224 3.16283 18.4739C3.43469 18.6196 3.81907 19.2186 3.85126 19.5586C3.88871 19.6972 3.83999 19.7979 3.83999 19.7979C3.83999 19.7979 3.32334 18.9647 2.68232 18.6511C2.06427 18.3483 1.42573 17.6814 1.38184 17.6345C1.41198 17.6558 1.65735 17.834 1.88298 17.9274Z" fill="#E6E6E6"/>
  <path d="M3.63955 16.8102C3.63955 16.8113 3.64028 16.812 3.64028 16.8131C3.64555 16.8826 3.73275 17.8798 4.08143 18.5222C4.44328 19.1882 4.28759 20.2715 4.28759 20.2715C4.28759 20.2715 3.40149 19.526 3.29014 18.9436C3.15465 18.2427 3.62433 16.8533 3.63955 16.8102Z" fill="#929292"/>
  <path d="M3.88688 17.3785C4.15669 17.7971 4.42489 18.1286 4.67085 18.6333C4.81454 18.9277 4.7146 19.7139 4.48283 20.0527C4.41128 20.2049 4.28794 20.2715 4.28794 20.2715C4.28794 20.2715 4.44362 19.1882 4.08177 18.5222C3.7331 17.8798 3.64589 16.8826 3.64062 16.8131C3.65262 16.8506 3.74656 17.1601 3.88688 17.3785Z" fill="#E6E6E6"/>
  <path d="M1.47754 20.9053C1.47871 20.9058 1.47959 20.9054 1.48076 20.906C1.55655 20.9293 2.64823 21.2551 3.46747 21.2324C4.317 21.2086 5.40371 21.7616 5.40371 21.7616C5.40371 21.7616 4.26242 22.1708 3.60092 22.0286C2.80407 21.8585 1.51705 20.9346 1.47754 20.9053Z" fill="#929292"/>
  <path d="M2.17768 20.9339C2.72828 20.8851 3.18596 20.8032 3.81835 20.8077C4.18736 20.8099 4.98144 21.201 5.24876 21.5194C5.38176 21.6368 5.40342 21.7612 5.40342 21.7612C5.40342 21.7612 4.31671 21.2082 3.46718 21.232C2.64795 21.2547 1.55626 20.9289 1.48047 20.9056C1.5251 20.9108 1.89046 20.9589 2.17768 20.9339Z" fill="#E6E6E6"/>
  <path d="M3.81445 19.8638C3.81504 19.8648 3.81591 19.865 3.8165 19.8661C3.85718 19.9261 4.45167 20.7835 5.09606 21.2222C5.76444 21.6769 6.18643 22.7056 6.18643 22.7056C6.18643 22.7056 5.00841 22.3834 4.60721 21.9062C4.12304 21.3325 3.82309 19.9082 3.81445 19.8638Z" fill="#929292"/>
  <path d="M4.3294 20.2758C4.78738 20.545 5.19883 20.7371 5.67992 21.0926C5.96085 21.2999 6.2788 22.0414 6.2472 22.4341C6.26212 22.5981 6.18633 22.7056 6.18633 22.7056C6.18633 22.7056 5.76435 21.6769 5.09597 21.2222C4.45158 20.7835 3.85708 19.9261 3.81641 19.866C3.84669 19.8949 4.09075 20.1351 4.3294 20.2758Z" fill="#E6E6E6"/>
  <path d="M6.38705 19.6489C6.38705 19.6502 6.38778 19.6507 6.38778 19.6519C6.39408 19.7213 6.4965 20.7174 6.85498 21.3557C7.22692 22.0176 7.08792 23.1025 7.08792 23.1025C7.08792 23.1025 6.19055 22.3673 6.07027 21.7863C5.9241 21.0871 6.37242 19.6923 6.38705 19.6489Z" fill="#929292"/>
  <path d="M6.6416 20.2145C6.91771 20.6298 7.19103 20.9583 7.4446 21.46C7.59282 21.7527 7.50488 22.5401 7.27838 22.8815C7.20917 23.0346 7.08685 23.1025 7.08685 23.1025C7.08685 23.1025 7.22586 22.0176 6.85391 21.3557C6.49543 20.7174 6.39301 19.7213 6.38672 19.6519C6.3993 19.6892 6.49792 19.9977 6.6416 20.2145Z" fill="#E6E6E6"/>
  <path d="M8.14004 20.5831C8.14004 20.5842 8.14062 20.5848 8.14077 20.586C8.14706 20.6554 8.24948 21.6514 8.60796 22.2898C8.97991 22.9515 8.84076 24.0366 8.84076 24.0366C8.84076 24.0366 7.94338 23.3012 7.82326 22.7203C7.67694 22.0211 8.12526 20.6263 8.14004 20.5831Z" fill="#929292"/>
  <path d="M8.39551 21.1486C8.67162 21.5638 8.94494 21.8923 9.19851 22.3941C9.34673 22.6868 9.25879 23.4741 9.03229 23.8155C8.96294 23.9686 8.84061 24.0366 8.84061 24.0366C8.84061 24.0366 8.97976 22.9515 8.60782 22.2898C8.24934 21.6514 8.14692 20.6554 8.14062 20.586C8.15321 20.6233 8.25168 20.9316 8.39551 21.1486Z" fill="#E6E6E6"/>
  <path d="M2.88672 23.189C2.88804 23.1893 2.88891 23.1889 2.89023 23.1891C2.97319 23.202 4.16613 23.3757 5.00819 23.23C5.88113 23.0786 7.11416 23.488 7.11416 23.488C7.11416 23.488 6.01618 24.0811 5.30434 24.0329C4.44721 23.9761 2.93354 23.2133 2.88672 23.189Z" fill="#929292"/>
  <path d="M3.61666 23.1141C4.17589 22.9817 4.6327 22.8287 5.28703 22.7389C5.66878 22.6863 6.56703 22.9719 6.90663 23.2611C7.06744 23.3623 7.11455 23.4878 7.11455 23.4878C7.11455 23.4878 5.88152 23.0785 5.00859 23.2298C4.16652 23.3755 2.97359 23.2018 2.89062 23.189C2.93774 23.1878 3.32475 23.1829 3.61666 23.1141Z" fill="#E6E6E6"/>
  <path d="M6.38672 25.579C6.38789 25.5787 6.38818 25.5781 6.38935 25.5778C6.45651 25.5569 7.41563 25.2488 7.96213 24.8343C8.52853 24.4046 9.63177 24.2544 9.63177 24.2544C9.63177 24.2544 9.11556 25.0902 8.57009 25.3149C7.91399 25.5862 6.43281 25.5797 6.38672 25.579Z" fill="#929292"/>
  <path d="M6.88552 25.2582C7.23098 24.9568 7.49143 24.6778 7.92746 24.373C8.18176 24.195 8.97949 24.0764 9.36928 24.1645C9.53653 24.18 9.63207 24.2547 9.63207 24.2547C9.63207 24.2547 8.52883 24.4049 7.96243 24.8346C7.41593 25.2491 6.45681 25.5572 6.38965 25.5781C6.42359 25.56 6.70497 25.4152 6.88552 25.2582Z" fill="#E6E6E6"/>
  <path d="M12.2969 10.4496C12.2958 10.4498 12.2956 10.4505 12.2944 10.4508C12.2309 10.473 11.3218 10.7992 10.8139 11.2146C10.2875 11.6453 9.2334 11.8242 9.2334 11.8242C9.2334 11.8242 9.69474 11.0047 10.2095 10.7718C10.8287 10.4905 12.2525 10.4503 12.2969 10.4496Z" fill="#929292"/>
  <path d="M11.8313 10.7744C11.5117 11.0748 11.2731 11.3511 10.8668 11.6576C10.6297 11.8367 9.86813 11.9757 9.4899 11.9033C9.32851 11.8936 9.2334 11.8247 9.2334 11.8247C9.2334 11.8247 10.2875 11.6458 10.8139 11.2151C11.3218 10.7997 12.2309 10.4735 12.2944 10.4514C12.2625 10.4697 11.9981 10.6179 11.8313 10.7744Z" fill="#E6E6E6"/>
  <path d="M10.0892 9.99926C10.0886 10 10.0888 10.0008 10.088 10.0015C10.051 10.0515 9.52734 10.773 9.39053 11.3662C9.24889 11.9813 8.50852 12.6553 8.50852 12.6553C8.50852 12.6553 8.33747 11.7557 8.60187 11.3079C8.91894 10.7681 10.0535 10.0221 10.0892 9.99926Z" fill="#929292"/>
  <path d="M9.92632 10.4972C9.86633 10.9024 9.85624 11.2472 9.72938 11.7009C9.65578 11.9657 9.12728 12.4606 8.77041 12.5911C8.63228 12.6639 8.50879 12.6555 8.50879 12.6555C8.50879 12.6555 9.24916 11.9814 9.3908 11.3664C9.52761 10.7732 10.0513 10.0516 10.0883 10.0017C10.0747 10.0328 9.95793 10.286 9.92632 10.4972Z" fill="#E6E6E6"/>
  <path d="M8.32007 10.7107C8.31978 10.7115 8.32007 10.712 8.31963 10.7128C8.30412 10.7586 8.08772 11.4196 8.13688 11.9053C8.18809 12.409 7.79156 13.0757 7.79156 13.0757C7.79156 13.0757 7.42401 12.4132 7.51151 12.0149C7.61569 11.5352 8.29841 10.7355 8.32007 10.7107Z" fill="#929292"/>
  <path d="M8.32332 11.1279C8.38287 11.4532 8.46525 11.722 8.48588 12.0978C8.49803 12.317 8.21856 12.8036 7.97655 12.9746C7.88876 13.0581 7.79102 13.0757 7.79102 13.0757C7.79102 13.0757 8.18754 12.409 8.13633 11.9053C8.08717 11.4196 8.30357 10.7586 8.31908 10.7128C8.31659 10.7395 8.29259 10.9582 8.32332 11.1279Z" fill="#E6E6E6"/>
  <path d="M11.9155 12.3104C11.9146 12.3106 11.9142 12.3111 11.9132 12.3113C11.8554 12.3241 11.0271 12.5162 10.5337 12.8248C10.0221 13.1449 9.08789 13.1953 9.08789 13.1953C9.08789 13.1953 9.5943 12.533 10.0698 12.3825C10.6418 12.2007 11.8772 12.3066 11.9155 12.3104Z" fill="#929292"/>
  <path d="M11.4705 12.545C11.1549 12.7729 10.9123 12.988 10.5209 13.2126C10.2927 13.3439 9.61625 13.3888 9.29903 13.2888C9.16091 13.2645 9.08789 13.1957 9.08789 13.1957C9.08789 13.1957 10.0221 13.1452 10.5337 12.8251C11.0271 12.5166 11.8554 12.3245 11.9132 12.3117C11.8832 12.3244 11.6353 12.4262 11.4705 12.545Z" fill="#E6E6E6"/>
  <path d="M9.38717 11.8679C9.38643 11.8687 9.38643 11.8693 9.3857 11.8699C9.3459 11.9148 8.7817 12.564 8.5969 13.1178C8.40537 13.6924 7.63968 14.2812 7.63968 14.2812C7.63968 14.2812 7.56038 13.4148 7.85301 13.0077C8.20418 12.5171 9.35117 11.887 9.38717 11.8679Z" fill="#929292"/>
  <path d="M9.18595 12.3297C9.09142 12.7105 9.04987 13.0373 8.88745 13.4595C8.79293 13.7059 8.24512 14.1394 7.8941 14.2385C7.75612 14.2982 7.63965 14.2816 7.63965 14.2816C7.63965 14.2816 8.40534 13.6927 8.59687 13.1182C8.78167 12.5643 9.34587 11.9151 9.38567 11.8702C9.36987 11.8988 9.23555 12.1313 9.18595 12.3297Z" fill="#E6E6E6"/>
  <path d="M9.88309 13.7634C9.88206 13.7637 9.88177 13.7643 9.88075 13.7647C9.82105 13.7879 8.96903 14.1278 8.50301 14.5396C8.01987 14.9668 7.02344 15.1709 7.02344 15.1709C7.02344 15.1709 7.42786 14.3755 7.90837 14.1371C8.48618 13.8494 9.8408 13.7655 9.88309 13.7634Z" fill="#929292"/>
  <path d="M9.45335 14.0869C9.16174 14.3833 8.94621 14.654 8.57208 14.9591C8.35406 15.1372 7.63446 15.294 7.27101 15.2372C7.11679 15.233 7.02344 15.1706 7.02344 15.1706C7.02344 15.1706 8.01987 14.9664 8.50301 14.5392C8.96903 14.1274 9.82105 13.7875 9.88075 13.7644C9.85119 13.7829 9.60552 13.9324 9.45335 14.0869Z" fill="#E6E6E6"/>
  <path d="M6.06493 11.9225C6.06478 11.9238 6.06552 11.9243 6.06537 11.9256C6.06332 11.9963 6.04723 13.0122 6.33284 13.6896C6.62914 14.392 6.3583 15.4761 6.3583 15.4761C6.3583 15.4761 5.53965 14.652 5.488 14.054C5.4242 13.3342 6.04488 11.965 6.06493 11.9225Z" fill="#929292"/>
  <path d="M6.2552 12.5171C6.48448 12.9617 6.72122 13.3183 6.91714 13.8484C7.03171 14.1574 6.84823 14.9453 6.57841 15.2699C6.48989 15.4184 6.3582 15.4761 6.3582 15.4761C6.3582 15.4761 6.62904 14.392 6.33274 13.6896C6.04713 13.0122 6.06323 11.9963 6.06527 11.9256C6.07347 11.9645 6.13609 12.2851 6.2552 12.5171Z" fill="#E6E6E6"/>
  <path d="M7.76164 13.2318C7.76091 13.2328 7.7612 13.2336 7.76047 13.2346C7.72111 13.2967 7.16671 14.1921 7.06033 14.9074C6.95016 15.6491 6.13355 16.5034 6.13355 16.5034C6.13355 16.5034 5.84472 15.4457 6.11658 14.8941C6.44258 14.2296 7.72125 13.2615 7.76164 13.2318Z" fill="#929292"/>
  <path d="M7.614 13.8355C7.58107 14.3217 7.60171 14.7327 7.49402 15.2812C7.43154 15.6013 6.84992 16.2277 6.43789 16.4083C6.28045 16.5048 6.13281 16.5034 6.13281 16.5034C6.13281 16.5034 6.94942 15.6491 7.0596 14.9074C7.16597 14.1921 7.72037 13.2967 7.75973 13.2346C7.74627 13.2725 7.63141 13.5821 7.614 13.8355Z" fill="#E6E6E6"/>
  <path d="M8.65081 15.4756C8.64993 15.4761 8.64979 15.4769 8.64891 15.4775C8.59418 15.5171 7.81679 16.0917 7.4687 16.643C7.10803 17.2147 6.13281 17.6841 6.13281 17.6841C6.13281 17.6841 6.28528 16.7464 6.70785 16.3733C7.21542 15.9235 8.60735 15.4886 8.65081 15.4756Z" fill="#929292"/>
  <path d="M8.31077 15.9262C8.10621 16.3117 7.97277 16.6509 7.68467 17.0666C7.51684 17.3092 6.81568 17.6579 6.41521 17.6914C6.25206 17.7266 6.13281 17.6851 6.13281 17.6851C6.13281 17.6851 7.10803 17.2157 7.4687 16.6439C7.81679 16.0927 8.59418 15.5181 8.64891 15.4785C8.62418 15.5055 8.41773 15.7252 8.31077 15.9262Z" fill="#E6E6E6"/>
  <path d="M5.19947 15.1708C5.19961 15.1717 5.2002 15.1721 5.20049 15.1728C5.21468 15.2239 5.42728 15.9547 5.78152 16.3929C6.14893 16.8472 6.194 17.6689 6.194 17.6689C6.194 17.6689 5.42553 17.2139 5.25653 16.794C5.05183 16.2885 5.19449 15.2045 5.19947 15.1708Z" fill="#929292"/>
  <path d="M5.46693 15.5654C5.72928 15.8461 5.97759 16.0625 6.23496 16.4099C6.38538 16.6125 6.42781 17.2074 6.30607 17.4847C6.27535 17.6057 6.1937 17.6689 6.1937 17.6689C6.1937 17.6689 6.14863 16.8472 5.78123 16.3929C5.42699 15.9547 5.21439 15.2239 5.2002 15.1728C5.21468 15.1995 5.33027 15.4188 5.46693 15.5654Z" fill="#E6E6E6"/>
  <path d="M7.74646 17.4026C7.74558 17.4031 7.74559 17.4037 7.74471 17.4043C7.6992 17.439 7.05189 17.9425 6.76935 18.4183C6.47656 18.9116 5.6582 19.3291 5.6582 19.3291C5.6582 19.3291 5.76472 18.5282 6.11501 18.203C6.53582 17.8105 7.70959 17.4145 7.74646 17.4026Z" fill="#929292"/>
  <path d="M7.46816 17.7919C7.3037 18.1238 7.19835 18.415 6.96351 18.7741C6.8267 18.9838 6.23865 19.2937 5.8986 19.3297C5.76077 19.3626 5.6582 19.3294 5.6582 19.3294C5.6582 19.3294 6.47656 18.9119 6.76935 18.4186C7.05189 17.9429 7.6992 17.4393 7.74471 17.4046C7.72437 17.4281 7.5542 17.619 7.46816 17.7919Z" fill="#E6E6E6"/>
  <path d="M5.75005 17.184C5.74961 17.1852 5.7502 17.1859 5.74976 17.1871C5.73103 17.2575 5.47365 18.2706 5.59846 18.999C5.72825 19.7543 5.19989 20.79 5.19989 20.79C5.19989 20.79 4.57687 19.8203 4.66715 19.213C4.77425 18.4818 5.71991 17.2229 5.75005 17.184Z" fill="#929292"/>
  <path d="M5.79966 17.8126C5.9233 18.2981 6.07547 18.6968 6.14556 19.2617C6.18697 19.5913 5.81635 20.3467 5.46942 20.6232C5.34578 20.7558 5.2002 20.79 5.2002 20.79C5.2002 20.79 5.72855 19.7543 5.59877 18.999C5.47396 18.2706 5.73133 17.2575 5.75006 17.1871C5.74904 17.2275 5.73557 17.5592 5.79966 17.8126Z" fill="#E6E6E6"/>
  <path d="M15.7573 20.4429H11.7236V19.7078C13.1053 18.8418 14.1631 18.0626 14.1631 17.4067C14.1631 16.6081 12.9523 16.5958 11.9686 17.1737H11.8582V16.1844C12.9028 15.7896 15.5191 15.5704 15.5191 17.2513C15.5191 18.1974 14.4987 18.9385 13.4489 19.5911H15.7573V20.4429Z" fill="#E6E3E3"/>
</svg>